# Blender 4.2.0
# www.blender.org
mtllib louis.mtl
o Barrel
v 4.937500 2.437500 -0.187500
v 5.000000 2.437500 -0.250000
v 4.937500 2.437500 -0.250000
v 5.000000 2.062500 -0.250000
v 4.937500 2.062500 -0.187500
v 4.937500 2.062500 -0.250000
v 1.000000 2.062500 -0.187500
v 1.000000 2.437500 -0.187500
v 1.000000 2.437500 -0.250000
v 1.000000 2.062500 -0.250000
v 5.000000 1.875000 0.250000
v 5.000000 1.687500 -0.250000
v 5.000000 1.875000 -0.250000
v 1.000000 1.875000 -0.250000
v 1.000000 1.875000 0.250000
v 5.000000 1.687500 0.250000
v 1.000000 1.687500 -0.250000
v 5.000000 1.875000 0.437500
v 1.000000 1.687500 0.250000
v 5.000000 1.875000 -0.437500
v 1.000000 1.875000 -0.437500
v 1.000000 2.625000 0.437500
v 5.000000 2.625000 0.437500
v 5.000000 2.625000 0.250000
v 1.000000 2.625000 0.250000
v 5.000000 2.625000 -0.437500
v 1.000000 2.625000 -0.437500
v 1.000000 2.625000 -0.250000
v 5.000000 2.625000 -0.250000
v 1.000000 2.812500 0.250000
v 5.000000 2.812500 0.250000
v 5.000000 2.812500 -0.250000
v 1.000000 2.812500 -0.250000
v 1.000000 2.750000 0.500000
v 1.000000 1.750000 -0.500000
v 1.000000 2.750000 -0.500000
v -0.937500 2.750000 0.375000
v -0.937500 1.750000 -0.375000
v -0.937500 1.750000 0.375000
v 1.000000 2.875000 0.375000
v -0.812500 2.875000 -0.375000
v -0.812500 2.875000 0.375000
v 1.000000 1.625000 0.375000
v -0.812500 1.625000 -0.375000
v 1.000000 1.625000 -0.375000
v -0.812500 1.750000 0.500000
v 1.000000 1.750000 0.500000
v -0.812500 1.750000 -0.500000
v -0.812500 2.750000 -0.500000
v 1.000000 2.875000 -0.375000
v -0.812500 1.625000 0.375000
v -0.812500 2.750000 0.500000
v -0.937500 2.750000 -0.375000
v 5.000000 2.062500 0.125000
v 5.000000 1.875000 -0.250000
v 5.000000 2.062500 -0.125000
v 1.000000 2.062500 -0.125000
v 1.000000 2.062500 0.125000
v 1.000000 1.875000 0.250000
v 5.000000 1.875000 0.250000
v 1.000000 1.875000 -0.250000
v 5.000000 2.437500 0.250000
v 4.937500 2.437500 0.187500
v 4.937500 2.437500 0.250000
v 4.937500 2.062500 0.187500
v 5.000000 2.062500 0.250000
v 4.937500 2.062500 0.250000
v 1.000000 2.062500 0.187500
v 1.000000 2.437500 0.187500
v 1.000000 2.062500 0.250000
v 5.000000 2.437500 -0.125000
v 5.000000 2.625000 0.250000
v 5.000000 2.437500 0.125000
v 1.000000 2.437500 0.125000
v 1.000000 2.437500 -0.125000
v 1.000000 2.625000 -0.250000
v 5.000000 2.625000 -0.250000
v 1.000000 2.625000 0.250000
v 1.000000 1.875000 0.437500
v 1.000000 2.437500 0.250000
vn -0.0000 1.0000 -0.0000
vn -0.0000 -1.0000 -0.0000
vn 0.7071 -0.0000 0.7071
vn -0.0000 -0.0000 1.0000
vn 1.0000 -0.0000 -0.0000
vn -0.0000 -0.7071 0.7071
vn -0.0000 -0.7071 -0.7071
vn -0.0000 -0.0000 -1.0000
vn -0.0000 0.7071 0.7071
vn -0.0000 0.7071 -0.7071
vn -1.0000 -0.0000 -0.0000
vn -0.7071 -0.0000 0.7071
vn -0.7071 -0.0000 -0.7071
vn -0.7071 -0.7071 -0.0000
vn -0.5774 -0.5774 0.5774
vn -0.5774 -0.5774 -0.5774
vn -0.7071 0.7071 -0.0000
vn -0.5774 0.5774 -0.5774
vn -0.5774 0.5774 0.5774
vn -0.0000 0.5547 0.8321
vn -0.0000 0.5547 -0.8321
vn 0.7071 -0.0000 -0.7071
vn -0.0000 -0.5547 -0.8321
vn -0.0000 -0.5547 0.8321
vt 0.631944 0.246094
vt 0.625000 0.250000
vt 0.625000 0.246094
vt 0.583333 0.250000
vt 0.576389 0.246094
vt 0.583333 0.246094
vt 0.625000 0.000000
vt 0.631944 0.000000
vt 0.583333 0.000000
vt 0.819444 0.292969
vt 0.798611 0.261719
vt 0.819444 0.261719
vt 0.819444 0.554688
vt 0.763889 0.304688
vt 0.819444 0.304688
vt 0.743056 0.250000
vt 0.798611 0.000000
vt 0.798611 0.250000
vt 0.722222 0.250000
vt 0.743056 0.000000
vt 0.819444 0.250000
vt 0.819444 0.000000
vt 0.798611 0.292969
vt 0.638889 0.000000
vt 0.638889 0.250000
vt 0.902778 0.304688
vt 0.902778 0.292969
vt 0.902778 0.000000
vt 0.680556 0.304688
vt 0.763889 0.554688
vt 0.680556 0.554688
vt 0.902778 0.261719
vt 0.902778 0.250000
vt 0.979167 0.000000
vt 1.000000 0.250000
vt 0.979167 0.250000
vt 0.923611 0.292969
vt 0.923611 0.250000
vt 0.923611 0.000000
vt 0.923611 0.261719
vt 0.958333 0.554688
vt 0.958333 0.304688
vt 0.888889 0.554688
vt 0.777778 0.617188
vt 0.888889 0.617188
vt 0.888889 0.738281
vt 0.777778 0.785156
vt 0.777778 0.738281
vt 0.902778 0.730469
vt 0.986111 0.617188
vt 0.902778 0.617188
vt 0.680556 0.730469
vt 0.763889 0.617188
vt 0.763889 0.730469
vt 0.777778 0.730469
vt 0.555556 0.730469
vt 0.666667 0.617188
vt 0.555556 0.617188
vt 0.902778 0.562500
vt 0.902778 0.609375
vt 0.986111 0.730469
vt 1.000000 0.617188
vt 0.763889 0.609375
vt 0.777778 0.554688
vt 0.763889 0.562500
vt 0.680556 0.617188
vt 0.666667 0.730469
vt 0.888889 0.730469
vt 0.888889 0.785156
vt 0.777778 0.792969
vt 0.763889 0.738281
vt 0.763889 0.734375
vt 0.763889 0.789063
vt 0.902778 0.785156
vt 0.902778 0.789063
vt 0.888889 0.792969
vt 0.902778 0.734375
vt 0.590278 0.304688
vt 0.631944 0.292969
vt 0.618056 0.304688
vt 0.618056 0.554688
vt 0.562500 0.554688
vt 0.590278 0.554688
vt 0.645833 0.554688
vt 0.645833 0.304688
vt 0.576389 0.000000
vt 0.722222 0.000000
vt 0.902778 0.554688
vt 1.000000 0.000000
vt 1.000000 0.730469
vt 0.763889 0.785156
vt 0.902778 0.738281
vt 0.576389 0.292969
vt 0.562500 0.304688
s 0
usemtl m_0a7d117c-6e48-9f2d-fbda-b995a178beae
f 1/1/1 2/2/1 3/3/1
f 4/4/2 5/5/2 6/6/2
f 2/3/3 5/4/3 4/6/3
f 7/6/4 1/7/4 8/3/4
f 8/3/1 3/8/1 9/1/1
f 10/5/2 5/9/2 7/6/2
f 11/10/5 12/11/5 13/12/5
f 11/13/1 14/14/1 15/15/1
f 16/16/2 17/17/2 12/18/2
f 18/19/6 19/20/6 16/16/6
f 20/21/7 17/17/7 21/22/7
f 12/11/5 20/21/5 13/12/5
f 18/15/5 16/23/5 11/10/5
f 22/24/4 18/19/4 23/25/4
f 23/26/5 11/10/5 24/27/5
f 24/13/8 15/26/8 25/15/8
f 26/21/8 21/28/8 27/22/8
f 28/29/4 13/30/4 29/31/4
f 29/32/5 20/21/5 26/33/5
f 30/34/9 23/35/9 31/36/9
f 31/37/5 23/26/5 24/27/5
f 32/38/10 27/28/10 33/39/10
f 32/40/5 29/32/5 26/33/5
f 31/36/1 33/39/1 30/34/1
f 25/41/2 29/26/2 24/42/2
f 24/27/5 32/40/5 31/37/5
f 34/43/5 35/44/5 36/45/5
f 37/46/11 38/47/11 39/48/11
f 40/49/1 41/50/1 42/51/1
f 43/52/2 44/53/2 45/54/2
f 34/45/4 46/55/4 47/44/4
f 36/56/8 48/57/8 49/58/8
f 42/49/9 34/45/9 40/51/9
f 40/59/5 36/45/5 50/60/5
f 50/61/10 49/62/10 41/50/10
f 45/63/5 47/64/5 43/65/5
f 43/53/6 46/55/6 51/54/6
f 44/66/7 35/67/7 45/52/7
f 39/48/12 52/68/12 37/46/12
f 53/69/13 48/70/13 38/47/13
f 38/47/14 51/71/14 39/48/14
f 39/48/15 51/72/15 46/55/15
f 38/47/16 48/70/16 44/73/16
f 37/46/17 41/74/17 53/69/17
f 53/69/18 41/75/18 49/76/18
f 37/46/19 52/68/19 42/77/19
f 54/78/5 55/79/5 56/80/5
f 54/81/1 57/78/1 58/80/1
f 54/82/20 59/78/20 60/83/20
f 56/84/21 61/80/21 57/85/21
f 62/2/1 63/1/1 64/3/1
f 65/5/2 66/4/2 67/6/2
f 62/3/22 65/4/22 63/2/22
f 68/6/8 63/7/8 65/9/8
f 69/3/1 64/8/1 63/7/1
f 70/5/2 65/9/2 67/86/2
f 71/78/5 72/79/5 73/80/5
f 71/81/2 74/78/2 75/80/2
f 71/82/23 76/78/23 77/83/23
f 73/84/24 78/80/24 74/85/24
f 2/3/3 1/2/3 5/4/3
f 7/6/4 5/9/4 1/7/4
f 8/3/1 1/7/1 3/8/1
f 10/5/2 6/86/2 5/9/2
f 11/10/5 16/23/5 12/11/5
f 11/13/1 13/30/1 14/14/1
f 16/16/2 19/20/2 17/17/2
f 18/19/6 79/87/6 19/20/6
f 20/21/7 12/18/7 17/17/7
f 22/24/4 79/87/4 18/19/4
f 23/26/5 18/15/5 11/10/5
f 24/13/8 11/88/8 15/26/8
f 26/21/8 20/33/8 21/28/8
f 28/29/4 14/14/4 13/30/4
f 29/32/5 13/12/5 20/21/5
f 30/34/9 22/89/9 23/35/9
f 32/38/10 26/33/10 27/28/10
f 31/36/1 32/38/1 33/39/1
f 25/41/2 28/88/2 29/26/2
f 24/27/5 29/32/5 32/40/5
f 34/43/5 47/64/5 35/44/5
f 37/46/11 53/69/11 38/47/11
f 40/49/1 50/61/1 41/50/1
f 43/52/2 51/66/2 44/53/2
f 34/45/4 52/68/4 46/55/4
f 36/56/8 35/67/8 48/57/8
f 42/49/9 52/68/9 34/45/9
f 40/59/5 34/43/5 36/45/5
f 50/61/10 36/90/10 49/62/10
f 45/63/5 35/44/5 47/64/5
f 43/53/6 47/44/6 46/55/6
f 44/66/7 48/57/7 35/67/7
f 39/48/12 46/55/12 52/68/12
f 53/69/13 49/76/13 48/70/13
f 38/47/14 44/91/14 51/71/14
f 37/46/17 42/92/17 41/74/17
f 54/78/5 60/93/5 55/79/5
f 54/81/1 56/83/1 57/78/1
f 54/82/20 58/94/20 59/78/20
f 56/84/21 55/81/21 61/80/21
f 62/3/22 66/6/22 65/4/22
f 68/6/8 69/3/8 63/7/8
f 69/3/1 80/1/1 64/8/1
f 70/5/2 68/6/2 65/9/2
f 71/78/5 77/93/5 72/79/5
f 71/81/2 73/83/2 74/78/2
f 71/82/23 75/94/23 76/78/23
f 73/84/24 72/81/24 78/80/24
o Base
v -2.500000 0.812500 0.375000
v 2.375000 0.000000 0.983757
v 0.983757 0.000000 2.375000
v 0.000000 0.000000 0.000000
v 0.983757 0.625000 2.375000
v 2.375000 0.625000 0.983757
v 0.000000 0.625000 -0.000000
v 2.375000 -0.000000 -0.983757
v 2.375000 0.625000 -0.983757
v 0.983757 -0.000000 -2.375000
v 0.983757 0.625000 -2.375000
v -0.983757 -0.000000 -2.375000
v -0.983757 0.625000 -2.375000
v -2.375000 -0.000000 -0.983757
v -2.375000 0.625000 -0.983757
v -2.375000 0.000000 0.983757
v -2.375000 0.625000 0.983757
v -0.983757 0.000000 2.375000
v -0.983757 0.625000 2.375000
v 1.414214 0.625000 1.414214
v 0.765367 0.875000 1.847759
v 0.765367 0.625000 1.847759
v 1.414214 0.875000 1.414214
v 0.000000 0.875000 -0.000000
v 1.847759 0.625000 0.765367
v 1.847759 0.875000 0.765367
v 2.000000 0.625000 -0.000000
v 2.000000 0.875000 -0.000000
v 1.847759 0.625000 -0.765367
v 1.847759 0.875000 -0.765367
v 1.414214 0.625000 -1.414214
v 1.414214 0.875000 -1.414214
v 0.765367 0.625000 -1.847759
v 0.765367 0.875000 -1.847759
v 0.000000 0.625000 -2.000000
v 0.000000 0.875000 -2.000000
v -0.765367 0.625000 -1.847759
v -0.765367 0.875000 -1.847759
v -1.414214 0.625000 -1.414214
v -1.414214 0.875000 -1.414214
v -1.847759 0.625000 -0.765367
v -1.847759 0.875000 -0.765367
v -2.000000 0.625000 -0.000000
v -2.000000 0.875000 -0.000000
v -1.847759 0.625000 0.765367
v -1.847759 0.875000 0.765367
v -1.414214 0.625000 1.414214
v -1.414214 0.875000 1.414214
v -0.765367 0.625000 1.847759
v -0.765367 0.875000 1.847759
v 0.000000 0.625000 2.000000
v 0.000000 0.875000 2.000000
v 0.000000 0.625000 -0.000000
v 2.500000 0.812500 0.375000
v 2.500000 -0.000000 -0.375000
v 2.500000 0.812500 -0.375000
v 2.500000 0.875000 0.312500
v 1.875000 0.875000 -0.312500
v 1.875000 0.875000 0.312500
v 2.500000 0.875000 -0.312500
v 1.875000 0.812500 -0.375000
v 2.375000 0.625000 -0.375000
v 1.875000 0.812500 0.375000
v 2.375000 0.625000 0.375000
v 2.500000 0.000000 0.375000
v 2.375000 0.000000 0.375000
v 0.375000 0.812500 -2.500000
v -0.375000 -0.000000 -2.500000
v -0.375000 0.812500 -2.500000
v 0.312500 0.875000 -2.500000
v -0.312500 0.875000 -1.875000
v 0.312500 0.875000 -1.875000
v -0.312500 0.875000 -2.500000
v -0.375000 0.812500 -1.875000
v -0.375000 0.625000 -2.375000
v 0.375000 0.812500 -1.875000
v 0.375000 0.625000 -2.375000
v 0.375000 -0.000000 -2.500000
v 0.375000 -0.000000 -2.375000
v -2.500000 0.812500 -0.375000
v -2.500000 0.000000 0.375000
v -2.500000 0.875000 -0.312500
v -1.875000 0.875000 0.312500
v -1.875000 0.875000 -0.312500
v -2.500000 0.875000 0.312500
v -1.875000 0.812500 0.375000
v -2.375000 0.625000 0.375000
v -1.875000 0.812500 -0.375000
v -2.375000 0.625000 -0.375000
v -2.500000 -0.000000 -0.375000
v -2.375000 -0.000000 -0.375000
v -0.375000 0.812500 2.500000
v 0.375000 0.000000 2.500000
v 0.375000 0.812500 2.500000
v -0.312500 0.875000 2.500000
v 0.312500 0.875000 1.875000
v -0.312500 0.875000 1.875000
v 0.312500 0.875000 2.500000
v 0.375000 0.812500 1.875000
v 0.375000 0.625000 2.375000
v -0.375000 0.812500 1.875000
v -0.375000 0.625000 2.375000
v -0.375000 0.000000 2.500000
v -0.375000 0.000000 2.375000
v 1.237463 0.875000 -1.590964
v 1.502628 0.625000 -1.856129
v 1.237463 0.625000 -1.590964
v 1.591061 0.750000 -1.944473
v 1.590964 0.875000 -1.237463
v 1.944570 0.750000 -1.590964
v 1.546770 0.875000 -1.193269
v 1.193269 0.875000 -1.546770
v 1.856129 0.625000 -1.502628
v 1.590964 0.625000 -1.237463
v 1.944517 -0.000000 -1.591017
v 1.591017 -0.000000 -1.944517
v 1.193269 0.625000 -1.546770
v 1.546770 0.625000 -1.193269
v 1.856129 -0.000000 -1.502628
v 1.502628 -0.000000 -1.856129
v -1.590964 0.875000 -1.237463
v -1.856129 0.625000 -1.502628
v -1.590964 0.625000 -1.237463
v -1.944473 0.750000 -1.591061
v -1.237463 0.875000 -1.590964
v -1.590964 0.750000 -1.944570
v -1.193269 0.875000 -1.546770
v -1.546770 0.875000 -1.193269
v -1.502628 0.625000 -1.856129
v -1.237463 0.625000 -1.590964
v -1.591017 -0.000000 -1.944517
v -1.944517 -0.000000 -1.591017
v -1.546770 0.625000 -1.193269
v -1.193269 0.625000 -1.546770
v -1.502628 -0.000000 -1.856129
v -1.856129 -0.000000 -1.502628
v -1.237463 0.875000 1.590964
v -1.502628 0.625000 1.856129
v -1.237463 0.625000 1.590964
v -1.591061 0.750000 1.944473
v -1.590964 0.875000 1.237463
v -1.944570 0.750000 1.590964
v -1.546770 0.875000 1.193269
v -1.193269 0.875000 1.546769
v -1.856129 0.625000 1.502628
v -1.590964 0.625000 1.237463
v -1.944517 0.000000 1.591017
v -1.591017 0.000000 1.944517
v -1.193269 0.625000 1.546770
v -1.546770 0.625000 1.193269
v -1.856129 0.000000 1.502628
v -1.502628 0.000000 1.856129
v 1.590964 0.875000 1.237463
v 1.856129 0.625000 1.502628
v 1.590964 0.625000 1.237463
v 1.944473 0.750000 1.591061
v 1.237463 0.875000 1.590964
v 1.590964 0.750000 1.944570
v 1.193269 0.875000 1.546769
v 1.546770 0.875000 1.193269
v 1.502628 0.625000 1.856129
v 1.237463 0.625000 1.590964
v 1.591017 0.000000 1.944517
v 1.944517 0.000000 1.591017
v 1.546770 0.625000 1.193269
v 1.193269 0.625000 1.546770
v 1.502628 0.000000 1.856129
v 1.856129 0.000000 1.502628
v 1.875000 0.625000 -0.375000
v 1.875000 0.625000 0.375000
v 2.375000 -0.000000 -0.375000
v -0.375000 0.625000 -1.875000
v 0.375000 0.625000 -1.875000
v -0.375000 -0.000000 -2.375000
v -1.875000 0.625000 0.375000
v -1.875000 0.625000 -0.375000
v -2.375000 0.000000 0.375000
v 0.375000 0.625000 1.875000
v -0.375000 0.625000 1.875000
v 0.375000 0.000000 2.375000
vn -0.0000 -1.0000 -0.0000
vn 0.7071 -0.0000 0.7071
vn -0.0000 1.0000 -0.0000
vn 1.0000 -0.0000 -0.0000
vn 0.7071 -0.0000 -0.7071
vn -0.0000 -0.0000 -1.0000
vn -0.7071 -0.0000 -0.7071
vn -1.0000 -0.0000 -0.0000
vn -0.7071 -0.0000 0.7071
vn -0.0000 -0.0000 1.0000
vn 0.5556 -0.0000 0.8315
vn 0.8315 -0.0000 0.5556
vn 0.9808 -0.0000 0.1951
vn 0.9808 -0.0000 -0.1951
vn 0.8315 -0.0000 -0.5556
vn 0.5556 -0.0000 -0.8315
vn 0.1951 -0.0000 -0.9808
vn -0.1951 -0.0000 -0.9808
vn -0.5556 -0.0000 -0.8315
vn -0.8315 -0.0000 -0.5556
vn -0.9808 -0.0000 -0.1951
vn -0.9808 -0.0000 0.1951
vn -0.8315 -0.0000 0.5556
vn -0.5556 -0.0000 0.8315
vn -0.1951 -0.0000 0.9808
vn 0.1951 -0.0000 0.9808
vn -0.0000 0.7071 0.7071
vn -0.0000 0.7071 -0.7071
vn 0.7071 0.7071 -0.0000
vn -0.7071 0.7071 -0.0000
vn 0.1715 0.9701 -0.1715
vn -0.1715 0.9701 -0.1715
vn -0.1715 0.9701 0.1715
vn 0.1715 0.9701 0.1715
vn -0.7070 0.0003 -0.7072
vn 0.7069 -0.0004 0.7073
vn -0.7068 0.0001 -0.7074
vn 0.7068 -0.0001 0.7075
vn -0.7072 0.0003 0.7070
vn 0.7073 -0.0004 -0.7069
vn -0.7074 0.0001 0.7068
vn 0.7075 -0.0001 -0.7068
vn 0.7070 0.0003 0.7072
vn -0.7069 -0.0004 -0.7073
vn 0.7068 0.0001 0.7074
vn -0.7068 -0.0001 -0.7075
vn 0.7072 0.0003 -0.7070
vn -0.7073 -0.0004 0.7069
vn 0.7074 0.0001 -0.7068
vn -0.7075 -0.0001 0.7068
vt 0.555556 0.913047
vt 0.400973 1.000000
vt 0.291667 0.851562
vt 0.555556 0.664062
vt 0.333333 0.703125
vt 0.333333 0.664062
vt 0.555556 0.790078
vt 0.400973 0.703125
vt 0.182360 0.703125
vt 0.027778 0.790078
vt 0.027778 0.913047
vt 0.182360 1.000000
vt 0.298611 0.484375
vt 0.381944 0.500000
vt 0.381944 0.484375
vt 0.298611 0.484374
vt 0.340279 0.359375
vt 0.215278 0.484375
vt 0.298611 0.500000
vt 0.256945 0.359375
vt 0.340278 0.359375
vt 0.256944 0.359375
vt 0.340277 0.359375
vt 0.215278 0.484374
vt 0.256946 0.359375
vt 0.256943 0.359375
vt 0.118056 0.546875
vt 0.201389 0.597656
vt 0.201389 0.546875
vt 0.194444 0.503906
vt 0.125000 0.542969
vt 0.125000 0.503906
vt 0.118056 0.503906
vt 0.194444 0.542969
vt 0.201389 0.503906
vt 0.201389 0.542969
vt 0.222222 0.554688
vt 0.201389 0.585938
vt 0.118056 0.585938
vt 0.097222 0.554688
vt 0.291667 0.546875
vt 0.027778 0.546875
vt 0.118056 0.605469
vt 0.118056 0.597656
vt 0.395833 0.523438
vt 0.368056 0.546875
vt 0.368056 0.523438
vt 0.451389 0.554688
vt 0.395833 0.554688
vt 0.395833 0.519531
vt 0.451389 0.523438
vt 0.451389 0.519531
vt 0.479167 0.546875
vt 0.479167 0.523438
vt 0.395833 0.601562
vt 0.451389 0.601562
vt 0.368056 0.519531
vt 0.479167 0.519531
vt 0.451389 0.609375
vt 0.395833 0.609375
vt 0.298611 0.554688
vt 0.298611 0.546875
vt 0.548611 0.554688
vt 0.548611 0.546875
vt 0.555556 0.703125
vt 0.215278 0.500000
vt 0.118056 0.542969
vt 0.222222 0.585938
vt 0.097222 0.585938
vt 0.291667 0.554688
vt 0.027778 0.554688
vt 0.201389 0.605469
vt 0.381945 0.554688
vt 0.465278 0.554688
s 0
usemtl m_0a7d117c-6e48-9f2d-fbda-b995a178beae
f 82/95/25 83/96/25 84/97/25
f 82/98/26 85/99/26 83/100/26
f 85/96/27 86/95/27 87/97/27
f 88/101/25 82/95/25 84/97/25
f 88/98/28 86/99/28 82/100/28
f 86/95/27 89/101/27 87/97/27
f 90/102/25 88/101/25 84/97/25
f 90/98/29 89/99/29 88/100/29
f 89/101/27 91/102/27 87/97/27
f 92/103/25 90/102/25 84/97/25
f 92/98/30 91/99/30 90/100/30
f 91/102/27 93/103/27 87/97/27
f 94/104/25 92/103/25 84/97/25
f 94/98/31 93/99/31 92/100/31
f 93/103/27 95/104/27 87/97/27
f 96/105/25 94/104/25 84/97/25
f 96/98/32 95/99/32 94/100/32
f 95/104/27 97/105/27 87/97/27
f 98/106/25 96/105/25 84/97/25
f 98/98/33 97/99/33 96/100/33
f 97/105/27 99/106/27 87/97/27
f 83/96/25 98/106/25 84/97/25
f 83/98/34 99/99/34 98/100/34
f 99/106/27 85/96/27 87/97/27
f 100/107/35 101/108/35 102/109/35
f 101/109/27 103/110/27 104/111/27
f 105/112/36 103/113/36 100/107/36
f 103/107/27 106/112/27 104/114/27
f 107/107/37 106/108/37 105/109/37
f 106/109/27 108/107/27 104/115/27
f 109/112/38 108/113/38 107/107/38
f 108/107/27 110/112/27 104/114/27
f 111/107/39 110/108/39 109/109/39
f 110/109/27 112/107/27 104/115/27
f 113/112/40 112/113/40 111/107/40
f 112/107/27 114/112/27 104/116/27
f 115/107/41 114/108/41 113/109/41
f 114/109/27 116/107/27 104/117/27
f 117/112/42 116/113/42 115/107/42
f 116/107/27 118/112/27 104/114/27
f 119/107/43 118/108/43 117/109/43
f 118/109/27 120/107/27 104/115/27
f 121/112/44 120/113/44 119/107/44
f 120/107/27 122/112/27 104/116/27
f 123/107/45 122/108/45 121/109/45
f 122/109/27 124/107/27 104/115/27
f 125/112/46 124/113/46 123/107/46
f 124/107/27 126/118/27 104/119/27
f 127/107/47 126/108/47 125/109/47
f 126/109/27 128/107/27 104/111/27
f 129/112/48 128/113/48 127/107/48
f 128/107/27 130/112/27 104/119/27
f 131/107/49 130/108/49 129/109/49
f 130/109/27 132/107/27 104/117/27
f 102/112/50 132/113/50 131/107/50
f 132/107/27 101/112/27 104/114/27
f 123/107/25 133/117/25 125/109/25
f 121/107/25 133/120/25 123/112/25
f 119/107/25 133/111/25 121/109/25
f 117/112/25 133/114/25 119/107/25
f 115/107/25 133/115/25 117/109/25
f 113/112/25 133/119/25 115/107/25
f 111/107/25 133/117/25 113/109/25
f 109/112/25 133/116/25 111/110/25
f 107/107/25 133/117/25 109/109/25
f 105/112/25 133/119/25 107/107/25
f 100/107/25 133/117/25 105/109/25
f 102/112/25 133/116/25 100/110/25
f 131/107/25 133/117/25 102/109/25
f 129/112/25 133/119/25 131/107/25
f 127/107/25 133/117/25 129/109/25
f 125/112/25 133/116/25 127/107/25
f 134/121/28 135/122/28 136/123/28
f 137/124/27 138/125/27 139/126/27
f 139/125/51 134/127/51 137/126/51
f 137/125/28 136/123/28 140/128/28
f 140/129/52 141/128/52 138/130/52
f 142/131/30 141/132/30 136/123/30
f 143/133/34 144/134/34 134/121/34
f 135/135/30 142/131/30 136/123/30
f 144/134/34 145/136/34 134/121/34
f 146/137/25 135/122/25 145/138/25
f 147/121/30 148/122/30 149/123/30
f 150/124/27 151/125/27 152/126/27
f 152/125/53 147/127/53 150/126/53
f 150/125/30 149/123/30 153/128/30
f 153/129/54 154/128/54 151/130/54
f 155/131/32 154/132/32 149/123/32
f 156/133/28 157/134/28 147/121/28
f 148/135/32 155/131/32 149/123/32
f 157/134/28 158/136/28 147/121/28
f 159/137/25 148/122/25 158/138/25
f 160/121/32 161/122/32 81/123/32
f 162/124/27 163/125/27 164/126/27
f 164/125/52 160/127/52 162/126/52
f 162/125/32 81/123/32 165/128/32
f 165/129/51 166/128/51 163/130/51
f 167/131/34 166/132/34 81/123/34
f 168/133/30 169/134/30 160/121/30
f 161/135/34 167/131/34 81/123/34
f 169/134/30 170/136/30 160/121/30
f 171/137/25 161/122/25 170/138/25
f 172/121/34 173/122/34 174/123/34
f 175/124/27 176/125/27 177/126/27
f 177/125/54 172/127/54 175/126/54
f 175/125/34 174/123/34 178/128/34
f 178/129/53 179/128/53 176/130/53
f 180/131/28 179/132/28 174/123/28
f 181/133/32 182/134/32 172/121/32
f 173/135/28 180/131/28 174/123/28
f 182/134/32 183/136/32 172/121/32
f 184/137/25 173/122/25 183/138/25
f 185/139/31 186/140/31 187/141/31
f 188/142/55 189/139/55 190/143/55
f 191/144/27 185/145/27 192/146/27
f 193/147/26 189/145/26 194/148/26
f 188/142/29 195/149/29 196/150/29
f 192/139/31 187/151/31 197/141/31
f 198/152/26 189/145/26 191/146/26
f 199/149/25 196/153/25 195/154/25
f 186/140/31 196/155/31 200/156/31
f 195/157/26 193/147/26 199/158/26
f 201/139/33 202/140/33 203/141/33
f 204/142/56 205/139/56 206/143/56
f 207/144/27 201/145/27 208/146/27
f 209/147/29 205/145/29 210/148/29
f 204/142/31 211/149/31 212/150/31
f 208/139/33 203/151/33 213/141/33
f 214/152/29 205/145/29 207/146/29
f 215/149/25 212/153/25 211/154/25
f 202/140/33 212/155/33 216/156/33
f 211/157/29 209/147/29 215/158/29
f 217/139/26 218/140/26 219/141/26
f 220/142/57 221/139/57 222/143/57
f 223/144/27 217/145/27 224/146/27
f 225/147/31 221/145/31 226/148/31
f 220/142/33 227/149/33 228/150/33
f 224/139/26 219/151/26 229/141/26
f 230/152/31 221/145/31 223/146/31
f 231/149/25 228/153/25 227/154/25
f 218/140/26 228/155/26 232/156/26
f 227/157/31 225/147/31 231/158/31
f 233/139/29 234/140/29 235/141/29
f 236/142/58 237/139/58 238/143/58
f 239/144/27 233/145/27 240/146/27
f 241/147/33 237/145/33 242/148/33
f 236/142/26 243/149/26 244/150/26
f 240/139/29 235/151/29 245/141/29
f 246/152/33 237/145/33 239/146/33
f 247/149/25 244/153/25 243/154/25
f 234/140/29 244/155/29 248/156/29
f 243/157/33 241/147/33 247/158/33
f 82/98/26 86/159/26 85/99/26
f 88/98/28 89/159/28 86/99/28
f 90/98/29 91/159/29 89/99/29
f 92/98/30 93/159/30 91/99/30
f 94/98/31 95/159/31 93/99/31
f 96/98/32 97/159/32 95/99/32
f 98/98/33 99/159/33 97/99/33
f 83/98/34 85/159/34 99/99/34
f 100/107/35 103/113/35 101/108/35
f 105/112/36 106/160/36 103/113/36
f 107/107/37 108/113/37 106/108/37
f 109/112/38 110/160/38 108/113/38
f 111/107/39 112/113/39 110/108/39
f 113/112/40 114/160/40 112/113/40
f 115/107/41 116/113/41 114/108/41
f 117/112/42 118/160/42 116/113/42
f 119/107/43 120/113/43 118/108/43
f 121/112/44 122/160/44 120/113/44
f 123/107/45 124/113/45 122/108/45
f 125/112/46 126/160/46 124/113/46
f 127/107/47 128/113/47 126/108/47
f 129/112/48 130/160/48 128/113/48
f 131/107/49 132/113/49 130/108/49
f 102/112/50 101/160/50 132/113/50
f 134/121/28 145/138/28 135/122/28
f 137/124/27 140/128/27 138/125/27
f 139/125/51 143/161/51 134/127/51
f 137/125/28 134/121/28 136/123/28
f 140/129/52 136/124/52 141/128/52
f 142/131/30 249/162/30 141/132/30
f 143/133/34 250/163/34 144/134/34
f 135/135/30 251/164/30 142/131/30
f 144/134/34 146/165/34 145/136/34
f 146/137/25 251/166/25 135/122/25
f 147/121/30 158/138/30 148/122/30
f 150/124/27 153/128/27 151/125/27
f 152/125/53 156/161/53 147/127/53
f 150/125/30 147/121/30 149/123/30
f 153/129/54 149/124/54 154/128/54
f 155/131/32 252/162/32 154/132/32
f 156/133/28 253/163/28 157/134/28
f 148/135/32 254/164/32 155/131/32
f 157/134/28 159/165/28 158/136/28
f 159/137/25 254/166/25 148/122/25
f 160/121/32 170/138/32 161/122/32
f 162/124/27 165/128/27 163/125/27
f 164/125/52 168/161/52 160/127/52
f 162/125/32 160/121/32 81/123/32
f 165/129/51 81/124/51 166/128/51
f 167/131/34 255/162/34 166/132/34
f 168/133/30 256/163/30 169/134/30
f 161/135/34 257/164/34 167/131/34
f 169/134/30 171/165/30 170/136/30
f 171/137/25 257/166/25 161/122/25
f 172/121/34 183/138/34 173/122/34
f 175/124/27 178/128/27 176/125/27
f 177/125/54 181/161/54 172/127/54
f 175/125/34 172/121/34 174/123/34
f 178/129/53 174/124/53 179/128/53
f 180/131/28 258/162/28 179/132/28
f 181/133/32 259/163/32 182/134/32
f 173/135/28 260/164/28 180/131/28
f 182/134/32 184/165/32 183/136/32
f 184/137/25 260/166/25 173/122/25
f 185/139/59 188/167/59 186/140/59
f 188/142/55 185/145/55 189/139/55
f 191/144/27 189/139/27 185/145/27
f 193/147/60 190/168/60 189/145/60
f 188/142/29 190/143/29 195/149/29
f 192/139/31 185/144/31 187/151/31
f 198/152/26 194/148/26 189/145/26
f 199/149/25 200/150/25 196/153/25
f 186/140/61 188/167/61 196/155/61
f 195/157/62 190/168/62 193/147/62
f 201/139/63 204/167/63 202/140/63
f 204/142/56 201/145/56 205/139/56
f 207/144/27 205/139/27 201/145/27
f 209/147/64 206/168/64 205/145/64
f 204/142/31 206/143/31 211/149/31
f 208/139/33 201/144/33 203/151/33
f 214/152/29 210/148/29 205/145/29
f 215/149/25 216/150/25 212/153/25
f 202/140/65 204/167/65 212/155/65
f 211/157/66 206/168/66 209/147/66
f 217/139/67 220/167/67 218/140/67
f 220/142/57 217/145/57 221/139/57
f 223/144/27 221/139/27 217/145/27
f 225/147/68 222/168/68 221/145/68
f 220/142/33 222/143/33 227/149/33
f 224/139/26 217/144/26 219/151/26
f 230/152/31 226/148/31 221/145/31
f 231/149/25 232/150/25 228/153/25
f 218/140/69 220/167/69 228/155/69
f 227/157/70 222/168/70 225/147/70
f 233/139/71 236/167/71 234/140/71
f 236/142/58 233/145/58 237/139/58
f 239/144/27 237/139/27 233/145/27
f 241/147/72 238/168/72 237/145/72
f 236/142/26 238/143/26 243/149/26
f 240/139/29 233/144/29 235/151/29
f 246/152/33 242/148/33 237/145/33
f 247/149/25 248/150/25 244/153/25
f 234/140/73 236/167/73 244/155/73
f 243/157/74 238/168/74 241/147/74
o Mount
v 0.187500 1.892856 -1.359923
v -0.250000 1.937141 -1.283429
v 0.250000 1.937141 -1.283429
v 0.250000 1.125000 -1.500000
v -0.187500 1.892856 -1.359923
v -0.250000 1.125000 -1.500000
v -0.187500 1.126006 -1.564416
v 0.220971 2.470971 -1.312500
v 0.312500 2.250000 -1.312500
v 0.000000 2.250000 -1.312500
v 0.312500 2.250000 1.312500
v 0.220971 2.470971 1.312500
v 0.000000 2.250000 1.312500
v 0.000000 2.562500 -1.312500
v 0.000000 2.562500 1.312500
v -0.220971 2.470971 -1.312500
v -0.220971 2.470971 1.312500
v -0.312500 2.250000 -1.312500
v -0.312500 2.250000 1.312500
v -0.220971 2.029029 -1.312500
v -0.220971 2.029029 1.312500
v 0.000000 1.937500 -1.312500
v 0.000000 1.937500 1.312500
v 0.220971 2.029029 -1.312500
v 0.220971 2.029029 1.312500
v 1.414214 0.875000 1.414214
v 0.765367 1.125000 1.847759
v 0.765367 0.875000 1.847759
v 1.414214 1.125000 1.414214
v 0.000000 1.125000 -0.000000
v 1.847759 0.875000 0.765367
v 1.847759 1.125000 0.765367
v 2.000000 0.875000 -0.000000
v 2.000000 1.125000 -0.000000
v 1.847759 0.875000 -0.765367
v 1.847759 1.125000 -0.765367
v 1.414214 0.875000 -1.414214
v 1.414214 1.125000 -1.414214
v 0.765367 0.875000 -1.847759
v 0.765367 1.125000 -1.847759
v 0.000000 0.875000 -2.000000
v 0.000000 1.125000 -2.000000
v -0.765367 0.875000 -1.847759
v -0.765367 1.125000 -1.847759
v -1.414214 0.875000 -1.414214
v -1.414214 1.125000 -1.414214
v -1.847759 0.875000 -0.765367
v -1.847759 1.125000 -0.765367
v -2.000000 0.875000 -0.000000
v -2.000000 1.125000 -0.000000
v -1.847759 0.875000 0.765367
v -1.847759 1.125000 0.765367
v -1.414214 0.875000 1.414214
v -1.414214 1.125000 1.414214
v -0.765367 0.875000 1.847759
v -0.765367 1.125000 1.847759
v 0.000000 0.875000 2.000000
v 0.000000 1.125000 2.000000
v 0.500000 3.000000 1.000000
v 1.000000 1.125000 0.500000
v 0.500000 3.000000 0.500000
v -0.500000 3.000000 1.000000
v -1.000000 1.125000 0.500000
v -1.000000 1.125000 1.500000
v -0.500000 3.000000 0.500000
v 1.000000 1.125000 1.500000
v 0.500000 3.000000 -1.000000
v 1.000000 1.125000 -0.500000
v 1.000000 1.125000 -1.500000
v -0.500000 3.000000 -1.000000
v -1.000000 1.125000 -0.500000
v -0.500000 3.000000 -0.500000
v 0.500000 3.000000 -0.500000
v -1.000000 1.125000 -1.500000
v -0.187500 1.892856 1.359922
v 0.250000 1.937142 1.283429
v -0.250000 1.937142 1.283429
v -0.250000 1.125000 1.500000
v 0.187500 1.892856 1.359922
v 0.250000 1.125000 1.500000
v 0.187500 1.126007 1.564416
v 0.187500 1.126006 -1.564416
v -0.187500 1.126007 1.564416
vn -0.0000 0.8654 -0.5010
vn 0.7071 0.1822 -0.6832
vn -0.7071 0.1822 -0.6832
vn -0.0000 0.2577 -0.9662
vn -0.0000 -0.0000 -1.0000
vn 0.9239 0.3827 -0.0000
vn -0.0000 -0.0000 1.0000
vn 0.3827 0.9239 -0.0000
vn -0.3827 0.9239 -0.0000
vn -0.9239 0.3827 -0.0000
vn -0.9239 -0.3827 -0.0000
vn -0.3827 -0.9239 -0.0000
vn 0.3827 -0.9239 -0.0000
vn 0.9239 -0.3827 -0.0000
vn 0.5556 -0.0000 0.8315
vn -0.0000 1.0000 -0.0000
vn 0.8315 -0.0000 0.5556
vn 0.9808 -0.0000 0.1951
vn 0.9808 -0.0000 -0.1951
vn 0.8315 -0.0000 -0.5556
vn 0.5556 -0.0000 -0.8315
vn 0.1951 -0.0000 -0.9808
vn -0.1951 -0.0000 -0.9808
vn -0.5556 -0.0000 -0.8315
vn -0.8315 -0.0000 -0.5556
vn -0.9808 -0.0000 -0.1951
vn -0.9808 -0.0000 0.1951
vn -0.8315 -0.0000 0.5556
vn -0.5556 -0.0000 0.8315
vn -0.1951 -0.0000 0.9808
vn 0.1951 -0.0000 0.9808
vn 0.9662 0.2577 -0.0000
vn -0.9662 0.2577 -0.0000
vn -0.0000 0.2577 0.9662
vn -0.0000 0.8654 0.5010
vn -0.7071 0.1822 0.6832
vn 0.7071 0.1822 0.6832
vt 0.138889 0.675781
vt 0.187500 0.679688
vt 0.131944 0.679688
vt 0.131944 0.625997
vt 0.138889 0.675695
vt 0.180555 0.675695
vt 0.187500 0.625997
vt 0.180555 0.625000
vt 0.180555 0.675781
vt 0.989830 0.994279
vt 1.000000 0.980469
vt 0.965278 0.980469
vt 0.930556 0.984375
vt 0.638889 0.968750
vt 0.930556 0.968750
vt 0.965278 1.000000
vt 0.930556 1.000000
vt 0.638889 0.984375
vt 0.940726 0.994279
vt 0.930556 0.980469
vt 0.940726 0.966658
vt 0.965278 0.960938
vt 0.989830 0.966658
vt 0.465278 0.500000
vt 0.548611 0.484375
vt 0.548611 0.500000
vt 0.465278 0.484374
vt 0.465278 0.359375
vt 0.381944 0.500000
vt 0.465278 0.484375
vt 0.381944 0.484375
vt 0.381944 0.484374
vt 0.722222 0.910156
vt 0.777778 0.792969
vt 0.777778 0.910156
vt 0.611111 0.910156
vt 0.666667 0.792969
vt 0.555556 0.792969
vt 0.833333 0.941406
vt 0.944444 0.910156
vt 0.944444 0.941406
vt 0.833333 0.910156
vt 1.000000 0.792969
vt 0.138888 0.625000
vt 0.138889 0.625000
vt 0.638889 1.000000
vt 0.666667 0.910156
s 0
usemtl m_0a7d117c-6e48-9f2d-fbda-b995a178beae
f 261/169/75 262/170/75 263/171/75
f 264/172/76 261/173/76 263/171/76
f 265/174/77 266/175/77 262/170/77
f 261/169/78 267/176/78 265/177/78
f 268/178/79 269/179/79 270/180/79
f 268/181/80 271/182/80 269/183/80
f 271/179/81 272/178/81 273/180/81
f 274/184/79 268/178/79 270/180/79
f 274/185/82 272/186/82 268/181/82
f 272/178/81 275/184/81 273/180/81
f 276/187/79 274/184/79 270/180/79
f 276/181/83 275/182/83 274/183/83
f 275/184/81 277/187/81 273/180/81
f 278/188/79 276/187/79 270/180/79
f 278/185/84 277/186/84 276/181/84
f 277/187/81 279/188/81 273/180/81
f 280/189/79 278/188/79 270/180/79
f 280/181/85 279/182/85 278/183/85
f 279/188/81 281/189/81 273/180/81
f 282/190/79 280/189/79 270/180/79
f 282/185/86 281/186/86 280/181/86
f 281/189/81 283/190/81 273/180/81
f 284/191/79 282/190/79 270/180/79
f 284/181/87 283/182/87 282/183/87
f 283/190/81 285/191/81 273/180/81
f 269/179/79 284/191/79 270/180/79
f 269/185/88 285/186/88 284/181/88
f 285/191/81 271/179/81 273/180/81
f 286/192/89 287/193/89 288/194/89
f 287/193/90 289/195/90 290/196/90
f 291/197/91 289/198/91 286/192/91
f 289/198/90 292/199/90 290/196/90
f 293/192/92 292/193/92 291/194/92
f 292/193/90 294/198/90 290/196/90
f 295/197/93 294/198/93 293/192/93
f 294/198/90 296/199/90 290/196/90
f 297/192/94 296/193/94 295/194/94
f 296/193/90 298/198/90 290/196/90
f 299/197/95 298/198/95 297/192/95
f 298/198/90 300/199/90 290/196/90
f 301/192/96 300/193/96 299/194/96
f 300/193/90 302/198/90 290/196/90
f 303/197/97 302/198/97 301/192/97
f 302/198/90 304/199/90 290/196/90
f 305/192/98 304/193/98 303/194/98
f 304/193/90 306/198/90 290/196/90
f 307/197/99 306/198/99 305/192/99
f 306/198/90 308/199/90 290/196/90
f 309/192/100 308/193/100 307/194/100
f 308/193/90 310/198/90 290/196/90
f 311/197/101 310/198/101 309/192/101
f 310/198/90 312/200/90 290/196/90
f 313/192/102 312/193/102 311/194/102
f 312/193/90 314/198/90 290/196/90
f 315/197/103 314/198/103 313/192/103
f 314/198/90 316/199/90 290/196/90
f 317/192/104 316/193/104 315/194/104
f 316/193/90 318/198/90 290/196/90
f 288/197/105 318/198/105 317/192/105
f 318/198/90 287/199/90 290/196/90
f 319/201/106 320/202/106 321/203/106
f 322/204/107 323/205/107 324/206/107
f 319/207/90 325/208/90 322/209/90
f 319/210/108 324/211/108 326/202/108
f 321/208/79 323/202/79 325/210/79
f 327/204/106 328/205/106 329/206/106
f 330/201/107 331/202/107 332/203/107
f 327/207/90 332/208/90 333/210/90
f 330/208/78 329/202/78 334/211/78
f 333/208/81 331/202/81 328/211/81
f 335/169/109 336/170/109 337/171/109
f 338/172/110 335/173/110 337/171/110
f 339/174/111 340/175/111 336/170/111
f 335/169/108 341/176/108 339/177/108
f 261/169/75 265/177/75 262/170/75
f 264/172/76 342/212/76 261/173/76
f 265/174/77 267/176/77 266/175/77
f 261/169/78 342/213/78 267/176/78
f 268/181/80 272/186/80 271/182/80
f 274/185/82 275/214/82 272/186/82
f 276/181/83 277/186/83 275/182/83
f 278/185/84 279/214/84 277/186/84
f 280/181/85 281/186/85 279/182/85
f 282/185/86 283/214/86 281/186/86
f 284/181/87 285/186/87 283/182/87
f 269/185/88 271/214/88 285/186/88
f 286/192/89 289/198/89 287/193/89
f 291/197/91 292/199/91 289/198/91
f 293/192/92 294/198/92 292/193/92
f 295/197/93 296/199/93 294/198/93
f 297/192/94 298/198/94 296/193/94
f 299/197/95 300/199/95 298/198/95
f 301/192/96 302/198/96 300/193/96
f 303/197/97 304/199/97 302/198/97
f 305/192/98 306/198/98 304/193/98
f 307/197/99 308/199/99 306/198/99
f 309/192/100 310/198/100 308/193/100
f 311/197/101 312/199/101 310/198/101
f 313/192/102 314/198/102 312/193/102
f 315/197/103 316/199/103 314/198/103
f 317/192/104 318/198/104 316/193/104
f 288/197/105 287/199/105 318/198/105
f 319/201/106 326/205/106 320/202/106
f 322/204/107 325/215/107 323/205/107
f 319/207/90 321/210/90 325/208/90
f 319/210/108 322/208/108 324/211/108
f 321/208/79 320/211/79 323/202/79
f 327/204/106 333/215/106 328/205/106
f 330/201/107 334/205/107 331/202/107
f 327/207/90 330/209/90 332/208/90
f 330/208/78 327/210/78 329/202/78
f 333/208/81 332/210/81 331/202/81
f 335/169/109 339/177/109 336/170/109
f 338/172/110 343/212/110 335/173/110
f 339/174/111 341/176/111 340/175/111
f 335/169/108 343/213/108 341/176/108
