# Blender 4.2.0
# www.blender.org
mtllib conveyor_compressor.mtl
o body
v -0.375000 0.250000 0.500000
v -0.375000 0.250000 -0.500000
v -0.375000 0.000000 0.500000
v -0.375000 -0.000000 -0.500000
v -0.500000 0.250000 0.500000
v -0.500000 0.250000 -0.500000
v -0.500000 0.000000 0.500000
v -0.500000 -0.000000 -0.500000
v 0.375000 0.875000 -0.375000
v 0.375000 0.250000 -0.375000
v -0.375000 0.250000 -0.375000
v -0.375000 0.875000 -0.375000
v -0.500000 1.000000 -0.375000
v -0.500000 0.250000 -0.375000
v 0.500000 0.250000 -0.375000
v 0.500000 1.000000 -0.375000
v 0.500000 0.250000 0.375000
v 0.500000 1.000000 0.375000
v -0.500000 1.000000 0.375000
v -0.500000 0.250000 0.375000
v 0.375000 0.875000 0.375000
v 0.375000 0.250000 0.375000
v -0.375000 0.875000 0.375000
v -0.375000 0.250000 0.375000
v 0.250000 0.750000 0.187500
v 0.250000 0.250000 0.187500
v -0.250000 0.750000 0.187500
v -0.250000 0.250000 0.187500
v 0.250000 0.250000 -0.187500
v 0.250000 0.750000 -0.187500
v -0.250000 0.750000 -0.187500
v -0.250000 0.250000 -0.187500
v 0.125000 0.937500 -0.125000
v 0.125000 0.937500 0.125000
v -0.125000 0.937500 -0.125000
v -0.125000 0.937500 0.125000
v 0.250000 0.750000 -0.187500
v -0.250000 0.750000 -0.187500
v -0.187500 1.000000 0.187500
v 0.187500 1.000000 0.187500
v 0.187500 1.000000 -0.187500
v -0.187500 1.000000 -0.187500
v -0.187500 1.312500 0.187500
v 0.187500 1.312500 0.187500
v 0.187500 1.312500 -0.187500
v -0.187500 1.312500 -0.187500
v 0.500000 0.250000 -0.500000
v 0.375000 0.250000 -0.500000
v -0.375000 0.250000 -0.500000
v -0.500000 0.250000 -0.500000
v 0.375000 0.250000 0.500000
v 0.500000 0.250000 0.500000
v -0.500000 0.250000 0.500000
v -0.375000 0.250000 0.500000
v 0.500000 0.250000 0.500000
v 0.500000 0.250000 -0.500000
v 0.500000 0.000000 0.500000
v 0.500000 -0.000000 -0.500000
v 0.375000 0.250000 0.500000
v 0.375000 0.250000 -0.500000
v 0.375000 0.000000 0.500000
v 0.375000 -0.000000 -0.500000
vn -1.0000 -0.0000 -0.0000
vn -0.0000 -1.0000 -0.0000
vn -0.0000 -0.0000 1.0000
vn -0.0000 -0.0000 -1.0000
vn -0.0000 1.0000 -0.0000
vn 1.0000 -0.0000 -0.0000
vn -0.8321 -0.0000 0.5547
vn -0.0000 -0.8321 0.5547
vn 0.8321 -0.0000 0.5547
vn 0.8321 -0.5547 -0.0000
vn -0.8321 -0.5547 -0.0000
vn -0.0000 -0.3162 0.9487
vn -0.0000 -0.3162 -0.9487
vn -0.8321 -0.0000 -0.5547
vn -0.0000 -0.8321 -0.5547
vn 0.8321 -0.0000 -0.5547
vt 0.187500 0.625000
vt 0.062500 0.958333
vt 0.062500 0.625000
vt 0.000000 0.625000
vt 0.000000 0.958333
vt 0.125000 0.583333
vt 0.000000 0.583333
vt 0.125000 1.000000
vt 0.125000 0.958333
vt 0.187500 1.000000
vt 0.250000 0.708333
vt 0.187500 0.666667
vt 1.000000 0.875000
vt 0.812500 1.000000
vt 1.000000 1.000000
vt 0.562500 0.666667
vt 0.562500 0.708333
vt 0.562500 1.000000
vt 0.250000 0.958333
vt 0.625000 0.708333
vt 0.625000 0.958333
vt 0.875000 0.500000
vt 0.968750 0.333333
vt 0.968750 0.541667
vt 0.656250 0.562500
vt 0.968750 0.625000
vt 0.593750 0.625000
vt 0.593750 0.333333
vt 0.687500 0.500000
vt 0.593750 0.541667
vt 0.687500 0.333333
vt 0.875000 0.333333
vt 0.718750 0.562500
vt 0.843750 0.562500
vt 0.843750 0.770833
vt 0.718750 0.687500
vt 0.843750 0.687500
vt 0.906250 0.625000
vt 0.656250 0.625000
vt 0.906250 0.562500
vt 0.156250 0.395833
vt 0.500000 0.333333
vt 0.343750 0.395833
vt 0.500000 0.583333
vt 0.343750 0.520833
vt 0.156250 0.520833
vt 0.000000 0.333333
vt 0.625000 0.895833
vt 0.812500 0.895833
vt 0.187500 0.958333
vt 0.125000 0.625000
vt 0.187500 0.583333
vt 0.000000 1.000000
vt 0.812500 0.875000
vt 0.562500 0.958333
vt 0.718750 0.770833
vt 0.625000 1.000000
s 0
usemtl m_0dbfebf4-74bc-f458-b992-1acca70735bd
f 5/1/1 8/2/1 7/3/1
f 3/4/2 8/2/2 4/5/2
f 1/6/3 7/4/3 3/7/3
f 2/8/4 8/5/4 6/9/4
f 16/10/4 12/11/4 13/12/4
f 44/13/5 46/14/5 43/15/5
f 14/16/4 12/11/4 11/17/4
f 15/18/4 9/19/4 16/10/4
f 17/19/6 16/20/6 18/21/6
f 19/20/1 14/19/1 20/11/1
f 21/11/3 17/16/3 18/12/3
f 23/19/3 18/12/3 19/10/3
f 20/18/3 23/19/3 19/10/3
f 25/22/7 22/23/7 21/24/7
f 27/25/8 21/26/8 23/27/8
f 24/28/9 27/29/9 23/30/9
f 25/22/1 29/31/1 26/32/1
f 28/31/6 31/22/6 27/29/6
f 36/33/10 31/22/10 35/34/10
f 33/33/11 25/22/11 34/34/11
f 35/35/2 34/36/2 36/37/2
f 37/38/12 35/36/12 38/39/12
f 27/38/13 34/36/13 25/39/13
f 30/29/14 10/28/14 29/31/14
f 12/26/15 37/25/15 38/40/15
f 11/23/16 31/22/16 32/32/16
f 39/41/5 18/42/5 40/43/5
f 40/43/5 16/44/5 41/45/5
f 41/45/5 13/7/5 42/46/5
f 42/46/5 19/47/5 39/41/5
f 43/48/3 40/14/3 44/49/3
f 44/48/6 41/14/6 45/49/6
f 45/48/4 42/14/4 46/49/4
f 46/48/1 39/14/1 43/49/1
f 47/9/5 10/10/5 15/8/5
f 49/10/5 14/9/5 11/50/5
f 51/51/5 17/52/5 22/1/5
f 53/51/5 24/52/5 20/1/5
f 55/50/6 58/3/6 56/1/6
f 57/4/2 62/2/2 58/5/2
f 55/6/3 61/4/3 57/7/3
f 56/8/4 62/5/4 60/9/4
f 5/1/1 6/50/1 8/2/1
f 3/4/2 7/3/2 8/2/2
f 1/6/3 5/51/3 7/4/3
f 2/8/4 4/53/4 8/5/4
f 16/10/4 9/19/4 12/11/4
f 44/13/5 45/54/5 46/14/5
f 14/16/4 13/12/4 12/11/4
f 15/18/4 10/55/4 9/19/4
f 17/19/6 15/11/6 16/20/6
f 19/20/1 13/21/1 14/19/1
f 21/11/3 22/17/3 17/16/3
f 23/19/3 21/11/3 18/12/3
f 20/18/3 24/55/3 23/19/3
f 25/22/7 26/32/7 22/23/7
f 27/25/8 25/40/8 21/26/8
f 24/28/9 28/31/9 27/29/9
f 25/22/1 30/29/1 29/31/1
f 28/31/6 32/32/6 31/22/6
f 36/33/10 27/29/10 31/22/10
f 33/33/11 30/29/11 25/22/11
f 35/35/2 33/56/2 34/36/2
f 37/38/12 33/37/12 35/36/12
f 27/38/13 36/37/13 34/36/13
f 30/29/14 9/30/14 10/28/14
f 12/26/15 9/27/15 37/25/15
f 11/23/16 12/24/16 31/22/16
f 39/41/5 19/47/5 18/42/5
f 40/43/5 18/42/5 16/44/5
f 41/45/5 16/44/5 13/7/5
f 42/46/5 13/7/5 19/47/5
f 43/48/3 39/57/3 40/14/3
f 44/48/6 40/57/6 41/14/6
f 45/48/4 41/57/4 42/14/4
f 46/48/1 42/57/1 39/14/1
f 47/9/5 48/50/5 10/10/5
f 49/10/5 50/8/5 14/9/5
f 51/51/5 52/6/5 17/52/5
f 53/51/5 54/6/5 24/52/5
f 55/50/6 57/2/6 58/3/6
f 57/4/2 61/3/2 62/2/2
f 55/6/3 59/51/3 61/4/3
f 56/8/4 58/53/4 62/5/4
o conveyor
v 0.375000 0.250000 0.500000
v 0.375000 0.250000 -0.500000
v 0.375000 0.000000 0.500000
v 0.375000 -0.000000 -0.500000
v -0.375000 0.250000 0.500000
v -0.375000 0.250000 -0.500000
v -0.375000 0.000000 0.500000
v -0.375000 -0.000000 -0.500000
vn -0.0000 1.0000 -0.0000
vn -0.0000 -1.0000 -0.0000
vn -0.0000 -0.0000 1.0000
vn -0.0000 -0.0000 -1.0000
vt 0.875000 0.937500
vt 0.125000 1.000000
vt 0.125000 0.937500
vt 0.875000 1.000000
vt 0.125000 0.984375
vt 0.875000 0.984375
s 0
usemtl m_c07d7530-313d-bd30-2e7c-6e7a18d540f5
f 63/58/17 68/59/17 67/60/17
f 65/61/18 70/60/18 66/58/18
f 63/61/19 69/62/19 65/63/19
f 64/62/20 70/61/20 68/63/20
f 63/58/17 64/61/17 68/59/17
f 65/61/18 69/59/18 70/60/18
f 63/61/19 67/59/19 69/62/19
f 64/62/20 66/59/20 70/61/20
o press_head
v 0.125000 0.750000 0.125000
v 0.125000 0.750000 -0.125000
v -0.125000 0.750000 0.125000
v -0.125000 0.750000 -0.125000
v 0.125000 1.312500 0.125000
v 0.125000 1.312500 -0.125000
v -0.125000 1.312500 0.125000
v -0.125000 1.312500 -0.125000
v 0.218750 0.687500 0.218750
v 0.218750 0.687500 -0.218750
v 0.218750 0.625000 0.218750
v 0.218750 0.625000 -0.218750
v -0.218750 0.687500 0.218750
v -0.218750 0.687500 -0.218750
v -0.218750 0.625000 0.218750
v -0.218750 0.625000 -0.218750
v 0.125000 0.750000 0.125000
v 0.125000 0.750000 -0.125000
v -0.125000 0.750000 0.125000
v -0.125000 0.750000 -0.125000
vn -0.0000 -0.0000 1.0000
vn 1.0000 -0.0000 -0.0000
vn -0.0000 -0.0000 -1.0000
vn -1.0000 -0.0000 -0.0000
vn -0.0000 -1.0000 -0.0000
vn -0.0000 0.8321 0.5547
vn 0.5547 0.8321 -0.0000
vn -0.0000 0.8321 -0.5547
vn -0.5547 0.8321 -0.0000
vt 0.687500 0.083333
vt 0.406250 0.000000
vt 0.687500 0.000000
vt 0.062500 0.062500
vt 0.093750 0.208333
vt 0.062500 0.208333
vt 0.343750 0.062500
vt 0.312500 0.208333
vt 0.312500 0.062500
vt 0.093750 0.062500
vt 0.312500 0.041667
vt 0.093750 0.041667
vt 0.093750 0.229167
vt 0.312500 0.229167
vt 0.140625 0.005208
vt 0.312500 0.036458
vt 0.265625 0.005208
vt 0.007812 0.093750
vt 0.054688 0.208333
vt 0.007812 0.177083
vt 0.140625 0.265625
vt 0.312500 0.234375
vt 0.265625 0.265625
vt 0.398438 0.177083
vt 0.351562 0.062500
vt 0.398438 0.093750
vt 0.406250 0.083333
vt 0.343750 0.208333
vt 0.093750 0.036458
vt 0.054688 0.062500
vt 0.093750 0.234375
vt 0.351562 0.208333
s 0
usemtl m_0dbfebf4-74bc-f458-b992-1acca70735bd
f 77/64/21 71/65/21 75/66/21
f 75/64/22 72/65/22 76/66/22
f 76/64/23 74/65/23 78/66/23
f 78/64/24 73/65/24 77/66/24
f 79/67/22 82/68/22 80/69/22
f 83/70/24 86/71/24 85/72/24
f 81/71/25 86/73/25 82/72/25
f 79/73/21 85/74/21 81/75/21
f 80/76/23 86/71/23 84/77/23
f 89/78/26 79/79/26 87/80/26
f 87/81/27 80/82/27 88/83/27
f 88/84/28 84/85/28 90/86/28
f 90/87/29 83/88/29 89/89/29
f 77/64/21 73/90/21 71/65/21
f 75/64/22 71/90/22 72/65/22
f 76/64/23 72/90/23 74/65/23
f 78/64/24 74/90/24 73/65/24
f 79/67/22 81/73/22 82/68/22
f 83/70/24 84/91/24 86/71/24
f 81/71/25 85/68/25 86/73/25
f 79/73/21 83/72/21 85/74/21
f 80/76/23 82/68/23 86/71/23
f 89/78/26 83/92/26 79/79/26
f 87/81/27 79/93/27 80/82/27
f 88/84/28 80/94/28 84/85/28
f 90/87/29 84/95/29 83/88/29
