# Blender 5.2.2 LTS
# www.blender.org
mtllib growth_chamber.mtl
o Base
v 0.031250 1.986619 -0.535437
v -0.031250 1.986619 -0.535437
v 0.062500 2.187500 -0.687500
v -0.062500 2.187500 -0.687500
v 0.031250 2.017869 -0.481310
v -0.031250 2.017869 -0.481310
v 0.062500 2.195873 -0.547997
v -0.062500 2.195873 -0.547997
v -0.062500 2.133373 -0.656250
v 0.062500 2.133373 -0.656250
v 0.535437 1.986619 0.031250
v 0.535437 1.986619 -0.031250
v 0.687500 2.187500 0.062500
v 0.687500 2.187500 -0.062500
v 0.481310 2.017869 0.031250
v 0.481310 2.017869 -0.031250
v 0.547997 2.195873 0.062500
v 0.547997 2.195874 -0.062500
v 0.656250 2.133373 -0.062500
v 0.656250 2.133373 0.062500
v -0.535437 1.986619 -0.031250
v -0.535437 1.986619 0.031250
v -0.687500 2.187500 -0.062500
v -0.687500 2.187500 0.062500
v -0.481310 2.017869 -0.031250
v -0.481310 2.017869 0.031250
v -0.547997 2.195874 -0.062500
v -0.547997 2.195873 0.062500
v -0.656250 2.133373 0.062500
v -0.656250 2.133373 -0.062500
v -0.031250 1.986619 0.535437
v 0.031250 1.986619 0.535437
v -0.062500 2.187500 0.687500
v 0.062500 2.187500 0.687500
v -0.031250 2.017869 0.481310
v 0.031250 2.017869 0.481310
v -0.062500 2.195873 0.547996
v 0.062500 2.195873 0.547996
v 0.062500 2.133373 0.656250
v -0.062500 2.133373 0.656250
v 0.031250 1.013381 -0.535437
v -0.031250 1.013381 -0.535437
v 0.062500 0.812500 -0.687500
v -0.062500 0.812500 -0.687500
v 0.031250 0.982131 -0.481310
v -0.031250 0.982131 -0.481310
v 0.062500 0.804127 -0.547997
v -0.062500 0.804127 -0.547997
v -0.062500 0.866627 -0.656250
v 0.062500 0.866627 -0.656250
v 0.535437 1.013381 0.031250
v 0.535437 1.013381 -0.031250
v 0.687500 0.812500 0.062500
v 0.687500 0.812500 -0.062500
v 0.481310 0.982131 0.031250
v 0.481310 0.982131 -0.031250
v 0.547997 0.804127 0.062500
v 0.547997 0.804127 -0.062500
v 0.656250 0.866627 -0.062500
v 0.656250 0.866627 0.062500
v -0.535437 1.013381 -0.031250
v -0.535437 1.013381 0.031250
v -0.687500 0.812500 -0.062500
v -0.687500 0.812500 0.062500
v -0.481310 0.982131 -0.031250
v -0.481310 0.982131 0.031250
v -0.547997 0.804127 -0.062500
v -0.547997 0.804127 0.062500
v -0.656250 0.866627 0.062500
v -0.656250 0.866627 -0.062500
v -0.031250 1.013381 0.535437
v 0.031250 1.013381 0.535437
v -0.062500 0.812500 0.687500
v 0.062500 0.812500 0.687500
v -0.031250 0.982131 0.481310
v 0.031250 0.982131 0.481310
v -0.062500 0.804127 0.547997
v 0.062500 0.804127 0.547997
v 0.062500 0.866627 0.656250
v -0.062500 0.866627 0.656250
v 1.500000 2.500000 1.375000
v 1.500000 2.500000 -1.375000
v 1.500000 3.000000 1.375000
v 1.500000 3.000000 -1.375000
v -1.500000 2.500000 1.375000
v -1.500000 2.500000 -1.375000
v -1.500000 3.000000 1.375000
v -1.500000 3.000000 -1.375000
v 1.375000 3.000000 -1.500000
v 1.375000 2.500000 -1.500000
v -1.375000 2.500000 -1.500000
v -1.375000 3.000000 -1.500000
v -1.375000 2.500000 1.500000
v 1.375000 2.500000 1.500000
v 1.375000 3.000000 1.500000
v -1.375000 3.000000 1.500000
v 1.500000 0.500000 1.375000
v 1.500000 0.500000 -1.375000
v 1.500000 0.000000 1.375000
v 1.500000 -0.000000 -1.375000
v -1.500000 0.500000 1.375000
v -1.500000 0.500000 -1.375000
v -1.500000 0.000000 1.375000
v -1.500000 -0.000000 -1.375000
v 1.375000 -0.000000 -1.500000
v 1.375000 0.500000 -1.500000
v -1.375000 0.500000 -1.500000
v -1.375000 -0.000000 -1.500000
v -1.375000 0.500000 1.500000
v 1.375000 0.500000 1.500000
v 1.375000 0.000000 1.500000
v -1.375000 0.000000 1.500000
v 0.312500 2.500000 0.312500
v 0.312500 2.500000 -0.312500
v 0.312500 2.312500 0.312500
v 0.312500 2.312500 -0.312500
v -0.312500 2.500000 0.312500
v -0.312500 2.500000 -0.312500
v -0.312500 2.312500 0.312500
v -0.312500 2.312500 -0.312500
v -1.500000 2.312500 0.312500
v -1.500000 2.312500 -0.312500
v 1.500000 2.312500 0.312500
v 1.500000 2.312500 -0.312500
v 0.312500 2.312500 -1.500000
v -0.312500 2.312500 -1.500000
v 0.312500 2.312500 1.500000
v -0.312500 2.312500 1.500000
v 1.500000 2.187500 0.187500
v 1.500000 2.187500 -0.187500
v 0.187500 2.187500 -0.187500
v -0.187500 2.187500 1.500000
v 0.187500 2.187500 1.500000
v 0.187500 2.187500 -1.500000
v -0.187500 2.187500 -1.500000
v 0.187500 2.187500 -0.187500
v -0.187500 2.187500 -0.187500
v -1.500000 2.187500 -0.187500
v -1.500000 2.187500 0.187500
v -0.187500 2.187500 0.187500
v 0.187500 2.187500 0.187500
v -1.500000 2.500000 -0.312500
v -1.500000 2.500000 0.312500
v 0.312500 2.500000 -1.500000
v -0.312500 2.500000 -1.500000
v 1.500000 2.500000 0.312500
v 1.500000 2.500000 -0.312500
v -0.312500 2.500000 1.500000
v 0.312500 2.500000 1.500000
v 0.312500 0.500000 0.312500
v 0.312500 0.500000 -0.312500
v 0.312500 0.687500 0.312500
v 0.312500 0.687500 -0.312500
v -0.312500 0.500000 0.312500
v -0.312500 0.500000 -0.312500
v -0.312500 0.687500 0.312500
v -0.312500 0.687500 -0.312500
v -1.500000 0.687500 0.312500
v -1.500000 0.687500 -0.312500
v 1.500000 0.687500 0.312500
v 1.500000 0.687500 -0.312500
v 0.312500 0.687500 -1.500000
v -0.312500 0.687500 -1.500000
v 0.312500 0.687500 1.500000
v -0.312500 0.687500 1.500000
v 1.500000 0.812500 0.187500
v 1.500000 0.812500 -0.187500
v 0.187500 0.812500 -0.187500
v -0.187500 0.812500 1.500000
v 0.187500 0.812500 1.500000
v 0.187500 0.812500 -1.500000
v -0.187500 0.812500 -1.500000
v 0.187500 0.812500 -0.187500
v -0.187500 0.812500 -0.187500
v -1.500000 0.812500 -0.187500
v -1.500000 0.812500 0.187500
v -0.187500 0.812500 0.187500
v 0.187500 0.812500 0.187500
v -1.500000 0.500000 -0.312500
v -1.500000 0.500000 0.312500
v 0.312500 0.500000 -1.500000
v -0.312500 0.500000 -1.500000
v 1.500000 0.500000 0.312500
v 1.500000 0.500000 -0.312500
v -0.312500 0.500000 1.500000
v 0.312500 0.500000 1.500000
vn -0.0000 -0.6356 -0.7720
vn -0.0000 0.3508 0.9364
vn -0.0000 -0.8660 0.5000
vn 0.9864 -0.1424 0.0822
vn -0.9864 -0.1424 0.0822
vn -1.0000 -0.0000 -0.0000
vn -0.0000 -0.5000 -0.8660
vn 1.0000 -0.0000 -0.0000
vn 0.7720 -0.6356 -0.0000
vn -0.9364 0.3508 -0.0000
vn -0.5000 -0.8660 -0.0000
vn -0.0822 -0.1424 0.9864
vn -0.0822 -0.1424 -0.9864
vn -0.0000 -0.0000 -1.0000
vn 0.8660 -0.5000 -0.0000
vn -0.0000 -0.0000 1.0000
vn -0.7720 -0.6356 -0.0000
vn 0.9364 0.3508 -0.0000
vn 0.5000 -0.8660 -0.0000
vn 0.0822 -0.1424 -0.9864
vn 0.0822 -0.1424 0.9864
vn -0.8660 -0.5000 -0.0000
vn -0.0000 -0.6356 0.7720
vn -0.0000 0.3508 -0.9364
vn -0.0000 -0.8660 -0.5000
vn -0.9864 -0.1424 -0.0822
vn 0.9864 -0.1424 -0.0822
vn -0.0000 -0.5000 0.8660
vn -0.0000 0.6356 -0.7720
vn -0.0000 -0.3508 0.9364
vn -0.0000 0.8660 0.5000
vn 0.9864 0.1424 0.0822
vn -0.9864 0.1424 0.0822
vn -0.0000 0.5000 -0.8660
vn 0.7720 0.6356 -0.0000
vn -0.9364 -0.3508 -0.0000
vn -0.5000 0.8660 -0.0000
vn -0.0822 0.1424 0.9864
vn -0.0822 0.1424 -0.9864
vn 0.8660 0.5000 -0.0000
vn -0.7720 0.6356 -0.0000
vn 0.9364 -0.3508 -0.0000
vn 0.5000 0.8660 -0.0000
vn 0.0822 0.1424 -0.9864
vn 0.0822 0.1424 0.9864
vn -0.8660 0.5000 -0.0000
vn -0.0000 0.6356 0.7720
vn -0.0000 -0.3508 -0.9364
vn -0.0000 0.8660 -0.5000
vn -0.9864 0.1424 -0.0822
vn 0.9864 0.1424 -0.0822
vn -0.0000 0.5000 0.8660
vn -0.0000 -1.0000 -0.0000
vn -0.0000 1.0000 -0.0000
vn 0.7071 -0.0000 -0.7071
vn -0.7071 -0.0000 -0.7071
vn 0.7071 -0.0000 0.7071
vn -0.7071 -0.0000 0.7071
vn -0.0000 -0.7071 0.7071
vn -0.0000 -0.7071 -0.7071
vn -0.7071 -0.7071 -0.0000
vn 0.7071 -0.7071 -0.0000
vn -0.0000 0.7071 0.7071
vn -0.0000 0.7071 -0.7071
vn -0.7071 0.7071 -0.0000
vn 0.7071 0.7071 -0.0000
vt 0.320312 0.819989
vt 0.326172 0.843750
vt 0.328125 0.819989
vt 0.335938 0.819989
vt 0.341797 0.843750
vt 0.343750 0.819989
vt 0.339844 0.812500
vt 0.335938 0.820312
vt 0.339844 0.820312
vt 0.312500 0.819989
vt 0.318359 0.843750
vt 0.330078 0.843750
vt 0.333984 0.843750
vt 0.328125 0.820312
vt 0.335938 0.812500
vt 0.328125 0.812500
vt 0.320312 0.812500
vt 0.320312 0.820312
vt 0.312500 0.812500
vt 0.320312 0.851239
vt 0.326172 0.875000
vt 0.328125 0.851239
vt 0.343750 0.851239
vt 0.337891 0.875000
vt 0.341797 0.875000
vt 0.339844 0.843750
vt 0.335938 0.851562
vt 0.339844 0.851562
vt 0.312500 0.851239
vt 0.318359 0.875000
vt 0.333984 0.875000
vt 0.335938 0.851239
vt 0.328125 0.851562
vt 0.335938 0.843750
vt 0.328125 0.843750
vt 0.320312 0.843750
vt 0.320312 0.851562
vt 0.312500 0.843750
vt 0.320312 0.788739
vt 0.326172 0.812500
vt 0.328125 0.788739
vt 0.335938 0.788739
vt 0.341797 0.812500
vt 0.343750 0.788739
vt 0.339844 0.781250
vt 0.335938 0.789062
vt 0.339844 0.789062
vt 0.314453 0.812500
vt 0.318359 0.812500
vt 0.330078 0.812500
vt 0.333984 0.812500
vt 0.328125 0.789062
vt 0.335938 0.781250
vt 0.328125 0.781250
vt 0.320312 0.781250
vt 0.320312 0.789062
vt 0.312500 0.781250
vt 0.320312 0.757489
vt 0.326172 0.781250
vt 0.328125 0.757489
vt 0.335938 0.757489
vt 0.341797 0.781250
vt 0.343750 0.757489
vt 0.339844 0.750000
vt 0.335938 0.757812
vt 0.339844 0.757812
vt 0.312500 0.757489
vt 0.318359 0.781250
vt 0.330078 0.781250
vt 0.333984 0.781250
vt 0.328125 0.757812
vt 0.335938 0.750000
vt 0.328125 0.750000
vt 0.320312 0.750000
vt 0.320312 0.757812
vt 0.312500 0.750000
vt 0.320312 0.944989
vt 0.326172 0.968750
vt 0.322266 0.968750
vt 0.335938 0.944989
vt 0.341797 0.968750
vt 0.337891 0.968750
vt 0.339844 0.937500
vt 0.335938 0.945312
vt 0.335938 0.937500
vt 0.312500 0.944989
vt 0.318359 0.968750
vt 0.314453 0.968750
vt 0.330078 0.968750
vt 0.333984 0.968750
vt 0.328125 0.945312
vt 0.328125 0.937500
vt 0.320312 0.937500
vt 0.320312 0.945312
vt 0.312500 0.937500
vt 0.320312 0.976239
vt 0.326172 1.000000
vt 0.322266 1.000000
vt 0.335938 0.976239
vt 0.341797 1.000000
vt 0.337891 1.000000
vt 0.339844 0.968750
vt 0.335938 0.976562
vt 0.335938 0.968750
vt 0.312500 0.976239
vt 0.318359 1.000000
vt 0.314453 1.000000
vt 0.330078 1.000000
vt 0.333984 1.000000
vt 0.328125 0.976562
vt 0.328125 0.968750
vt 0.320312 0.968750
vt 0.320312 0.976562
vt 0.312500 0.968750
vt 0.320312 0.913739
vt 0.326172 0.937500
vt 0.322266 0.937500
vt 0.335938 0.913739
vt 0.341797 0.937500
vt 0.337891 0.937500
vt 0.339844 0.906250
vt 0.335938 0.914062
vt 0.335938 0.906250
vt 0.312500 0.913739
vt 0.318359 0.937500
vt 0.314453 0.937500
vt 0.330078 0.937500
vt 0.333984 0.937500
vt 0.328125 0.914062
vt 0.328125 0.906250
vt 0.320312 0.906250
vt 0.320312 0.914062
vt 0.312500 0.906250
vt 0.320312 0.882489
vt 0.326172 0.906250
vt 0.322266 0.906250
vt 0.335938 0.882489
vt 0.341797 0.906250
vt 0.337891 0.906250
vt 0.339844 0.875000
vt 0.335938 0.882812
vt 0.335938 0.875000
vt 0.312500 0.882489
vt 0.318359 0.906250
vt 0.314453 0.906250
vt 0.330078 0.906250
vt 0.333984 0.906250
vt 0.328125 0.882812
vt 0.328125 0.875000
vt 0.320312 0.875000
vt 0.320312 0.882812
vt 0.312500 0.875000
vt 0.750000 0.781250
vt 0.718750 0.437500
vt 0.718750 0.781250
vt 0.500000 0.781250
vt 0.531250 0.437500
vt 0.500000 0.437500
vt 0.531250 0.000000
vt 0.718750 0.343750
vt 0.531250 0.343750
vt 0.531250 0.781250
vt 0.710938 0.859375
vt 0.539062 0.796875
vt 0.539062 0.859375
vt 0.710938 0.359375
vt 0.539062 0.421875
vt 0.710938 0.421875
vt 0.722656 0.359375
vt 0.539062 0.359375
vt 0.527344 0.421875
vt 0.531250 0.875000
vt 0.722656 0.796875
vt 0.710938 0.796875
vt 0.527344 0.859375
vt 1.000000 0.781250
vt 0.968750 0.437500
vt 1.000000 0.437500
vt 0.781250 0.437500
vt 0.781250 0.781250
vt 0.968750 0.781250
vt 0.960938 0.859375
vt 0.789062 0.796875
vt 0.960938 0.796875
vt 0.960938 0.359375
vt 0.789062 0.421875
vt 0.789062 0.359375
vt 0.960938 0.421875
vt 0.972656 0.359375
vt 0.972656 0.421875
vt 0.968750 0.343750
vt 0.781250 0.343750
vt 0.777344 0.421875
vt 0.777344 0.359375
vt 0.781250 0.875000
vt 0.968750 0.875000
vt 0.972656 0.796875
vt 0.972656 0.859375
vt 0.777344 0.859375
vt 0.777344 0.796875
vt 0.781250 0.000000
vt 0.968750 0.000000
vt 0.468750 0.273438
vt 0.394531 0.296875
vt 0.468750 0.296875
vt 0.468750 0.171875
vt 0.394531 0.195312
vt 0.468750 0.195312
vt 0.449219 0.210938
vt 0.367188 0.257812
vt 0.449219 0.257812
vt 0.234375 0.296875
vt 0.308594 0.273438
vt 0.234375 0.273438
vt 0.253906 0.257812
vt 0.335938 0.210938
vt 0.253906 0.210938
vt 0.234375 0.195312
vt 0.308594 0.171875
vt 0.234375 0.171875
vt 0.320312 0.000000
vt 0.332031 0.148438
vt 0.332031 0.000000
vt 0.339844 0.039062
vt 0.363281 0.203125
vt 0.363281 0.039062
vt 0.371094 0.000000
vt 0.382812 0.148438
vt 0.382812 0.000000
vt 0.332031 0.468750
vt 0.320312 0.320312
vt 0.320312 0.468750
vt 0.382812 0.468750
vt 0.371094 0.320312
vt 0.371094 0.468750
vt 0.363281 0.429688
vt 0.339844 0.265625
vt 0.339844 0.429688
vt 0.328125 0.273438
vt 0.253906 0.273438
vt 0.246094 0.195312
vt 0.246094 0.273438
vt 0.328125 0.195312
vt 0.253906 0.195312
vt 0.371094 0.281250
vt 0.371094 0.429688
vt 0.332031 0.445312
vt 0.371094 0.445312
vt 0.332031 0.281250
vt 0.332031 0.429688
vt 0.332031 0.187500
vt 0.332031 0.039062
vt 0.371094 0.023438
vt 0.332031 0.023438
vt 0.371094 0.187500
vt 0.371094 0.039062
vt 0.375000 0.195312
vt 0.449219 0.195312
vt 0.457031 0.273438
vt 0.457031 0.195312
vt 0.375000 0.273438
vt 0.449219 0.273438
vt 0.339844 0.210938
vt 0.363281 0.257812
vt 0.363281 0.210938
vt 0.160156 0.296875
vt 0.160156 0.273438
vt 0.160156 0.195312
vt 0.160156 0.171875
vt 0.214844 0.210938
vt 0.132812 0.257812
vt 0.132812 0.210938
vt 0.000000 0.296875
vt 0.074219 0.273438
vt 0.074219 0.296875
vt 0.019531 0.257812
vt 0.101562 0.210938
vt 0.101562 0.257812
vt 0.000000 0.195312
vt 0.074219 0.171875
vt 0.074219 0.195312
vt 0.085938 0.000000
vt 0.097656 0.148438
vt 0.085938 0.148438
vt 0.105469 0.039062
vt 0.128906 0.203125
vt 0.105469 0.203125
vt 0.136719 0.000000
vt 0.148438 0.148438
vt 0.136719 0.148438
vt 0.097656 0.468750
vt 0.085938 0.320312
vt 0.097656 0.320312
vt 0.148438 0.468750
vt 0.136719 0.320312
vt 0.148438 0.320312
vt 0.128906 0.429688
vt 0.105469 0.265625
vt 0.128906 0.265625
vt 0.093750 0.273438
vt 0.019531 0.273438
vt 0.011719 0.195312
vt 0.019531 0.210938
vt 0.093750 0.195312
vt 0.136719 0.281250
vt 0.136719 0.429688
vt 0.097656 0.445312
vt 0.105469 0.429688
vt 0.097656 0.281250
vt 0.097656 0.187500
vt 0.097656 0.039062
vt 0.136719 0.023438
vt 0.128906 0.039062
vt 0.136719 0.187500
vt 0.140625 0.195312
vt 0.214844 0.195312
vt 0.222656 0.273438
vt 0.214844 0.257812
vt 0.140625 0.273438
vt 0.105469 0.210938
vt 0.128906 0.257812
vt 0.105469 0.257812
vt 0.222656 0.195312
vt 0.097656 0.000000
vt 0.097656 0.023438
vt 0.000000 0.273438
vt 0.011719 0.273438
vt 0.136719 0.468750
vt 0.136719 0.445312
vt 0.322266 0.843750
vt 0.337891 0.843750
vt 0.314453 0.843750
vt 0.322266 0.875000
vt 0.314453 0.875000
vt 0.330078 0.875000
vt 0.322266 0.812500
vt 0.337891 0.812500
vt 0.312500 0.788739
vt 0.322266 0.781250
vt 0.337891 0.781250
vt 0.314453 0.781250
vt 0.328125 0.944989
vt 0.343750 0.944989
vt 0.339844 0.945312
vt 0.328125 0.976239
vt 0.343750 0.976239
vt 0.339844 0.976562
vt 0.328125 0.913739
vt 0.343750 0.913739
vt 0.339844 0.914062
vt 0.328125 0.882489
vt 0.343750 0.882489
vt 0.339844 0.882812
vt 0.750000 0.437500
vt 0.718750 0.000000
vt 0.722656 0.421875
vt 0.527344 0.359375
vt 0.718750 0.875000
vt 0.722656 0.859375
vt 0.527344 0.796875
vt 0.789062 0.859375
vt 0.394531 0.273438
vt 0.394531 0.171875
vt 0.367188 0.210938
vt 0.308594 0.296875
vt 0.335938 0.257812
vt 0.308594 0.195312
vt 0.320312 0.148438
vt 0.339844 0.203125
vt 0.371094 0.148438
vt 0.332031 0.320312
vt 0.382812 0.320312
vt 0.363281 0.265625
vt 0.339844 0.257812
vt 0.000000 0.171875
vt 0.148438 0.000000
vt 0.085938 0.468750
vt 0.019531 0.195312
vt 0.097656 0.429688
vt 0.136719 0.039062
vt 0.214844 0.273438
vt 0.128906 0.210938
s 1
usemtl m_1c5250b1-c0f0-0538-1d30-79f51cb1a72f.003
f 10/1/1 2/2/1 9/3/1
f 8/4/2 5/5/2 7/6/2
f 1/7/3 6/8/3 2/9/3
f 7/10/4 1/11/4 10/1/4
f 8/4/5 2/12/5 6/13/5
f 9/14/6 8/15/6 4/16/6
f 9/14/7 3/17/7 10/18/7
f 10/18/8 3/17/8 7/19/8
f 20/20/9 12/21/9 19/22/9
f 17/23/10 16/24/10 15/25/10
f 11/26/11 16/27/11 12/28/11
f 17/29/12 11/30/12 20/20/12
f 19/22/13 16/31/13 18/32/13
f 19/33/14 18/34/14 14/35/14
f 19/33/15 13/36/15 20/37/15
f 20/37/16 13/36/16 17/38/16
f 30/39/17 22/40/17 29/41/17
f 28/42/18 25/43/18 27/44/18
f 21/45/19 26/46/19 22/47/19
f 30/39/20 25/48/20 21/49/20
f 28/42/21 22/50/21 26/51/21
f 29/52/16 28/53/16 24/54/16
f 29/52/22 23/55/22 30/56/22
f 30/56/14 23/55/14 27/57/14
f 40/58/23 32/59/23 39/60/23
f 38/61/24 35/62/24 37/63/24
f 31/64/25 36/65/25 32/66/25
f 37/67/26 31/68/26 40/58/26
f 38/61/27 32/69/27 36/70/27
f 39/71/8 38/72/8 34/73/8
f 39/71/28 33/74/28 40/75/28
f 40/75/6 33/74/6 37/76/6
f 50/77/29 42/78/29 41/79/29
f 48/80/30 45/81/30 46/82/30
f 41/83/31 46/84/31 45/85/31
f 47/86/32 41/87/32 45/88/32
f 42/89/33 48/80/33 46/90/33
f 48/85/6 49/91/6 44/92/6
f 49/91/34 43/93/34 44/92/34
f 43/93/8 50/94/8 47/95/8
f 60/96/35 52/97/35 51/98/35
f 58/99/36 55/100/36 56/101/36
f 51/102/37 56/103/37 55/104/37
f 57/105/38 51/106/38 55/107/38
f 52/108/39 58/99/39 56/109/39
f 58/104/14 59/110/14 54/111/14
f 59/110/40 53/112/40 54/111/40
f 53/112/16 60/113/16 57/114/16
f 70/115/41 62/116/41 61/117/41
f 68/118/42 65/119/42 66/120/42
f 61/121/43 66/122/43 65/123/43
f 67/124/44 61/125/44 65/126/44
f 62/127/45 68/118/45 66/128/45
f 68/123/16 69/129/16 64/130/16
f 69/129/46 63/131/46 64/130/46
f 63/131/14 70/132/14 67/133/14
f 80/134/47 72/135/47 71/136/47
f 78/137/48 75/138/48 76/139/48
f 71/140/49 76/141/49 75/142/49
f 77/143/50 71/144/50 75/145/50
f 72/146/51 78/137/51 76/147/51
f 78/142/8 79/148/8 74/149/8
f 79/148/52 73/150/52 74/149/52
f 73/150/6 80/151/6 77/152/6
f 81/153/8 84/154/8 83/155/8
f 85/156/6 88/157/6 86/158/6
f 81/159/53 86/160/53 82/161/53
f 83/155/54 88/157/54 87/162/54
f 94/163/16 96/164/16 93/165/16
f 90/166/14 92/167/14 89/168/14
f 89/168/55 82/169/55 90/166/55
f 90/170/53 86/160/53 91/166/53
f 91/170/56 88/171/56 92/167/56
f 92/167/54 84/154/54 89/168/54
f 93/163/53 81/172/53 94/165/53
f 94/163/57 83/173/57 95/174/57
f 95/174/54 87/162/54 96/164/54
f 96/164/58 85/175/58 93/165/58
f 97/176/8 100/177/8 98/178/8
f 101/153/6 104/179/6 103/180/6
f 99/181/53 104/179/53 100/177/53
f 110/182/16 112/183/16 111/184/16
f 106/185/14 108/186/14 107/187/14
f 105/188/55 98/189/55 100/190/55
f 106/187/54 102/191/54 98/192/54
f 107/187/56 104/193/56 102/194/56
f 108/186/53 100/177/53 104/179/53
f 109/182/54 97/195/54 101/196/54
f 110/182/57 99/197/57 97/198/57
f 111/184/53 103/180/53 99/181/53
f 112/183/58 101/199/58 103/200/58
f 97/201/54 102/191/54 101/202/54
f 121/203/16 117/204/16 143/205/16
f 142/206/14 120/207/14 122/208/14
f 138/209/53 140/210/53 139/211/53
f 146/212/16 115/213/16 123/214/16
f 129/215/53 131/216/53 130/217/53
f 124/218/14 114/219/14 147/220/14
f 144/221/8 116/222/8 125/223/8
f 134/224/53 137/225/53 135/226/53
f 126/227/6 118/228/6 145/229/6
f 127/230/8 113/231/8 149/232/8
f 148/233/6 119/234/6 128/235/6
f 132/236/53 141/237/53 133/238/53
f 115/239/59 129/215/59 123/240/59
f 129/215/8 124/241/8 123/242/8
f 130/217/60 116/243/60 124/244/60
f 119/245/61 132/236/61 128/246/61
f 132/236/16 127/247/16 128/248/16
f 133/238/62 115/249/62 127/250/62
f 116/251/62 134/224/62 125/252/62
f 134/224/14 126/253/14 125/254/14
f 135/226/61 120/255/61 126/256/61
f 120/257/60 138/209/60 122/258/60
f 138/209/6 121/259/6 122/260/6
f 139/211/59 119/261/59 121/262/59
f 140/263/53 136/264/53 141/265/53
f 142/208/6 121/259/6 143/203/6
f 144/223/14 126/253/14 145/227/14
f 146/214/8 124/241/8 147/218/8
f 148/235/16 127/247/16 149/230/16
f 158/214/16 154/266/16 156/267/16
f 179/220/14 157/268/14 155/269/14
f 175/270/54 177/271/54 174/272/54
f 183/273/16 152/274/16 150/275/16
f 166/276/54 168/277/54 178/278/54
f 161/279/14 151/280/14 153/281/14
f 181/282/8 153/283/8 151/284/8
f 171/285/54 174/286/54 173/287/54
f 163/288/6 155/289/6 157/290/6
f 164/291/8 150/292/8 152/293/8
f 185/294/6 156/295/6 154/296/6
f 169/297/54 178/298/54 177/299/54
f 166/276/63 152/300/63 160/301/63
f 166/276/8 161/302/8 167/303/8
f 167/303/64 153/304/64 168/277/64
f 169/297/65 156/305/65 165/306/65
f 169/297/16 164/307/16 170/308/16
f 170/308/66 152/309/66 178/298/66
f 171/285/66 153/310/66 162/311/66
f 171/285/14 163/312/14 172/313/14
f 172/313/65 157/314/65 174/286/65
f 175/270/64 157/315/64 159/316/64
f 175/270/6 158/317/6 176/318/6
f 176/318/63 156/319/63 177/271/63
f 177/320/54 173/321/54 174/322/54
f 179/218/6 158/317/6 159/323/6
f 181/324/14 163/312/14 162/325/14
f 183/326/8 161/302/8 160/327/8
f 185/328/16 164/307/16 165/329/16
f 10/1/1 1/330/1 2/2/1
f 8/4/2 6/331/2 5/5/2
f 1/7/3 5/15/3 6/8/3
f 7/10/4 5/332/4 1/11/4
f 8/4/5 9/3/5 2/12/5
f 9/14/7 4/16/7 3/17/7
f 20/20/9 11/333/9 12/21/9
f 17/23/10 18/32/10 16/24/10
f 11/26/11 15/34/11 16/27/11
f 17/29/12 15/334/12 11/30/12
f 19/22/13 12/335/13 16/31/13
f 19/33/15 14/35/15 13/36/15
f 30/39/17 21/336/17 22/40/17
f 28/42/18 26/337/18 25/43/18
f 21/45/19 25/53/19 26/46/19
f 30/39/20 27/338/20 25/48/20
f 28/42/21 29/41/21 22/50/21
f 29/52/22 24/54/22 23/55/22
f 40/58/23 31/339/23 32/59/23
f 38/61/24 36/340/24 35/62/24
f 31/64/25 35/72/25 36/65/25
f 37/67/26 35/341/26 31/68/26
f 38/61/27 39/60/27 32/69/27
f 39/71/28 34/73/28 33/74/28
f 50/77/29 49/342/29 42/78/29
f 48/80/30 47/343/30 45/81/30
f 41/83/31 42/344/31 46/84/31
f 47/86/32 50/77/32 41/87/32
f 42/89/33 49/342/33 48/80/33
f 49/91/34 50/94/34 43/93/34
f 60/96/35 59/345/35 52/97/35
f 58/99/36 57/346/36 55/100/36
f 51/102/37 52/347/37 56/103/37
f 57/105/38 60/96/38 51/106/38
f 52/108/39 59/345/39 58/99/39
f 59/110/40 60/113/40 53/112/40
f 70/115/41 69/348/41 62/116/41
f 68/118/42 67/349/42 65/119/42
f 61/121/43 62/350/43 66/122/43
f 67/124/44 70/115/44 61/125/44
f 62/127/45 69/348/45 68/118/45
f 69/129/46 70/132/46 63/131/46
f 80/134/47 79/351/47 72/135/47
f 78/137/48 77/352/48 75/138/48
f 71/140/49 72/353/49 76/141/49
f 77/143/50 80/134/50 71/144/50
f 72/146/51 79/351/51 78/137/51
f 79/148/52 80/151/52 73/150/52
f 81/153/8 82/354/8 84/154/8
f 85/156/6 87/162/6 88/157/6
f 81/159/53 85/355/53 86/160/53
f 83/155/54 84/154/54 88/157/54
f 94/163/16 95/174/16 96/164/16
f 90/166/14 91/170/14 92/167/14
f 89/168/55 84/356/55 82/169/55
f 90/170/53 82/161/53 86/160/53
f 91/170/56 86/357/56 88/171/56
f 92/167/54 88/157/54 84/154/54
f 93/163/53 85/358/53 81/172/53
f 94/163/57 81/359/57 83/173/57
f 95/174/54 83/155/54 87/162/54
f 96/164/58 87/360/58 85/175/58
f 97/176/8 99/181/8 100/177/8
f 101/153/6 102/354/6 104/179/6
f 99/181/53 103/180/53 104/179/53
f 110/182/16 109/361/16 112/183/16
f 106/185/14 105/188/14 108/186/14
f 105/188/55 106/185/55 98/189/55
f 106/187/54 107/185/54 102/191/54
f 107/187/56 108/186/56 104/193/56
f 108/186/53 105/188/53 100/177/53
f 109/182/54 110/361/54 97/195/54
f 110/182/57 111/184/57 99/197/57
f 111/184/53 112/183/53 103/180/53
f 112/183/58 109/361/58 101/199/58
f 97/201/54 98/192/54 102/191/54
f 121/203/16 119/362/16 117/204/16
f 142/206/14 118/363/14 120/207/14
f 138/209/53 137/364/53 140/210/53
f 146/212/16 113/365/16 115/213/16
f 129/215/53 141/366/53 131/216/53
f 124/218/14 116/367/14 114/219/14
f 144/221/8 114/368/8 116/222/8
f 134/224/53 136/369/53 137/225/53
f 126/227/6 120/370/6 118/228/6
f 127/230/8 115/371/8 113/231/8
f 148/233/6 117/372/6 119/234/6
f 132/236/53 140/373/53 141/237/53
f 115/239/59 141/366/59 129/215/59
f 129/215/8 130/217/8 124/241/8
f 130/217/60 131/216/60 116/243/60
f 119/245/61 140/373/61 132/236/61
f 132/236/16 133/238/16 127/247/16
f 133/238/62 141/237/62 115/249/62
f 116/251/62 136/369/62 134/224/62
f 134/224/14 135/226/14 126/253/14
f 135/226/61 137/225/61 120/255/61
f 120/257/60 137/364/60 138/209/60
f 138/209/6 139/211/6 121/259/6
f 139/211/59 140/210/59 119/261/59
f 140/263/53 137/374/53 136/264/53
f 142/208/6 122/260/6 121/259/6
f 144/223/14 125/254/14 126/253/14
f 146/214/8 123/242/8 124/241/8
f 148/235/16 128/248/16 127/247/16
f 158/214/16 180/212/16 154/266/16
f 179/220/14 159/218/14 157/268/14
f 175/270/54 176/318/54 177/271/54
f 183/273/16 160/326/16 152/274/16
f 166/276/54 167/303/54 168/277/54
f 161/279/14 184/375/14 151/280/14
f 181/282/8 162/324/8 153/283/8
f 171/285/54 172/313/54 174/286/54
f 163/288/6 182/376/6 155/289/6
f 164/291/8 186/377/8 150/292/8
f 185/294/6 165/328/6 156/295/6
f 169/297/54 170/308/54 178/298/54
f 166/276/63 178/278/63 152/300/63
f 166/276/8 160/327/8 161/302/8
f 167/303/64 161/378/64 153/304/64
f 169/297/65 177/299/65 156/305/65
f 169/297/16 165/329/16 164/307/16
f 170/308/66 164/379/66 152/309/66
f 171/285/66 173/287/66 153/310/66
f 171/285/14 162/325/14 163/312/14
f 172/313/65 163/380/65 157/314/65
f 175/270/64 174/272/64 157/315/64
f 175/270/6 159/323/6 158/317/6
f 176/318/63 158/381/63 156/319/63
f 177/320/54 178/382/54 173/321/54
f 179/218/6 180/214/6 158/317/6
f 181/324/14 182/288/14 163/312/14
f 183/326/8 184/279/8 161/302/8
f 185/328/16 186/291/16 164/307/16
o Glass
v 1.375000 2.500000 0.937500
v 1.375000 2.500000 -0.937500
v 1.375000 0.500000 0.937500
v 1.375000 0.500000 -0.937500
v -1.375000 2.500000 0.937500
v -1.375000 2.500000 -0.937500
v -1.375000 0.500000 0.937500
v -1.375000 0.500000 -0.937500
v 0.937500 2.500000 -1.375000
v 0.937500 0.500000 -1.375000
v -0.937500 0.500000 1.375000
v 0.937500 2.500000 1.375000
v 0.937500 0.500000 1.375000
v -0.937500 2.500000 -1.375000
v -0.937500 0.500000 -1.375000
v 1.375000 2.500000 0.937500
v 1.375000 2.500000 -0.937500
v 1.375000 0.500000 0.937500
v 1.375000 0.500000 -0.937500
v -1.375000 2.500000 0.937500
v -1.375000 2.500000 -0.937500
v -1.375000 0.500000 -0.937500
v 0.937500 2.500000 -1.375000
v 0.937500 0.500000 -1.375000
v -0.937500 0.500000 1.375000
v -0.937500 2.500000 1.375000
v 0.937500 2.500000 1.375000
v 0.937500 0.500000 1.375000
v -0.937500 2.500000 -1.375000
v -0.937500 0.500000 -1.375000
v 1.331673 2.500000 0.912544
v 1.328014 2.500000 -0.920403
v 1.339645 0.500000 0.902145
v 1.325000 0.500000 -0.937500
v -1.326165 2.500000 0.926769
v -1.339645 2.500000 -0.902145
v -1.328806 0.500000 0.918366
v -1.326028 0.500000 -0.927413
v 0.912545 2.500000 -1.331673
v 0.902145 0.500000 -1.339645
v -0.914308 0.500000 1.330704
v 0.913607 2.500000 1.331078
v 0.937500 0.500000 1.325000
v -0.920403 2.500000 -1.328014
v -0.937500 0.500000 -1.325000
v 1.325000 2.500000 0.937500
v 1.339645 2.500000 -0.902145
v 1.328014 0.500000 0.920403
v 1.331673 0.500000 -0.912545
v -1.330704 2.500000 0.914308
v -1.325000 2.500000 -0.937500
v -1.331078 0.500000 -0.913607
v 0.937500 2.500000 -1.325000
v 0.920403 0.500000 -1.328014
v -0.926769 0.500000 1.326165
v -0.918366 2.500000 1.328806
v 0.927413 2.500000 1.326028
v 0.902145 0.500000 1.339645
v -0.902145 2.500000 -1.339645
v -0.912545 0.500000 -1.331673
vn 1.0000 -0.0000 -0.0000
vn -1.0000 -0.0000 -0.0000
vn -0.0000 -0.0000 1.0000
vn -0.0000 -0.0000 -1.0000
vn -0.7071 -0.0000 0.7071
vn 0.7071 -0.0000 0.7071
vn 0.7071 -0.0000 -0.7071
vn -0.7071 -0.0000 -0.7071
vn -1.0000 0.0015 0.0020
vn 1.0000 -0.0013 0.0015
vn -0.0031 0.0030 -1.0000
vn 0.0020 0.0015 1.0000
vn 0.7053 0.0020 -0.7089
vn -0.7075 0.0009 -0.7067
vn -0.7035 0.0008 0.7107
vn 0.7126 -0.0040 0.7015
vn -1.0000 -0.0015 -0.0020
vn 1.0000 -0.0030 0.0031
vn -0.0015 0.0013 -1.0000
vn -0.0020 -0.0015 1.0000
vn 0.7089 -0.0020 -0.7053
vn -0.7015 0.0040 -0.7126
vn -0.7107 -0.0008 0.7035
vn 0.7067 -0.0009 0.7075
vt 0.195312 0.750000
vt 0.312500 0.500000
vt 0.312500 0.750000
vt 0.312500 1.000000
vt 0.156250 0.750000
vt 0.039062 0.500000
vt 0.156250 0.500000
vt 0.039062 1.000000
vt 0.156250 1.000000
vt 0.038670 0.500000
vt 0.000000 0.750000
vt 0.000000 0.500000
vt 0.194920 0.500000
vt 0.194920 0.750000
vt 0.000000 1.000000
vt 0.038670 0.750000
vt 0.038670 1.000000
vt 0.194920 1.000000
vt 0.195312 0.500000
vt 0.195312 1.000000
vt 0.039062 0.750000
s 1
usemtl m_1c5250b1-c0f0-0538-1d30-79f51cb1a72f.003
f 187/383/67 190/384/67 188/385/67
f 191/386/68 194/383/68 193/385/68
f 198/387/69 197/388/69 199/389/69
f 195/390/70 201/387/70 200/391/70
f 197/392/71 191/393/71 193/394/71
f 198/387/72 189/395/72 187/396/72
f 188/397/73 196/398/73 195/399/73
f 200/391/74 194/396/74 192/400/74
f 202/383/67 204/401/67 205/384/67
f 206/386/68 207/402/68 208/383/68
f 213/387/69 212/403/69 211/388/69
f 209/390/70 210/403/70 216/387/70
f 211/392/71 212/398/71 206/393/71
f 213/387/72 214/389/72 204/395/72
f 203/397/73 205/393/73 210/398/73
f 215/391/74 216/387/74 208/396/74
f 217/383/75 218/385/75 220/384/75
f 221/386/76 223/385/76 224/383/76
f 228/387/77 229/389/77 227/388/77
f 225/390/78 230/391/78 231/387/78
f 227/392/79 223/394/79 221/393/79
f 228/387/80 217/396/80 219/395/80
f 218/397/81 225/399/81 226/398/81
f 230/391/82 222/400/82 224/396/82
f 232/383/83 235/384/83 234/401/83
f 236/386/84 238/383/84 237/402/84
f 243/387/85 241/388/85 242/403/85
f 239/390/86 246/387/86 240/403/86
f 241/392/87 236/393/87 242/398/87
f 243/387/88 234/395/88 244/389/88
f 233/397/89 240/398/89 235/393/89
f 245/391/90 238/396/90 246/387/90
