# Blender 4.2.0
# www.blender.org
mtllib vat.mtl
o door
v 0.545495 0.500000 0.250000
v 0.545495 2.625000 0.250000
v 0.875000 0.500000 -0.079505
v 0.875000 2.625000 -0.079505
v 0.875000 0.500000 -0.545495
v 0.875000 2.625000 -0.545495
v 0.545495 0.500000 -0.875000
v 0.545495 2.625000 -0.875000
v 0.375000 0.500000 0.250000
v 0.375000 2.625000 0.250000
v 0.545495 0.500000 0.250000
v 0.545495 2.625000 0.250000
v 0.875000 0.500000 -0.079505
v 0.875000 2.625000 -0.079505
v 0.875000 0.500000 -0.545495
v 0.875000 2.625000 -0.545495
v 0.545495 0.500000 -0.875000
v 0.545495 2.625000 -0.875000
v 0.375000 0.500000 0.250000
v 0.375000 2.625000 0.250000
vn -0.7071 -0.0000 -0.7071
vn -1.0000 -0.0000 -0.0000
vn -0.7071 -0.0000 0.7071
vn -0.0000 -0.0000 -1.0000
vn 0.7071 -0.0000 0.7071
vn 1.0000 -0.0000 -0.0000
vn 0.7071 -0.0000 -0.7071
vn -0.0000 -0.0000 1.0000
vt 0.648438 0.265625
vt 0.593750 0.531250
vt 0.648438 0.531250
vt 0.703125 0.265625
vt 0.703125 0.531250
vt 0.757812 0.265625
vt 0.757812 0.531250
vt 0.570312 0.531250
vt 0.593750 0.265625
vt 0.570312 0.265625
s 0
usemtl m_f6989754-32b7-1077-2950-bfa5c5485104
f 3/1/1 2/2/1 4/3/1
f 5/4/2 4/3/2 6/5/2
f 7/6/3 6/5/3 8/7/3
f 10/8/4 1/9/4 9/10/4
f 13/1/5 12/2/5 11/9/5
f 15/4/6 14/3/6 13/1/6
f 17/6/7 16/5/7 15/4/7
f 20/8/8 11/9/8 12/2/8
f 3/1/1 1/9/1 2/2/1
f 5/4/2 3/1/2 4/3/2
f 7/6/3 5/4/3 6/5/3
f 10/8/4 2/2/4 1/9/4
f 13/1/5 14/3/5 12/2/5
f 15/4/6 16/5/6 14/3/6
f 17/6/7 18/7/7 16/5/7
f 20/8/8 19/10/8 11/9/8
o main
v 0.597272 0.000000 0.375000
v 1.000000 -0.000000 -0.027728
v 1.000000 -0.000000 -0.597272
v 0.597272 -0.000000 -1.000000
v 0.027728 -0.000000 -1.000000
v -0.375000 -0.000000 -0.597272
v -0.375000 -0.000000 -0.027728
v 0.027728 0.000000 0.375000
v 0.312500 -0.000000 -0.312500
v 0.500000 -0.000000 -0.234835
v 0.390165 -0.000000 -0.125000
v 0.234835 -0.000000 -0.125000
v 0.125000 -0.000000 -0.234835
v 0.125000 -0.000000 -0.390165
v 0.234835 -0.000000 -0.500000
v 0.390165 -0.000000 -0.500000
v 0.500000 -0.000000 -0.390165
v 0.597272 0.000000 0.375000
v 0.597272 0.500000 0.375000
v 1.000000 -0.000000 -0.027728
v 1.000000 0.500000 -0.027728
v 1.000000 -0.000000 -0.597272
v 1.000000 0.500000 -0.597272
v 0.597272 -0.000000 -1.000000
v 0.597272 0.500000 -1.000000
v 0.027728 -0.000000 -1.000000
v 0.027728 0.500000 -1.000000
v -0.375000 -0.000000 -0.597272
v -0.375000 0.500000 -0.597272
v -0.375000 -0.000000 -0.027728
v -0.375000 0.500000 -0.027728
v 0.027728 0.000000 0.375000
v 0.027728 0.500000 0.375000
v 0.597272 0.500000 0.375000
v 1.000000 0.500000 -0.027728
v 1.000000 0.500000 -0.597272
v 0.597272 0.500000 -1.000000
v 0.027728 0.500000 -1.000000
v -0.375000 0.500000 -0.597272
v -0.375000 0.500000 -0.027728
v 0.027728 0.500000 0.375000
v 0.312500 0.500000 -0.312500
v 0.500000 0.500000 -0.234835
v 0.390165 0.500000 -0.125000
v 0.234835 0.500000 -0.125000
v 0.125000 0.500000 -0.234835
v 0.125000 0.500000 -0.390165
v 0.234835 0.500000 -0.500000
v 0.390165 0.500000 -0.500000
v 0.500000 0.500000 -0.390165
v 0.312500 2.625000 -0.312500
v 0.312500 3.000000 -0.312500
v 0.571384 2.625000 0.312500
v 0.571384 3.000000 0.312500
v 0.937500 2.625000 -0.053616
v 0.937500 3.000000 -0.053616
v 0.937500 2.625000 -0.571384
v 0.937500 3.000000 -0.571384
v 0.571384 2.625000 -0.937500
v 0.571384 3.000000 -0.937500
v 0.053616 2.625000 -0.937500
v 0.053616 3.000000 -0.937500
v -0.312500 2.625000 -0.571384
v -0.312500 3.000000 -0.571384
v -0.312500 2.625000 -0.053616
v -0.312500 3.000000 -0.053616
v 0.053616 2.625000 0.312500
v 0.053616 3.000000 0.312500
v -1.000000 0.875000 -0.500000
v -0.500000 0.875000 -0.500000
v -1.000000 -0.000000 -0.500000
v -0.500000 -0.000000 -0.500000
v -1.000000 0.875000 -1.000000
v -0.500000 0.875000 -1.000000
v -1.000000 -0.000000 -1.000000
v -0.500000 -0.000000 -1.000000
v -1.000000 1.000000 -0.500000
v -0.500000 1.000000 -0.500000
v -1.000000 1.000000 -0.875000
v -0.500000 1.000000 -0.875000
v -1.000000 0.000000 0.500000
v -0.500000 0.000000 0.500000
v -1.000000 -0.000000 -0.500000
v -0.500000 -0.000000 -0.500000
v -1.000000 1.375000 0.375000
v -1.000000 1.375000 -0.375000
v -1.000000 0.125000 0.375000
v -1.000000 0.125000 -0.375000
v -0.937500 1.375000 0.375000
v -0.937500 1.375000 -0.375000
v -0.937500 0.125000 0.375000
v -0.937500 0.125000 -0.375000
v -0.500000 1.375000 -0.500000
v -0.500000 1.375000 0.500000
v -1.000000 1.375000 0.500000
v -1.000000 1.375000 -0.500000
v -1.000000 1.500000 -0.500000
v -1.000000 1.500000 0.500000
v -0.625000 1.500000 -0.500000
v -0.625000 1.500000 0.500000
v 1.000000 0.875000 0.500000
v 1.000000 0.000000 0.500000
v -0.500000 0.000000 0.500000
v 1.000000 0.875000 1.000000
v 1.000000 0.000000 1.000000
v -1.000000 0.000000 0.500000
v -1.000000 0.000000 1.000000
v -0.625000 1.000000 1.000000
v -0.625000 1.000000 0.625000
v -0.500000 0.875000 0.500000
v -1.000000 1.000000 1.000000
v -0.625000 1.000000 0.500000
v -1.000000 1.000000 0.500000
v 0.875000 0.000000 1.000000
v 0.937500 0.937500 0.562500
v 0.937500 0.937500 1.000000
v 0.875000 1.000000 0.625000
v 0.875000 1.000000 1.000000
v 0.375000 2.625000 0.375000
v 0.375000 2.625000 0.250000
v 0.375000 0.500000 0.437500
v 0.375000 0.500000 0.250000
v 0.250000 2.625000 0.375000
v 0.250000 2.625000 0.250000
v 0.250000 0.500000 0.437500
v 0.250000 0.500000 0.250000
v 0.375000 0.000000 0.437500
v 0.250000 0.000000 0.437500
v 0.375000 0.000000 0.375000
v 0.250000 0.000000 0.375000
v 0.375000 3.000000 0.375000
v 0.250000 3.000000 0.375000
v 0.375000 3.000000 0.312500
v 0.250000 3.000000 0.312500
v 0.250000 3.000000 0.312500
v 0.250000 2.625000 0.312500
v 0.375000 2.625000 0.312500
v 0.375000 3.000000 0.312500
v 0.250000 0.500000 0.375000
v 0.250000 0.000000 0.375000
v 0.375000 0.000000 0.375000
v 0.375000 0.500000 0.375000
v -0.500000 2.208813 -0.621613
v -0.500000 2.241445 -0.869474
v -0.500000 1.217368 -0.752139
v -0.500000 1.250000 -1.000000
v -1.000000 2.208813 -0.621613
v -1.000000 2.241445 -0.869474
v -1.000000 1.217368 -0.752139
v -1.000000 1.250000 -1.000000
v -0.562500 2.146848 -0.629771
v -0.937500 2.146848 -0.629771
v -0.562500 1.279334 -0.743981
v -0.937500 1.279334 -0.743981
v -0.562500 2.179480 -0.877632
v -0.562500 1.311965 -0.991842
v -0.937500 2.179480 -0.877632
v -0.937500 1.311965 -0.991842
v -0.562500 2.171322 -0.815667
v -0.562500 1.303807 -0.929877
v -0.937500 2.171322 -0.815667
v -0.937500 1.303807 -0.929877
v -0.625000 2.117514 -0.885790
v -0.625000 1.373930 -0.983684
v -0.875000 2.117514 -0.885790
v -0.875000 1.373930 -0.983684
v -0.593750 2.060409 -0.452033
v -0.906250 2.060409 -0.452033
v -0.593750 1.254860 -0.558085
v -0.906250 1.254860 -0.558085
v 0.891736 0.360486 0.500000
v 0.891736 0.360486 -0.000000
v 0.937500 0.250000 0.500000
v 0.937500 0.250000 -0.000000
v 0.891736 0.139514 0.500000
v 0.891736 0.139514 -0.000000
v 0.781250 0.093750 0.500000
v 0.781250 0.093750 -0.000000
v 0.670764 0.139514 0.500000
v 0.670764 0.139514 -0.000000
v 0.625000 0.250000 0.500000
v 0.625000 0.250000 -0.000000
v 0.670764 0.360486 0.500000
v 0.670764 0.360486 -0.000000
v 0.781250 0.406250 0.500000
v 0.781250 0.406250 -0.000000
v -0.045764 0.360486 0.500000
v -0.045764 0.360486 -0.000000
v 0.000000 0.250000 0.500000
v 0.000000 0.250000 -0.000000
v -0.045764 0.139514 0.500000
v -0.045764 0.139514 -0.000000
v -0.156250 0.093750 0.500000
v -0.156250 0.093750 -0.000000
v -0.266736 0.139514 0.500000
v -0.266736 0.139514 -0.000000
v -0.312500 0.250000 0.500000
v -0.312500 0.250000 -0.000000
v -0.266736 0.360486 0.500000
v -0.266736 0.360486 -0.000000
v -0.156250 0.406250 0.500000
v -0.156250 0.406250 -0.000000
v -0.500000 1.250000 -0.125000
v -0.500000 1.125000 -0.125000
v -0.500000 1.125000 -0.250000
v -0.500000 2.750000 -0.250000
v -0.500000 2.812500 -0.125000
v -0.500000 2.750000 -0.250000
v -0.500000 2.875000 -0.187500
v -0.500000 2.875000 -0.312500
v -0.375000 2.875000 -0.250000
v -0.500000 2.750000 -0.312500
v -0.437500 2.875000 -0.375000
v -0.437500 2.750000 -0.375000
v -0.312500 2.750000 -0.375000
v -0.312500 2.875000 -0.375000
v -0.312500 2.875000 -0.250000
v -0.312500 2.750000 -0.250000
v -0.375000 2.750000 -0.250000
v -0.375000 2.875000 -0.187500
v -0.375000 2.812500 -0.125000
v -0.500000 1.250000 -0.250000
v -0.375000 1.187500 -0.250000
v -0.437500 1.125000 -0.250000
v -0.437500 1.125000 -0.125000
v -0.375000 1.187500 -0.125000
v -0.500000 0.875000 -0.125000
v -0.500000 1.000000 -0.125000
v -0.500000 1.000000 -0.250000
v -0.500000 0.312500 -0.249906
v -0.500000 0.250000 -0.124906
v -0.500000 0.312500 -0.249906
v -0.500000 0.187500 -0.187406
v -0.500000 0.187500 -0.312406
v -0.500000 0.312500 -0.312406
v -0.437500 0.187500 -0.374906
v -0.437500 0.312500 -0.374906
v -0.375000 0.187500 -0.187406
v -0.375000 0.250000 -0.124906
v -0.500000 0.875000 -0.250000
v -0.375000 0.937500 -0.250000
v -0.437500 1.000000 -0.250000
v -0.437500 1.000000 -0.125000
v -0.375000 0.937500 -0.125000
v -0.375000 0.187500 -0.374906
v -0.375000 0.187500 -0.249906
v -0.375000 0.312500 -0.374906
v -0.375000 0.312500 -0.249906
v -0.937500 0.312500 0.062500
v -0.937500 0.312500 -0.312500
v -0.937500 0.187500 0.062500
v -0.937500 0.187500 -0.312500
v -1.000000 0.312500 0.062500
v -1.000000 0.312500 -0.312500
v -1.000000 0.187500 0.062500
v -1.000000 0.187500 -0.312500
v -0.937500 0.562500 0.062500
v -0.937500 0.562500 -0.312500
v -0.937500 0.437500 0.062500
v -0.937500 0.437500 -0.312500
v -1.000000 0.562500 0.062500
v -1.000000 0.562500 -0.312500
v -1.000000 0.437500 0.062500
v -1.000000 0.437500 -0.312500
v -0.937500 0.812500 0.062500
v -0.937500 0.812500 -0.312500
v -0.937500 0.687500 0.062500
v -0.937500 0.687500 -0.312500
v -1.000000 0.812500 0.062500
v -1.000000 0.812500 -0.312500
v -1.000000 0.687500 0.062500
v -1.000000 0.687500 -0.312500
v -0.937500 1.062500 0.062500
v -0.937500 1.062500 -0.312500
v -0.937500 0.937500 0.062500
v -0.937500 0.937500 -0.312500
v -1.000000 1.062500 0.062500
v -1.000000 1.062500 -0.312500
v -1.000000 0.937500 0.062500
v -1.000000 0.937500 -0.312500
v -0.937500 1.312500 0.062500
v -0.937500 1.312500 -0.312500
v -0.937500 1.187500 0.062500
v -0.937500 1.187500 -0.312500
v -1.000000 1.312500 0.062500
v -1.000000 1.312500 -0.312500
v -1.000000 1.187500 0.062500
v -1.000000 1.187500 -0.312500
v -0.625000 1.468750 -0.500000
v -0.625000 1.468750 -0.750000
v -0.625000 1.218750 -0.500000
v -0.625000 1.218750 -0.750000
v -0.875000 1.468750 -0.500000
v -0.875000 1.468750 -0.750000
v -0.875000 1.218750 -0.500000
v -0.875000 1.218750 -0.750000
v -0.750000 1.218750 -0.500000
v -0.858253 1.000000 -0.562500
v -0.750000 1.000000 -0.500000
v -0.641747 1.218750 -0.562500
v -0.641747 1.000000 -0.562500
v -0.641747 1.218750 -0.687500
v -0.641747 1.000000 -0.687500
v -0.750000 1.218750 -0.750000
v -0.750000 1.000000 -0.750000
v -0.858253 1.218750 -0.687500
v -0.858253 1.000000 -0.687500
v -0.858253 1.218750 -0.562500
v -0.500000 1.114312 -0.779365
v -0.500000 1.028807 -1.014289
v -0.500000 1.055581 -0.757989
v -0.500000 0.970076 -0.992912
v -1.000000 1.114312 -0.779365
v -1.000000 1.028807 -1.014289
v -1.000000 1.055581 -0.757989
v -1.000000 0.970076 -0.992912
v -0.562500 1.135688 -0.720635
v -0.937500 1.135688 -0.720635
v -0.562500 1.076957 -0.699258
v -0.937500 1.076957 -0.699258
v 0.545495 0.500000 -0.875000
v 0.545495 2.625000 -0.875000
v 0.079505 0.500000 -0.875000
v 0.079505 2.625000 -0.875000
v -0.250000 0.500000 -0.545495
v -0.250000 2.625000 -0.545495
v -0.250000 0.500000 -0.079505
v -0.250000 2.625000 -0.079505
v 0.079505 0.500000 0.250000
v 0.079505 2.625000 0.250000
v 0.250000 0.500000 0.250000
v 0.250000 2.625000 0.250000
v 0.545495 0.500000 -0.875000
v 0.545495 2.625000 -0.875000
v 0.079505 0.500000 -0.875000
v 0.079505 2.625000 -0.875000
v -0.250000 0.500000 -0.545495
v -0.250000 2.625000 -0.545495
v -0.250000 0.500000 -0.079505
v -0.250000 2.625000 -0.079505
v 0.079505 0.500000 0.250000
v 0.079505 2.625000 0.250000
v 0.250000 0.500000 0.250000
v 0.250000 2.625000 0.250000
vn -0.0000 -1.0000 -0.0000
vn 0.7071 -0.0000 0.7071
vn 1.0000 -0.0000 -0.0000
vn 0.7071 -0.0000 -0.7071
vn -0.0000 -0.0000 -1.0000
vn -0.7071 -0.0000 -0.7071
vn -1.0000 -0.0000 -0.0000
vn -0.7071 -0.0000 0.7071
vn -0.0000 -0.0000 1.0000
vn -0.0000 1.0000 -0.0000
vn -0.0000 0.7071 -0.7071
vn 0.7071 0.7071 -0.0000
vn -0.0000 0.0294 0.9996
vn -0.0000 0.9914 0.1305
vn -0.0000 -0.9914 -0.1305
vn -0.0000 -0.1305 0.9914
vn -0.0000 0.1305 -0.9914
vn -0.0000 0.7933 -0.6088
vn 0.7071 0.0923 -0.7011
vn -0.0000 -0.6088 -0.7934
vn -0.7071 0.0923 -0.7011
vn 0.9864 -0.0215 0.1630
vn -0.0000 0.8993 0.4374
vn -0.9864 -0.0215 0.1630
vn 0.9239 0.3827 -0.0000
vn 0.9239 -0.3827 -0.0000
vn 0.3827 -0.9239 -0.0000
vn -0.3827 -0.9239 -0.0000
vn -0.9239 -0.3827 -0.0000
vn -0.9239 0.3827 -0.0000
vn -0.3827 0.9239 -0.0000
vn 0.3827 0.9239 -0.0000
vn 0.7071 -0.7071 -0.0000
vn -0.0000 0.7071 0.7071
vn -0.0000 -0.7071 0.7071
vn -0.0000 -0.0002 -1.0000
vn -0.0000 0.0002 1.0000
vn -0.5000 -0.0000 0.8660
vn 0.5000 -0.0000 0.8660
vn 0.5000 -0.0000 -0.8660
vn -0.5000 -0.0000 -0.8660
vn -0.0000 0.9397 -0.3420
vn -0.0000 -0.9397 0.3420
vn -0.0000 0.3420 0.9397
vn -0.0000 -0.3420 -0.9397
vn 0.7071 0.2418 0.6645
vn -0.7071 0.2419 0.6645
vn -0.0000 0.8993 0.4373
vn 0.0001 -0.0002 -1.0000
vn -0.0001 0.0001 1.0000
vn 0.7071 0.2419 0.6645
vn -0.7071 0.2418 0.6645
vt 0.242188 0.046875
vt 0.312500 0.109375
vt 0.242188 0.109375
vt 0.222656 0.046875
vt 0.171875 0.109375
vt 0.242188 0.023438
vt 0.265625 0.033146
vt 0.251896 0.046875
vt 0.232479 0.046875
vt 0.218750 0.033146
vt 0.218750 0.013729
vt 0.232479 0.000000
vt 0.251896 0.000000
vt 0.265625 0.013729
vt 0.171875 0.171875
vt 0.242188 0.171875
vt 0.242188 0.234375
vt 0.312500 0.171875
vt 0.261719 0.234375
vt 0.222656 0.234375
vt 0.265625 0.248104
vt 0.242188 0.257813
vt 0.251896 0.234375
vt 0.232479 0.234375
vt 0.218750 0.248104
vt 0.218750 0.267521
vt 0.232479 0.281250
vt 0.251896 0.281250
vt 0.265625 0.267521
vt 0.156250 0.045765
vt 0.110485 0.000000
vt 0.078125 0.078125
vt 0.062500 0.312500
vt 0.000000 0.359375
vt 0.000000 0.312500
vt 0.110485 0.156250
vt 0.156250 0.202015
vt 0.078125 0.234375
vt 0.156250 0.110485
vt 0.125000 0.312500
vt 0.062500 0.359375
vt 0.156250 0.266735
vt 0.110485 0.312500
vt 0.045765 0.156250
vt 0.045765 0.312500
vt 0.000000 0.110485
vt 0.187500 0.312500
vt 0.125000 0.359375
vt 0.000000 0.266735
vt 0.000000 0.045765
vt 0.250000 0.312500
vt 0.187500 0.359375
vt 0.000000 0.202015
vt 0.045765 0.000000
vt 0.125000 0.585938
vt 0.062500 0.476562
vt 0.125000 0.476562
vt 0.125000 0.601562
vt 0.062500 0.648438
vt 0.125000 0.648438
vt 0.062500 0.414062
vt 0.125000 0.414062
vt 0.187500 0.585938
vt 0.187500 0.476562
vt 0.000000 0.585938
vt 0.062500 0.585938
vt 0.140625 0.601562
vt 0.187500 0.601562
vt 0.046875 0.601562
vt 0.062500 0.601562
vt 0.804688 0.750000
vt 0.679688 0.687500
vt 0.804688 0.687500
vt 0.789062 0.929688
vt 0.695312 0.773438
vt 0.789062 0.773438
vt 0.796875 0.773438
vt 0.812500 0.945312
vt 0.796875 0.929688
vt 0.789062 0.937500
vt 0.679688 0.953125
vt 0.695312 0.937500
vt 0.687500 0.929688
vt 0.671875 0.757812
vt 0.687500 0.773438
vt 0.695312 0.765625
vt 0.789062 0.765625
vt 0.695312 0.929688
vt 1.000000 0.929688
vt 0.875000 0.757812
vt 1.000000 0.757812
vt 0.875000 0.929688
vt 0.812500 0.757812
vt 0.671875 0.929688
vt 0.609375 0.757812
vt 0.625000 0.945312
vt 0.609375 0.929688
vt 0.859375 0.945312
vt 0.812500 0.929688
vt 0.804688 0.953125
vt 0.679688 1.000000
vt 0.804688 1.000000
vt 1.000000 0.945312
vt 0.812500 0.171875
vt 1.000000 0.062500
vt 1.000000 0.171875
vt 0.734375 0.234375
vt 0.546875 0.187500
vt 0.734375 0.187500
vt 0.750000 0.062500
vt 0.812500 0.062500
vt 0.742188 0.234375
vt 0.570312 0.250000
vt 0.554688 0.234375
vt 0.500000 0.000000
vt 0.500000 0.062500
vt 0.562500 0.250000
vt 0.546875 0.250000
vt 0.546875 0.234375
vt 0.500000 0.250000
vt 0.437500 0.187500
vt 0.500000 0.187500
vt 0.750000 0.171875
vt 0.734375 0.062500
vt 0.757031 0.250000
vt 0.765625 0.187500
vt 0.765625 0.250000
vt 0.750000 0.234375
vt 0.757812 0.187500
vt 0.757812 0.242188
vt 0.382812 0.335708
vt 0.406240 0.070657
vt 0.398431 0.336167
vt 0.351552 0.335708
vt 0.328125 0.070657
vt 0.351552 0.069968
vt 0.375000 0.007812
vt 0.359375 0.000000
vt 0.375000 0.000000
vt 0.375000 0.335938
vt 0.359375 0.070312
vt 0.375000 0.070312
vt 0.406250 0.335938
vt 0.421875 0.070312
vt 0.421875 0.335938
vt 0.359375 0.007812
vt 0.359375 0.382812
vt 0.375000 0.382812
vt 0.375000 0.390625
vt 0.351562 0.382812
vt 0.359375 0.335938
vt 0.382812 0.335938
vt 0.351562 0.070312
vt 0.382812 0.007812
vt 0.000000 0.960938
vt 0.031250 0.835938
vt 0.031250 0.960938
vt 0.140625 0.960938
vt 0.109375 0.835938
vt 0.140625 0.835938
vt 0.101562 0.968750
vt 0.039062 1.000000
vt 0.039062 0.968750
vt 0.101562 0.828125
vt 0.039062 0.796875
vt 0.101562 0.796875
vt 0.210938 0.945312
vt 0.171875 0.843750
vt 0.210938 0.843750
vt 0.054688 0.945312
vt 0.085938 0.851562
vt 0.085938 0.945312
vt 0.218750 0.976562
vt 0.156250 0.984375
vt 0.164062 0.976562
vt 0.093750 0.960938
vt 0.046875 0.960938
vt 0.039062 0.953125
vt 0.039062 0.843750
vt 0.046875 0.835938
vt 0.093750 0.835938
vt 0.101562 0.843750
vt 0.109375 0.960938
vt 0.101562 0.953125
vt 0.093750 0.953125
vt 0.046875 0.953125
vt 0.046875 0.843750
vt 0.054688 0.851562
vt 0.093750 0.843750
vt 0.234375 0.843750
vt 0.242188 0.960938
vt 0.234375 0.953125
vt 0.164062 0.820312
vt 0.226562 0.812500
vt 0.218750 0.820312
vt 0.148438 0.843750
vt 0.234698 0.843750
vt 0.234698 0.953125
vt 0.210938 0.953125
vt 0.167969 0.976562
vt 0.171875 0.953125
vt 0.172198 0.945312
vt 0.172198 0.843750
vt 0.214844 0.820312
vt 0.476562 0.210938
vt 0.460938 0.273438
vt 0.460938 0.210938
vt 0.445312 0.273438
vt 0.445312 0.210938
vt 0.578125 0.734375
vt 0.562500 0.742188
vt 0.562500 0.734375
vt 0.562500 0.750000
vt 0.578125 0.742188
vt 0.578125 0.750000
vt 0.578125 0.945312
vt 0.531250 0.945312
vt 0.546875 0.757812
vt 0.546875 0.953125
vt 0.546875 0.960938
vt 0.562500 0.953125
vt 0.562500 0.960938
vt 0.531250 0.957031
vt 0.562500 0.968750
vt 0.531250 0.968750
vt 0.515625 0.976562
vt 0.531250 0.976562
vt 0.546875 0.976562
vt 0.546875 0.984375
vt 0.562500 0.980469
vt 0.515625 0.980469
vt 0.531250 0.984375
vt 0.546875 1.000000
vt 0.562500 0.992188
vt 0.562500 1.000000
vt 0.578125 0.992188
vt 0.578125 1.000000
vt 0.531250 1.000000
vt 0.515625 0.992188
vt 0.593750 0.757812
vt 0.578125 0.968750
vt 0.578125 0.957031
vt 0.593750 0.734375
vt 0.546875 0.734375
vt 0.593750 0.746094
vt 0.546875 0.746094
vt 0.562512 0.929688
vt 0.578125 0.851562
vt 0.578137 0.929688
vt 0.531250 0.851562
vt 0.546875 0.921872
vt 0.531250 0.921875
vt 0.593750 0.921875
vt 0.593750 0.851562
vt 0.562500 0.843750
vt 0.546875 0.921875
vt 0.546875 0.843750
vt 0.546875 0.992188
vt 0.531250 0.992188
vt 0.875000 0.734375
vt 0.828125 0.718750
vt 0.875000 0.718750
vt 0.828125 0.742188
vt 0.875000 0.742188
vt 0.828125 0.710938
vt 0.875000 0.710938
vt 0.882812 0.734375
vt 0.882812 0.718750
vt 0.820312 0.734375
vt 0.828125 0.734375
vt 0.937500 0.734375
vt 0.890625 0.718750
vt 0.937500 0.718750
vt 0.890625 0.742188
vt 0.937500 0.742188
vt 0.890625 0.710938
vt 0.937500 0.710938
vt 0.945312 0.734375
vt 0.945312 0.718750
vt 0.890625 0.734375
vt 0.132812 0.718750
vt 0.164062 0.687500
vt 0.164062 0.718750
vt 0.132812 0.687500
vt 0.164062 0.765625
vt 0.179688 0.742188
vt 0.179688 0.765625
vt 0.195312 0.742188
vt 0.195312 0.765625
vt 0.101562 0.765625
vt 0.117188 0.742188
vt 0.117188 0.765625
vt 0.132812 0.742188
vt 0.132812 0.765625
vt 0.148438 0.742188
vt 0.148438 0.765625
vt 0.164062 0.742188
vt 0.007812 0.765625
vt 0.000000 0.734375
vt 0.007812 0.734375
vt 0.085938 0.734375
vt 0.078125 0.765625
vt 0.078125 0.734375
vt 0.074219 0.765625
vt 0.011719 0.734375
vt 0.011719 0.765625
vt 0.074219 0.726562
vt 0.011719 0.695312
vt 0.074219 0.695312
vt 0.066406 0.781250
vt 0.019531 0.773438
vt 0.066406 0.773438
vt 0.074219 0.734375
vt 0.007812 0.781250
vt 0.015625 0.773438
vt 0.015625 0.781250
vt 0.078125 0.781250
vt 0.070312 0.773438
vt 0.078125 0.773438
vt 0.019531 0.687500
vt 0.066406 0.687500
vt 0.812500 0.265625
vt 0.757812 0.531250
vt 0.757812 0.265625
vt 0.867188 0.265625
vt 0.812500 0.531250
vt 0.921875 0.265625
vt 0.867188 0.531250
vt 0.976562 0.265625
vt 0.921875 0.531250
vt 1.000000 0.265625
vt 0.976562 0.531250
vt 1.000000 0.531250
vt 0.261719 0.046875
vt 0.250000 0.359375
vt 0.000000 0.476562
vt 0.000000 0.601562
vt 0.679688 0.750000
vt 0.671875 0.945312
vt 0.875000 0.945312
vt 0.757812 0.250000
vt 0.750000 0.000000
vt 0.437500 0.062500
vt 0.757031 0.187500
vt 0.750000 0.187500
vt 0.382812 0.069968
vt 0.335934 0.336167
vt 0.406250 0.070312
vt 0.359375 0.390625
vt 0.351562 0.335938
vt 0.382812 0.382812
vt 0.351562 0.007812
vt 0.382812 0.070312
vt 0.000000 0.835938
vt 0.101562 1.000000
vt 0.039062 0.828125
vt 0.171875 0.945312
vt 0.226562 0.984375
vt 0.242188 0.835938
vt 0.156250 0.812500
vt 0.148438 0.953125
vt 0.214844 0.976562
vt 0.167969 0.820312
vt 0.476562 0.273438
vt 0.531250 0.757812
vt 0.515625 1.000000
vt 0.593750 0.945312
vt 0.546874 0.843747
vt 0.578125 0.929688
vt 0.562500 0.929688
vt 0.820312 0.718750
vt 0.101562 0.742188
vt 0.000000 0.765625
vt 0.085938 0.765625
vt 0.011719 0.726562
vt 0.019531 0.781250
vt 0.007812 0.773438
vt 0.070312 0.781250
s 0
usemtl m_f6989754-32b7-1077-2950-bfa5c5485104
f 31/11/9 22/12/9 21/13/9
f 30/14/9 23/13/9 22/15/9
f 37/11/9 24/12/9 23/13/9
f 24/15/9 35/11/9 25/13/9
f 35/11/9 26/12/9 25/13/9
f 26/15/9 33/11/9 27/13/9
f 33/11/9 28/12/9 27/13/9
f 32/14/9 21/13/9 28/15/9
f 29/16/9 30/17/9 31/18/9
f 29/16/9 31/18/9 32/19/9
f 29/16/9 32/19/9 33/20/9
f 29/16/9 33/20/9 34/21/9
f 29/16/9 34/21/9 35/22/9
f 29/16/9 35/22/9 36/23/9
f 29/16/9 36/23/9 37/24/9
f 29/16/9 37/24/9 30/17/9
f 40/13/10 39/25/10 38/15/10
f 42/12/11 41/26/11 40/13/11
f 44/13/12 43/25/12 42/15/12
f 46/12/13 45/26/13 44/13/13
f 48/13/14 47/25/14 46/15/14
f 50/12/15 49/26/15 48/13/15
f 52/13/16 51/25/16 50/15/16
f 38/12/17 53/26/17 52/13/17
f 64/27/18 55/28/18 63/29/18
f 63/30/18 56/26/18 70/27/18
f 70/27/18 57/28/18 69/29/18
f 68/27/18 57/25/18 58/26/18
f 68/27/18 59/28/18 67/29/18
f 66/27/18 59/25/18 60/26/18
f 66/27/18 61/28/18 65/29/18
f 65/30/18 54/26/18 64/27/18
f 63/31/18 62/32/18 64/33/18
f 64/33/18 62/32/18 65/34/18
f 65/34/18 62/32/18 66/35/18
f 66/35/18 62/32/18 67/36/18
f 67/36/18 62/32/18 68/37/18
f 68/37/18 62/32/18 69/38/18
f 69/38/18 62/32/18 70/39/18
f 70/39/18 62/32/18 63/31/18
f 75/40/9 73/41/9 71/42/9
f 75/43/10 74/44/10 73/45/10
f 74/46/18 76/47/18 72/48/18
f 77/49/9 75/40/9 71/42/9
f 77/50/11 76/51/11 75/43/11
f 76/47/18 78/52/18 72/48/18
f 79/46/9 77/49/9 71/42/9
f 79/43/12 78/44/12 77/45/12
f 78/52/18 80/53/18 72/48/18
f 81/54/9 79/46/9 71/42/9
f 81/50/13 80/51/13 79/43/13
f 80/53/18 82/55/18 72/48/18
f 83/56/9 81/54/9 71/42/9
f 83/57/14 82/58/14 81/50/14
f 82/55/18 84/59/18 72/48/18
f 85/60/9 83/56/9 71/42/9
f 85/61/15 84/62/15 83/57/15
f 84/59/18 86/63/18 72/48/18
f 87/64/9 85/60/9 71/42/9
f 87/43/16 86/44/16 85/45/16
f 86/63/18 88/54/18 72/48/18
f 73/41/9 87/64/9 71/42/9
f 73/50/17 88/51/17 87/43/17
f 88/54/18 74/46/18 72/48/18
f 93/65/13 96/66/13 95/67/13
f 97/68/18 100/69/18 99/70/18
f 91/67/9 96/71/9 92/72/9
f 89/73/15 95/67/15 91/74/15
f 90/75/11 96/66/11 94/76/11
f 99/77/15 89/73/15 97/78/15
f 100/79/11 90/75/11 94/76/11
f 100/80/19 93/65/19 99/68/19
f 101/81/9 104/82/9 102/83/9
f 109/84/15 112/85/15 111/86/15
f 107/87/15 118/88/15 105/89/15
f 105/90/15 117/91/15 106/92/15
f 106/93/15 103/94/15 108/95/15
f 108/96/15 101/81/15 107/97/15
f 111/86/13 105/89/13 109/84/13
f 109/84/9 106/92/9 110/98/9
f 110/98/17 108/95/17 112/85/17
f 112/85/18 107/97/18 111/86/18
f 113/99/11 102/100/11 104/101/11
f 114/102/17 101/103/17 102/100/17
f 116/104/13 104/105/13 103/94/13
f 116/104/13 119/106/13 113/107/13
f 120/108/17 115/109/17 114/102/17
f 120/110/18 117/111/18 118/112/18
f 119/113/20 114/102/20 113/99/20
f 121/114/13 123/115/13 130/116/13
f 137/117/18 128/118/18 138/119/18
f 121/114/11 125/120/11 122/121/11
f 137/122/19 130/123/19 129/124/19
f 126/125/9 125/120/9 127/126/9
f 130/127/20 132/128/20 129/129/20
f 133/130/18 128/118/18 132/128/18
f 133/131/15 127/126/15 131/132/15
f 124/133/17 134/134/17 125/120/17
f 134/134/17 131/132/17 127/126/17
f 135/135/20 124/136/20 121/137/20
f 137/138/20 136/139/20 135/140/20
f 139/141/11 142/142/11 140/143/11
f 143/144/15 146/145/15 145/146/15
f 147/147/9 150/148/9 149/149/9
f 139/150/21 145/151/21 141/152/21
f 140/153/13 146/154/13 144/155/13
f 147/147/17 145/151/17 148/156/17
f 152/157/17 139/150/17 151/158/17
f 153/159/18 152/157/18 151/158/18
f 155/160/15 143/161/15 152/157/15
f 157/162/11 151/158/11 139/150/11
f 159/163/15 148/156/15 145/151/15
f 161/164/11 141/152/11 147/147/11
f 163/165/11 166/166/11 164/167/11
f 167/168/15 170/169/15 169/170/15
f 163/171/22 168/172/22 167/173/22
f 165/174/23 170/175/23 166/176/23
f 187/177/24 190/178/24 189/179/24
f 183/180/25 186/181/25 185/182/25
f 171/183/24 167/184/24 172/185/24
f 177/186/25 164/173/25 175/187/25
f 175/188/25 166/166/25 176/189/25
f 176/190/25 170/174/25 178/191/25
f 178/192/25 168/193/25 177/194/25
f 181/187/23 175/195/23 179/186/23
f 179/196/15 176/189/15 180/197/15
f 180/191/22 178/197/22 182/190/22
f 181/195/11 178/192/11 177/194/11
f 185/182/26 179/196/26 183/180/26
f 183/180/27 180/197/27 184/198/27
f 184/198/28 182/199/28 186/181/28
f 185/182/29 182/199/29 181/195/29
f 173/200/24 163/201/24 171/202/24
f 174/203/24 165/204/24 173/205/24
f 174/206/24 167/168/24 169/170/24
f 187/177/30 173/207/30 171/208/30
f 187/209/31 172/210/31 188/211/31
f 188/212/32 174/206/32 190/213/32
f 190/178/23 173/214/23 189/179/23
f 193/215/33 192/216/33 191/217/33
f 195/217/34 194/218/34 193/219/34
f 197/215/35 196/216/35 195/217/35
f 199/217/36 198/218/36 197/219/36
f 201/215/37 200/216/37 199/217/37
f 203/217/38 202/218/38 201/219/38
f 205/215/39 204/216/39 203/217/39
f 191/217/40 206/218/40 205/219/40
f 209/215/33 208/216/33 207/217/33
f 211/217/34 210/218/34 209/219/34
f 213/215/35 212/216/35 211/217/35
f 215/217/36 214/218/36 213/219/36
f 217/215/37 216/216/37 215/217/37
f 219/217/38 218/218/38 217/219/38
f 221/215/39 220/216/39 219/217/39
f 207/217/40 222/218/40 221/219/40
f 245/220/9 225/221/9 244/222/9
f 246/223/41 244/224/41 243/225/41
f 239/226/11 246/223/11 243/225/11
f 228/227/15 223/228/15 227/229/15
f 229/230/42 241/231/42 240/232/42
f 229/230/15 228/233/15 227/229/15
f 231/234/18 229/230/18 240/232/18
f 232/235/9 239/236/9 226/237/9
f 230/238/15 226/235/15 229/230/15
f 233/239/18 230/238/18 231/240/18
f 234/237/9 239/241/9 232/242/9
f 234/242/14 230/238/14 233/239/14
f 236/243/13 234/242/13 233/239/13
f 236/243/18 231/244/18 237/245/18
f 237/245/17 239/246/17 238/247/17
f 235/248/9 239/249/9 234/242/9
f 242/250/13 239/226/13 243/225/13
f 223/228/17 241/231/17 227/229/17
f 240/232/11 239/251/11 231/234/11
f 240/232/11 241/231/11 239/252/11
f 242/253/13 244/224/13 225/220/13
f 245/221/17 223/254/17 224/222/17
f 243/225/13 244/224/13 242/255/13
f 245/221/17 246/223/17 223/256/17
f 263/220/18 249/221/18 248/224/18
f 264/223/20 262/224/20 263/221/20
f 264/257/11 268/258/11 261/259/11
f 252/260/15 247/261/15 260/262/15
f 253/230/43 259/231/43 251/229/43
f 252/233/15 253/230/15 251/229/15
f 266/234/9 253/230/9 254/238/9
f 268/236/18 255/235/18 250/237/18
f 250/235/15 254/238/15 253/230/15
f 254/238/9 256/239/9 266/240/9
f 268/241/18 257/237/18 255/242/18
f 257/242/14 254/238/14 255/237/14
f 260/263/44 268/258/44 250/264/44
f 259/265/45 247/266/45 251/267/45
f 268/251/11 258/232/11 266/234/11
f 259/231/11 258/232/11 268/252/11
f 262/224/13 260/253/13 249/220/13
f 247/254/17 263/221/17 248/222/17
f 262/224/13 261/225/13 260/255/13
f 264/223/17 263/221/17 247/256/17
f 265/268/9 266/244/9 256/239/9
f 267/268/13 256/242/13 257/239/13
f 268/249/18 267/269/18 257/242/18
f 273/270/15 276/271/15 275/272/15
f 269/270/18 274/273/18 273/274/18
f 271/275/9 276/272/9 272/276/9
f 269/277/17 275/272/17 271/278/17
f 270/279/13 276/271/13 274/280/13
f 281/270/15 284/271/15 283/272/15
f 277/270/18 282/273/18 281/274/18
f 279/275/9 284/272/9 280/276/9
f 277/277/17 283/272/17 279/278/17
f 278/279/13 284/271/13 282/280/13
f 289/281/15 292/282/15 291/283/15
f 285/281/18 290/284/18 289/285/18
f 287/286/9 292/283/9 288/287/9
f 285/288/17 291/283/17 287/289/17
f 286/277/13 292/282/13 290/290/13
f 297/270/15 300/271/15 299/272/15
f 293/270/18 298/273/18 297/274/18
f 295/275/9 300/272/9 296/276/9
f 293/277/17 299/272/17 295/278/17
f 294/279/13 300/271/13 298/280/13
f 305/281/15 308/282/15 307/283/15
f 301/281/18 306/284/18 305/285/18
f 303/286/9 308/283/9 304/287/9
f 301/288/17 307/283/17 303/289/17
f 302/277/13 308/282/13 306/290/13
f 309/291/11 312/292/11 310/293/11
f 313/293/15 316/294/15 315/292/15
f 309/293/18 314/294/18 313/292/18
f 311/294/9 316/293/9 312/291/9
f 310/291/13 316/292/13 314/293/13
f 328/295/46 319/296/46 317/297/46
f 317/297/47 321/298/47 320/299/47
f 320/300/11 323/301/11 322/302/11
f 322/302/48 325/303/48 324/304/48
f 324/304/49 327/305/49 326/306/49
f 326/306/15 318/307/15 328/295/15
f 329/308/11 332/309/11 330/310/11
f 333/311/15 336/312/15 335/313/15
f 329/314/50 334/315/50 333/316/50
f 331/317/51 336/318/51 332/319/51
f 337/320/52 340/321/52 339/322/52
f 330/315/53 336/317/53 334/323/53
f 337/324/54 331/325/54 329/326/54
f 337/322/50 333/316/50 338/321/50
f 338/327/55 335/328/55 340/329/55
f 340/330/51 331/319/51 339/331/51
f 343/332/13 342/333/13 341/334/13
f 345/335/14 344/336/14 343/332/14
f 347/337/15 346/338/15 345/335/15
f 349/339/16 348/340/16 347/337/16
f 351/341/17 350/342/17 349/339/17
f 355/332/17 354/333/17 356/336/17
f 357/335/10 356/336/10 358/338/10
f 359/337/11 358/338/11 360/340/11
f 361/339/12 360/340/12 362/342/12
f 363/341/13 362/342/13 364/343/13
f 31/11/9 30/344/9 22/12/9
f 30/14/9 37/11/9 23/13/9
f 37/11/9 36/344/9 24/12/9
f 24/15/9 36/14/9 35/11/9
f 35/11/9 34/344/9 26/12/9
f 26/15/9 34/14/9 33/11/9
f 33/11/9 32/344/9 28/12/9
f 32/14/9 31/11/9 21/13/9
f 40/13/10 41/26/10 39/25/10
f 42/12/11 43/28/11 41/26/11
f 44/13/12 45/26/12 43/25/12
f 46/12/13 47/28/13 45/26/13
f 48/13/14 49/26/14 47/25/14
f 50/12/15 51/28/15 49/26/15
f 52/13/16 53/26/16 51/25/16
f 38/12/17 39/28/17 53/26/17
f 64/27/18 54/26/18 55/28/18
f 63/30/18 55/25/18 56/26/18
f 70/27/18 56/26/18 57/28/18
f 68/27/18 69/30/18 57/25/18
f 68/27/18 58/26/18 59/28/18
f 66/27/18 67/30/18 59/25/18
f 66/27/18 60/26/18 61/28/18
f 65/30/18 61/25/18 54/26/18
f 75/43/10 76/51/10 74/44/10
f 77/50/11 78/58/11 76/51/11
f 79/43/12 80/51/12 78/44/12
f 81/50/13 82/58/13 80/51/13
f 83/57/14 84/62/14 82/58/14
f 85/61/15 86/345/15 84/62/15
f 87/43/16 88/51/16 86/44/16
f 73/50/17 74/58/17 88/51/17
f 93/65/13 94/76/13 96/66/13
f 97/68/18 98/80/18 100/69/18
f 91/67/9 95/66/9 96/71/9
f 89/73/15 93/65/15 95/67/15
f 90/75/11 92/346/11 96/66/11
f 99/77/15 93/65/15 89/73/15
f 100/79/11 98/347/11 90/75/11
f 100/80/19 94/76/19 93/65/19
f 101/81/9 103/348/9 104/82/9
f 109/84/15 110/98/15 112/85/15
f 107/87/15 101/103/15 118/88/15
f 105/90/15 118/110/15 117/91/15
f 106/93/15 117/349/15 103/94/15
f 108/96/15 103/348/15 101/81/15
f 111/86/13 107/87/13 105/89/13
f 109/84/9 105/90/9 106/92/9
f 110/98/17 106/93/17 108/95/17
f 112/85/18 108/96/18 107/97/18
f 113/99/11 114/102/11 102/100/11
f 114/102/17 115/109/17 101/103/17
f 116/104/13 113/107/13 104/105/13
f 116/104/13 117/349/13 119/106/13
f 120/108/17 118/88/17 115/109/17
f 120/110/18 119/91/18 117/111/18
f 119/113/20 120/350/20 114/102/20
f 121/114/13 122/121/13 123/115/13
f 137/117/18 129/129/18 128/118/18
f 121/114/11 124/133/11 125/120/11
f 137/122/19 121/351/19 130/123/19
f 126/125/9 122/352/9 125/120/9
f 133/130/18 131/132/18 128/118/18
f 133/131/15 126/353/15 127/126/15
f 124/133/17 138/119/17 134/134/17
f 134/134/17 138/119/17 131/132/17
f 135/135/20 136/354/20 124/136/20
f 137/138/20 138/355/20 136/139/20
f 139/141/11 141/356/11 142/142/11
f 143/144/15 144/357/15 146/145/15
f 147/147/9 148/156/9 150/148/9
f 139/150/21 143/161/21 145/151/21
f 140/153/13 142/358/13 146/154/13
f 147/147/17 141/152/17 145/151/17
f 152/157/17 143/161/17 139/150/17
f 153/159/18 154/359/18 152/157/18
f 155/160/15 156/360/15 143/161/15
f 157/162/11 158/361/11 151/158/11
f 159/163/15 160/362/15 148/156/15
f 161/164/11 162/363/11 141/152/11
f 163/165/11 165/364/11 166/166/11
f 167/168/15 168/193/15 170/169/15
f 163/171/22 164/365/22 168/172/22
f 165/174/23 169/366/23 170/175/23
f 187/177/24 188/367/24 190/178/24
f 183/180/25 184/198/25 186/181/25
f 171/183/24 163/368/24 167/184/24
f 177/186/25 168/171/25 164/173/25
f 175/188/25 164/167/25 166/166/25
f 176/190/25 166/366/25 170/174/25
f 178/192/25 170/169/25 168/193/25
f 181/187/23 177/196/23 175/195/23
f 179/196/15 175/188/15 176/189/15
f 180/191/22 176/199/22 178/197/22
f 181/195/11 182/199/11 178/192/11
f 185/182/26 181/195/26 179/196/26
f 183/180/27 179/196/27 180/197/27
f 184/198/28 180/197/28 182/199/28
f 185/182/29 186/181/29 182/199/29
f 173/200/24 165/369/24 163/201/24
f 174/203/24 169/370/24 165/204/24
f 174/206/24 172/371/24 167/168/24
f 187/177/30 189/179/30 173/207/30
f 187/209/56 171/372/56 172/210/56
f 188/212/32 172/371/32 174/206/32
f 190/178/23 174/373/23 173/214/23
f 193/215/33 194/374/33 192/216/33
f 195/217/34 196/216/34 194/218/34
f 197/215/35 198/374/35 196/216/35
f 199/217/36 200/216/36 198/218/36
f 201/215/37 202/374/37 200/216/37
f 203/217/38 204/216/38 202/218/38
f 205/215/39 206/374/39 204/216/39
f 191/217/40 192/216/40 206/218/40
f 209/215/33 210/374/33 208/216/33
f 211/217/34 212/216/34 210/218/34
f 213/215/35 214/374/35 212/216/35
f 215/217/36 216/216/36 214/218/36
f 217/215/37 218/374/37 216/216/37
f 219/217/38 220/216/38 218/218/38
f 221/215/39 222/374/39 220/216/39
f 207/217/40 208/216/40 222/218/40
f 245/220/9 224/224/9 225/221/9
f 246/223/41 245/221/41 244/224/41
f 239/226/11 241/231/11 246/223/11
f 228/227/15 242/375/15 223/228/15
f 229/230/42 227/229/42 241/231/42
f 231/234/18 230/238/18 229/230/18
f 230/238/15 232/237/15 226/235/15
f 234/242/14 232/237/14 230/238/14
f 236/243/13 235/248/13 234/242/13
f 236/243/18 233/239/18 231/244/18
f 237/245/17 231/244/17 239/246/17
f 235/248/9 238/376/9 239/249/9
f 242/250/13 226/377/13 239/226/13
f 223/228/17 246/223/17 241/231/17
f 263/220/18 262/222/18 249/221/18
f 264/223/20 261/225/20 262/224/20
f 264/257/11 259/265/11 268/258/11
f 252/260/15 251/378/15 247/261/15
f 253/230/43 258/232/43 259/231/43
f 266/234/9 258/232/9 253/230/9
f 250/235/15 255/237/15 254/238/15
f 257/242/14 256/239/14 254/238/14
f 260/263/57 261/379/57 268/258/57
f 259/265/58 264/380/58 247/266/58
f 267/268/13 265/269/13 256/242/13
f 273/270/15 274/280/15 276/271/15
f 269/270/18 270/280/18 274/273/18
f 271/275/9 275/271/9 276/272/9
f 269/277/17 273/270/17 275/272/17
f 270/279/13 272/381/13 276/271/13
f 281/270/15 282/280/15 284/271/15
f 277/270/18 278/280/18 282/273/18
f 279/275/9 283/271/9 284/272/9
f 277/277/17 281/270/17 283/272/17
f 278/279/13 280/381/13 284/271/13
f 289/281/15 290/290/15 292/282/15
f 285/281/18 286/290/18 290/284/18
f 287/286/9 291/282/9 292/283/9
f 285/288/17 289/281/17 291/283/17
f 286/277/13 288/278/13 292/282/13
f 297/270/15 298/280/15 300/271/15
f 293/270/18 294/280/18 298/273/18
f 295/275/9 299/271/9 300/272/9
f 293/277/17 297/270/17 299/272/17
f 294/279/13 296/381/13 300/271/13
f 305/281/15 306/290/15 308/282/15
f 301/281/18 302/290/18 306/284/18
f 303/286/9 307/282/9 308/283/9
f 301/288/17 305/281/17 307/283/17
f 302/277/13 304/278/13 308/282/13
f 309/291/11 311/294/11 312/292/11
f 313/293/15 314/291/15 316/294/15
f 309/293/18 310/291/18 314/294/18
f 311/294/9 315/292/9 316/293/9
f 310/291/13 312/294/13 316/292/13
f 328/295/46 318/307/46 319/296/46
f 317/297/47 319/296/47 321/298/47
f 320/300/11 321/382/11 323/301/11
f 322/302/48 323/301/48 325/303/48
f 324/304/49 325/303/49 327/305/49
f 326/306/15 327/305/15 318/307/15
f 329/308/11 331/383/11 332/309/11
f 333/311/15 334/384/15 336/312/15
f 329/314/50 330/323/50 334/315/50
f 331/317/51 335/385/51 336/318/51
f 337/320/52 338/386/52 340/321/52
f 330/315/53 332/385/53 336/317/53
f 337/324/59 339/387/59 331/325/59
f 337/322/50 329/314/50 333/316/50
f 338/327/60 333/388/60 335/328/60
f 340/330/51 335/318/51 331/319/51
f 343/332/13 344/336/13 342/333/13
f 345/335/14 346/338/14 344/336/14
f 347/337/15 348/340/15 346/338/15
f 349/339/16 350/342/16 348/340/16
f 351/341/17 352/343/17 350/342/17
f 355/332/17 353/334/17 354/333/17
f 357/335/10 355/332/10 356/336/10
f 359/337/11 357/335/11 358/338/11
f 361/339/12 359/337/12 360/340/12
f 363/341/13 361/339/13 362/342/13
