# Made in Blockbench 5.2.0
mtllib plushie_kris.mtl

o mesh
v 0.1875 0.6875 0.18125
v -0.1875 0.6875 0.18125
v -0.1875 0.3125 0.18125
v 0.1875 0.3125 0.18125
v -0.1875 0.3125 -0.19375
v -0.1875 0.6875 -0.19375
v 0.1875 0.6875 -0.19375
v 0.1875 0.3125 -0.19375
vt 0.375 0.8125
vt 0.1875 0.8125
vt 0.1875 0.625
vt 0.375 0.625
vt 0.75 0.625
vt 0.75 0.8125
vt 0.5625 0.8125
vt 0.5625 0.625
vt 0.1875 0.8125
vt 0.375 0.8125
vt 0.375 1.0
vt 0.1875 1.0
vt 0.375 0.625
vt 0.1875 0.625
vt 0.1875 0.4375
vt 0.375 0.4375
vt 0.1875 0.625
vt 0.1875 0.8125
vt 0.0 0.8125
vt 0.0 0.625
vt 0.5625 0.8125
vt 0.375 0.8125
vt 0.375 0.625
vt 0.5625 0.625
vn 0.0 0.0 1.0
vn 0.0 0.0 -1.0
vn 0.0 1.0 0.0
vn 0.0 -1.0 0.0
vn -1.0 0.0 0.0
vn 1.0 0.0 0.0
usemtl m_1b67e943-b654-4525-8ac3-e2027a8d2877
f 1/1/1 2/2/1 3/3/1 4/4/1
f 5/5/2 6/6/2 7/7/2 8/8/2
f 6/9/3 2/10/3 1/11/3 7/12/3
f 4/13/4 3/14/4 5/15/4 8/16/4
f 3/17/5 2/18/5 6/19/5 5/20/5
f 7/21/6 1/22/6 4/23/6 8/24/6
o mesh
v 0.125 0.3125 0.0875
v -0.125 0.3125 0.0875
v -0.125 0.0 0.0875
v 0.125 0.0 0.0875
v -0.125 0.0 -0.1
v -0.125 0.3125 -0.1
v 0.125 0.3125 -0.1
v 0.125 0.0 -0.1
vt 0.625 1.0
vt 0.5 1.0
vt 0.5 0.84375
vt 0.625 0.84375
vt 0.84375 0.84375
vt 0.84375 1.0
vt 0.71875 1.0
vt 0.71875 0.84375
vt 0.84375 0.875
vt 0.9375 0.875
vt 0.9375 1.0
vt 0.84375 1.0
vt 0.9375 0.75
vt 0.9375 0.875
vt 0.84375 0.875
vt 0.84375 0.75
vt 0.5 0.84375
vt 0.5 1.0
vt 0.40625 1.0
vt 0.40625 0.84375
vt 0.71875 1.0
vt 0.625 1.0
vt 0.625 0.84375
vt 0.71875 0.84375
vn 0.0 0.0 1.0
vn 0.0 0.0 -1.0
vn 0.0 1.0 0.0
vn 0.0 -1.0 0.0
vn -1.0 0.0 0.0
vn 1.0 0.0 0.0
usemtl m_1b67e943-b654-4525-8ac3-e2027a8d2877
f 9/25/7 10/26/7 11/27/7 12/28/7
f 13/29/8 14/30/8 15/31/8 16/32/8
f 14/33/9 10/34/9 9/35/9 15/36/9
f 12/37/10 11/38/10 13/39/10 16/40/10
f 11/41/11 10/42/11 14/43/11 13/44/11
f 15/45/12 9/46/12 12/47/12 16/48/12
o mesh
v -0.071137865611294 0.128125 0.25999027795716
v -0.186622807175205 0.128125 0.212154848911524
v -0.186622807175205 0.003125 0.212154848911524
v -0.071137865611294 0.003125 0.25999027795716
v -0.114869663606751 0.0 0.0389274365656579
v -0.114869663606751 0.125 0.0389274365656579
v 0.0006152779571603 0.125 0.0867628656112941
v 0.0006152779571603 0.0 0.0867628656112941
vt 0.46875 0.5
vt 0.40625 0.5
vt 0.40625 0.4375
vt 0.46875 0.4375
vt 0.46875 0.375
vt 0.46875 0.4375
vt 0.40625 0.4375
vt 0.40625 0.375
vt 0.46875 0.5
vt 0.46875 0.59375
vt 0.40625 0.59375
vt 0.40625 0.5
vt 0.53125 0.59375
vt 0.46875 0.59375
vt 0.46875 0.5
vt 0.53125 0.5
vt 0.46875 0.59375
vt 0.53125 0.59375
vt 0.53125 0.5
vt 0.46875 0.5
vt 0.53125 0.5
vt 0.53125 0.59375
vt 0.46875 0.59375
vt 0.46875 0.5
vn -0.38268343236509 0.0 0.923879532511287
vn 0.38268343236509 0.0 -0.923879532511287
vn 0.0063771715493136 0.9998611400396 -0.0153958540439333
vn -0.0063771715493139 -0.9998611400396 0.0153958540439334
vn -0.923879532511287 0.0 -0.38268343236509
vn 0.923879532511287 0.0 0.38268343236509
usemtl m_1b67e943-b654-4525-8ac3-e2027a8d2877
f 17/49/13 18/50/13 19/51/13 20/52/13
f 21/53/14 22/54/14 23/55/14 24/56/14
f 22/57/15 18/58/15 17/59/15 23/60/15
f 20/61/16 19/62/16 21/63/16 24/64/16
f 19/65/17 18/66/17 22/67/17 21/68/17
f 23/69/18 17/70/18 20/71/18 24/72/18
o mesh
v -0.09375 0.3125 0.05625
v -0.21875 0.3125 0.05625
v -0.21875 0.125 0.05625
v -0.09375 0.125 0.05625
v -0.21875 0.125 -0.06875
v -0.21875 0.3125 -0.06875
v -0.09375 0.3125 -0.06875
v -0.09375 0.125 -0.06875
vt 0.59375 0.59375
vt 0.53125 0.59375
vt 0.53125 0.5
vt 0.59375 0.5
vt 0.65625 0.5
vt 0.65625 0.59375
vt 0.59375 0.59375
vt 0.59375 0.5
vt 0.53125 0.4375
vt 0.59375 0.4375
vt 0.59375 0.5
vt 0.53125 0.5
vt 0.59375 0.375
vt 0.59375 0.4375
vt 0.53125 0.4375
vt 0.53125 0.375
vt 0.65625 0.5
vt 0.65625 0.59375
vt 0.59375 0.59375
vt 0.59375 0.5
vt 0.65625 0.59375
vt 0.59375 0.59375
vt 0.59375 0.5
vt 0.65625 0.5
vn 0.0 0.0 1.0
vn 0.0 0.0 -1.0
vn 0.0 1.0 0.0
vn 0.0 -1.0 0.0
vn -1.0 0.0 0.0
vn 1.0 0.0 0.0
usemtl m_1b67e943-b654-4525-8ac3-e2027a8d2877
f 25/73/19 26/74/19 27/75/19 28/76/19
f 29/77/20 30/78/20 31/79/20 32/80/20
f 30/81/21 26/82/21 25/83/21 31/84/21
f 28/85/22 27/86/22 29/87/22 32/88/22
f 27/89/23 26/90/23 30/91/23 29/92/23
f 31/93/24 25/94/24 28/95/24 32/96/24
o mesh
v 0.21875 0.3125 0.05625
v 0.09375 0.3125 0.05625
v 0.09375 0.125 0.05625
v 0.21875 0.125 0.05625
v 0.09375 0.125 -0.06875
v 0.09375 0.3125 -0.06875
v 0.21875 0.3125 -0.06875
v 0.21875 0.125 -0.06875
vt 0.59375 0.59375
vt 0.53125 0.59375
vt 0.53125 0.5
vt 0.59375 0.5
vt 0.65625 0.5
vt 0.65625 0.59375
vt 0.59375 0.59375
vt 0.59375 0.5
vt 0.53125 0.5
vt 0.59375 0.5
vt 0.59375 0.4375
vt 0.53125 0.4375
vt 0.59375 0.4375
vt 0.59375 0.375
vt 0.53125 0.375
vt 0.53125 0.4375
vt 0.65625 0.5
vt 0.65625 0.59375
vt 0.59375 0.59375
vt 0.59375 0.5
vt 0.65625 0.59375
vt 0.59375 0.59375
vt 0.59375 0.5
vt 0.65625 0.5
vn 0.0 0.0 1.0
vn 0.0 0.0 -1.0
vn 0.0 1.0 0.0
vn 0.0 -1.0 0.0
vn -1.0 0.0 0.0
vn 1.0 0.0 0.0
usemtl m_1b67e943-b654-4525-8ac3-e2027a8d2877
f 33/97/25 34/98/25 35/99/25 36/100/25
f 37/101/26 38/102/26 39/103/26 40/104/26
f 38/105/27 34/106/27 33/107/27 39/108/27
f 36/109/28 35/110/28 37/111/28 40/112/28
f 35/113/29 34/114/29 38/115/29 37/116/29
f 39/117/30 33/118/30 36/119/30 40/120/30
o mesh
v 0.186622807175205 0.128125 0.212154848911524
v 0.0711378656112941 0.128125 0.25999027795716
v 0.0711378656112941 0.003125 0.25999027795716
v 0.186622807175205 0.003125 0.212154848911524
v -0.0006152779571603 0.0 0.0867628656112941
v -0.0006152779571603 0.125 0.0867628656112941
v 0.114869663606751 0.125 0.0389274365656578
v 0.114869663606751 0.0 0.0389274365656578
vt 0.46875 0.5
vt 0.40625 0.5
vt 0.40625 0.4375
vt 0.46875 0.4375
vt 0.46875 0.375
vt 0.46875 0.4375
vt 0.40625 0.4375
vt 0.40625 0.375
vt 0.46875 0.5
vt 0.46875 0.59375
vt 0.40625 0.59375
vt 0.40625 0.5
vt 0.46875 0.59375
vt 0.53125 0.59375
vt 0.53125 0.5
vt 0.46875 0.5
vt 0.46875 0.59375
vt 0.53125 0.59375
vt 0.53125 0.5
vt 0.46875 0.5
vt 0.53125 0.5
vt 0.53125 0.59375
vt 0.46875 0.59375
vt 0.46875 0.5
vn 0.38268343236509 0.0 0.923879532511287
vn -0.38268343236509 0.0 -0.923879532511287
vn -0.0063771715493138 0.9998611400396 -0.0153958540439332
vn 0.0063771715493139 -0.9998611400396 0.0153958540439334
vn -0.923879532511287 0.0 0.38268343236509
vn 0.923879532511287 0.0 -0.38268343236509
usemtl m_1b67e943-b654-4525-8ac3-e2027a8d2877
f 41/121/31 42/122/31 43/123/31 44/124/31
f 45/125/32 46/126/32 47/127/32 48/128/32
f 46/129/33 42/130/33 41/131/33 47/132/33
f 44/133/34 43/134/34 45/135/34 48/136/34
f 43/137/35 42/138/35 46/139/35 45/140/35
f 47/141/36 41/142/36 44/143/36 48/144/36
o mesh
v 0.203125 0.703125 0.196875
v -0.203125 0.703125 0.196875
v -0.203125 0.296875 0.196875
v 0.203125 0.296875 0.196875
v -0.203125 0.296875 -0.209375
v -0.203125 0.703125 -0.209375
v 0.203125 0.703125 -0.209375
v 0.203125 0.296875 -0.209375
vt 0.375 0.375
vt 0.1875 0.375
vt 0.1875 0.1875
vt 0.375 0.1875
vt 0.75 0.1875
vt 0.75 0.375
vt 0.5625 0.375
vt 0.5625 0.1875
vt 0.0 0.0
vt 0.1875 0.0
vt 0.1875 0.1875
vt 0.0 0.1875
vt 0.375 0.1875
vt 0.1875 0.1875
vt 0.1875 0.0
vt 0.375 0.0
vt 0.1875 0.1875
vt 0.1875 0.375
vt 0.0 0.375
vt 0.0 0.1875
vt 0.5625 0.375
vt 0.375 0.375
vt 0.375 0.1875
vt 0.5625 0.1875
vn 0.0 0.0 1.0
vn 0.0 0.0 -1.0
vn 0.0 1.0 0.0
vn 0.0 -1.0 0.0
vn -1.0 0.0 0.0
vn 1.0 0.0 0.0
usemtl m_1b67e943-b654-4525-8ac3-e2027a8d2877
f 49/145/37 50/146/37 51/147/37 52/148/37
f 53/149/38 54/150/38 55/151/38 56/152/38
f 54/153/39 50/154/39 49/155/39 55/156/39
f 52/157/40 51/158/40 53/159/40 56/160/40
f 51/161/41 50/162/41 54/163/41 53/164/41
f 55/165/42 49/166/42 52/167/42 56/168/42
o plane
v 0.140625 0.234375 -0.209375
v 0.140625 0.371875 -0.209375
v 0.328125 0.371875 -0.209375
v 0.328125 0.234375 -0.209375
vt 0.84375 0.3125
vt 0.84375 0.375
vt 0.75 0.375
vt 0.75 0.3125
vn 0.0 0.0 -1.0
usemtl m_1b67e943-b654-4525-8ac3-e2027a8d2877
f 57/169/43 58/170/43 59/171/43 60/172/43
o plane
v -0.328125 0.371875000000001 -0.209375
v -0.140625 0.371875000000001 -0.209375
v -0.140625 0.234375000000001 -0.209375
v -0.328125 0.234375000000001 -0.209375
vt 0.75 0.375
vt 0.84375 0.375
vt 0.84375 0.3125
vt 0.75 0.3125
vn 0.0 0.0 -1.0
usemtl m_1b67e943-b654-4525-8ac3-e2027a8d2877
f 61/173/44 62/174/44 63/175/44 64/176/44
o plane
v 0.225 0.340624999999999 0.203125
v 0.225 0.528124999999999 0.203125
v 0.0375000000000004 0.528125 0.203125
v 0.0375000000000001 0.340625 0.203125
vt 0.765625 0.640625
vt 0.765625 0.734375
vt 0.859375 0.734375
vt 0.859375 0.640625
vn 0.0 0.0 1.0
usemtl m_1b67e943-b654-4525-8ac3-e2027a8d2877
f 65/177/45 66/178/45 67/179/45 68/180/45
o plane
v -0.0374999999999995 0.528125 0.203125
v -0.225 0.528125 0.203125
v -0.225 0.340625 0.203125
v -0.0374999999999999 0.340625 0.203125
vt 0.859375 0.734375
vt 0.765625 0.734375
vt 0.765625 0.640625
vt 0.859375 0.640625
vn 0.0 0.0 1.0
usemtl m_1b67e943-b654-4525-8ac3-e2027a8d2877
f 69/181/46 70/182/46 71/183/46 72/184/46
o plane
v -0.0374999999999998 0.403125 0.203125
v -0.0374999999999997 0.465625 0.203125
v 0.0375000000000003 0.465625 0.203125
v 0.0375000000000002 0.403125 0.203125
vt 0.81875 0.6875
vt 0.81875 0.71875
vt 0.78125 0.71875
vt 0.78125 0.6875
vn 0.0 0.0 -1.0
usemtl m_1b67e943-b654-4525-8ac3-e2027a8d2877
f 73/185/47 74/186/47 75/187/47 76/188/47
o plane
v 0.140625 0.296875 -0.146875
v 0.140625 0.434375 -0.146875
v 0.328125 0.434375 -0.146875
v 0.328125 0.296875 -0.146875
vt 0.84375 0.3125
vt 0.84375 0.375
vt 0.75 0.375
vt 0.75 0.3125
vn 0.0 0.0 -1.0
usemtl m_1b67e943-b654-4525-8ac3-e2027a8d2877
f 77/189/48 78/190/48 79/191/48 80/192/48
o plane
v -0.328125 0.434375000000001 -0.146875
v -0.140625 0.434375000000001 -0.146875
v -0.140625 0.296875 -0.146875
v -0.328125 0.296875000000001 -0.146875
vt 0.75 0.375
vt 0.84375 0.375
vt 0.84375 0.3125
vt 0.75 0.3125
vn 0.0 0.0 -1.0
usemtl m_1b67e943-b654-4525-8ac3-e2027a8d2877
f 81/193/49 82/194/49 83/195/49 84/196/49
o plane
v -0.140625 0.434375000000001 -0.146874999999999
v -0.328125 0.434375000000001 -0.146874999999999
v -0.328125 0.296875000000001 -0.146875
v -0.140625 0.296875 -0.146875
vt 0.84375 0.375
vt 0.75 0.375
vt 0.75 0.3125
vt 0.84375 0.3125
vn 0.0 0.0 1.0
usemtl m_1b67e943-b654-4525-8ac3-e2027a8d2877
f 85/197/50 86/198/50 87/199/50 88/200/50
o plane
v -0.140625 0.371875000000001 -0.209375
v -0.328125 0.371875000000001 -0.209375
v -0.328125 0.234375000000001 -0.209375
v -0.140625 0.234375000000001 -0.209375
vt 0.84375 0.375
vt 0.75 0.375
vt 0.75 0.3125
vt 0.84375 0.3125
vn 0.0 0.0 1.0
usemtl m_1b67e943-b654-4525-8ac3-e2027a8d2877
f 89/201/51 90/202/51 91/203/51 92/204/51
o plane
v 0.328125 0.296875 -0.146875
v 0.328125 0.434375 -0.146875
v 0.140625 0.434375 -0.146875
v 0.140625 0.296875 -0.146875
vt 0.75 0.3125
vt 0.75 0.375
vt 0.84375 0.375
vt 0.84375 0.3125
vn 0.0 0.0 1.0
usemtl m_1b67e943-b654-4525-8ac3-e2027a8d2877
f 93/205/52 94/206/52 95/207/52 96/208/52
o plane
v 0.328125 0.234375 -0.209375
v 0.328125 0.371875 -0.209375
v 0.140625 0.371875 -0.209375
v 0.140625 0.234375 -0.209375
vt 0.75 0.3125
vt 0.75 0.375
vt 0.84375 0.375
vt 0.84375 0.3125
vn 0.0 0.0 1.0
usemtl m_1b67e943-b654-4525-8ac3-e2027a8d2877
f 97/209/53 98/210/53 99/211/53 100/212/53
o plane
v 0.0375000000000002 0.403125 0.203125
v 0.0375000000000003 0.465625 0.203125
v -0.0374999999999997 0.465625 0.203125
v -0.0374999999999998 0.403125 0.203125
vt 0.81875 0.6875
vt 0.81875 0.71875
vt 0.78125 0.71875
vt 0.78125 0.6875
vn 0.0 0.0 1.0
usemtl m_1b67e943-b654-4525-8ac3-e2027a8d2877
f 101/213/54 102/214/54 103/215/54 104/216/54
o plane
v 0.0375000000000004 0.528125 0.203125000000001
v 0.225 0.528124999999999 0.203125000000001
v 0.225 0.340624999999999 0.203125
v 0.0375000000000001 0.340625 0.203125
vt 0.859375 0.734375
vt 0.765625 0.734375
vt 0.765625 0.640625
vt 0.859375 0.640625
vn 0.0 0.0 -1.0
usemtl m_1b67e943-b654-4525-8ac3-e2027a8d2877
f 105/217/55 106/218/55 107/219/55 108/220/55
o plane
v -0.225 0.340625 0.203125
v -0.225 0.528125 0.203125000000001
v -0.0374999999999995 0.528125 0.203125000000001
v -0.0374999999999999 0.340625 0.203125
vt 0.765625 0.640625
vt 0.765625 0.734375
vt 0.859375 0.734375
vt 0.859375 0.640625
vn 0.0 0.0 -1.0
usemtl m_1b67e943-b654-4525-8ac3-e2027a8d2877
f 109/221/56 110/222/56 111/223/56 112/224/56
o mesh
v 0.203125 0.703125 0.196875
v -0.203125 0.703125 0.196875
v -0.203125 0.296875 0.196875
v 0.203125 0.296875 0.196875
v -0.203125 0.296875 -0.209375
v -0.203125 0.703125 -0.209375
v 0.203125 0.703125 -0.209375
v 0.203125 0.296875 -0.209375
vt 0.375 0.375
vt 0.1875 0.375
vt 0.1875 0.1875
vt 0.375 0.1875
vt 0.75 0.1875
vt 0.75 0.375
vt 0.5625 0.375
vt 0.5625 0.1875
vt 0.0 0.0
vt 0.1875 0.0
vt 0.1875 0.1875
vt 0.0 0.1875
vt 0.375 0.1875
vt 0.1875 0.1875
vt 0.1875 0.0
vt 0.375 0.0
vt 0.1875 0.1875
vt 0.1875 0.375
vt 0.0 0.375
vt 0.0 0.1875
vt 0.5625 0.375
vt 0.375 0.375
vt 0.375 0.1875
vt 0.5625 0.1875
vn 0.0 0.0 1.0
vn 0.0 0.0 -1.0
vn 0.0 1.0 0.0
vn 0.0 -1.0 0.0
vn -1.0 0.0 0.0
vn 1.0 0.0 0.0
usemtl m_1b67e943-b654-4525-8ac3-e2027a8d2877
f 113/225/57 114/226/57 115/227/57 116/228/57
f 117/229/58 118/230/58 119/231/58 120/232/58
f 118/233/59 114/234/59 113/235/59 119/236/59
f 116/237/60 115/238/60 117/239/60 120/240/60
f 115/241/61 114/242/61 118/243/61 117/244/61
f 119/245/62 113/246/62 116/247/62 120/248/62
o mesh
v 0.203125 0.703125 0.196875
v -0.203125 0.703125 0.196875
v -0.203125 0.296875 0.196875
v 0.203125 0.296875 0.196875
v -0.203125 0.296875 -0.209375
v -0.203125 0.703125 -0.209375
v 0.203125 0.703125 -0.209375
v 0.203125 0.296875 -0.209375
vt 0.375 0.375
vt 0.1875 0.375
vt 0.1875 0.1875
vt 0.375 0.1875
vt 0.75 0.1875
vt 0.75 0.375
vt 0.5625 0.375
vt 0.5625 0.1875
vt 0.0 0.0
vt 0.1875 0.0
vt 0.1875 0.1875
vt 0.0 0.1875
vt 0.375 0.1875
vt 0.1875 0.1875
vt 0.1875 0.0
vt 0.375 0.0
vt 0.1875 0.1875
vt 0.1875 0.375
vt 0.0 0.375
vt 0.0 0.1875
vt 0.5625 0.375
vt 0.375 0.375
vt 0.375 0.1875
vt 0.5625 0.1875
vn 0.0 0.0 1.0
vn 0.0 0.0 -1.0
vn 0.0 1.0 0.0
vn 0.0 -1.0 0.0
vn -1.0 0.0 0.0
vn 1.0 0.0 0.0
usemtl m_1b67e943-b654-4525-8ac3-e2027a8d2877
f 121/249/63 122/250/63 123/251/63 124/252/63
f 125/253/64 126/254/64 127/255/64 128/256/64
f 126/257/65 122/258/65 121/259/65 127/260/65
f 124/261/66 123/262/66 125/263/66 128/264/66
f 123/265/67 122/266/67 126/267/67 125/268/67
f 127/269/68 121/270/68 124/271/68 128/272/68
o mesh
v 0.203125 0.703125 0.196875
v -0.203125 0.703125 0.196875
v -0.203125 0.296875 0.196875
v 0.203125 0.296875 0.196875
v -0.203125 0.296875 -0.209375
v -0.203125 0.703125 -0.209375
v 0.203125 0.703125 -0.209375
v 0.203125 0.296875 -0.209375
vt 0.375 0.375
vt 0.1875 0.375
vt 0.1875 0.1875
vt 0.375 0.1875
vt 0.75 0.1875
vt 0.75 0.375
vt 0.5625 0.375
vt 0.5625 0.1875
vt 0.0 0.0
vt 0.1875 0.0
vt 0.1875 0.1875
vt 0.0 0.1875
vt 0.375 0.1875
vt 0.1875 0.1875
vt 0.1875 0.0
vt 0.375 0.0
vt 0.1875 0.1875
vt 0.1875 0.375
vt 0.0 0.375
vt 0.0 0.1875
vt 0.5625 0.375
vt 0.375 0.375
vt 0.375 0.1875
vt 0.5625 0.1875
vn 0.0 0.0 1.0
vn 0.0 0.0 -1.0
vn 0.0 1.0 0.0
vn 0.0 -1.0 0.0
vn -1.0 0.0 0.0
vn 1.0 0.0 0.0
usemtl m_1b67e943-b654-4525-8ac3-e2027a8d2877
f 129/273/69 130/274/69 131/275/69 132/276/69
f 133/277/70 134/278/70 135/279/70 136/280/70
f 134/281/71 130/282/71 129/283/71 135/284/71
f 132/285/72 131/286/72 133/287/72 136/288/72
f 131/289/73 130/290/73 134/291/73 133/292/73
f 135/293/74 129/294/74 132/295/74 136/296/74
o mesh
v 0.203125 0.703125 0.196875
v -0.203125 0.703125 0.196875
v -0.203125 0.296875 0.196875
v 0.203125 0.296875 0.196875
v -0.203125 0.296875 -0.209375
v -0.203125 0.703125 -0.209375
v 0.203125 0.703125 -0.209375
v 0.203125 0.296875 -0.209375
vt 0.375 0.375
vt 0.1875 0.375
vt 0.1875 0.1875
vt 0.375 0.1875
vt 0.75 0.1875
vt 0.75 0.375
vt 0.5625 0.375
vt 0.5625 0.1875
vt 0.0 0.0
vt 0.1875 0.0
vt 0.1875 0.1875
vt 0.0 0.1875
vt 0.375 0.1875
vt 0.1875 0.1875
vt 0.1875 0.0
vt 0.375 0.0
vt 0.1875 0.1875
vt 0.1875 0.375
vt 0.0 0.375
vt 0.0 0.1875
vt 0.5625 0.375
vt 0.375 0.375
vt 0.375 0.1875
vt 0.5625 0.1875
vn 0.0 0.0 1.0
vn 0.0 0.0 -1.0
vn 0.0 1.0 0.0
vn 0.0 -1.0 0.0
vn -1.0 0.0 0.0
vn 1.0 0.0 0.0
usemtl m_1b67e943-b654-4525-8ac3-e2027a8d2877
f 137/297/75 138/298/75 139/299/75 140/300/75
f 141/301/76 142/302/76 143/303/76 144/304/76
f 142/305/77 138/306/77 137/307/77 143/308/77
f 140/309/78 139/310/78 141/311/78 144/312/78
f 139/313/79 138/314/79 142/315/79 141/316/79
f 143/317/80 137/318/80 140/319/80 144/320/80
o mesh
v 0.203125 0.703125 0.196875
v -0.203125 0.703125 0.196875
v -0.203125 0.296875 0.196875
v 0.203125 0.296875 0.196875
v -0.203125 0.296875 -0.209375
v -0.203125 0.703125 -0.209375
v 0.203125 0.703125 -0.209375
v 0.203125 0.296875 -0.209375
vt 0.375 0.375
vt 0.1875 0.375
vt 0.1875 0.1875
vt 0.375 0.1875
vt 0.75 0.1875
vt 0.75 0.375
vt 0.5625 0.375
vt 0.5625 0.1875
vt 0.0 0.0
vt 0.1875 0.0
vt 0.1875 0.1875
vt 0.0 0.1875
vt 0.375 0.1875
vt 0.1875 0.1875
vt 0.1875 0.0
vt 0.375 0.0
vt 0.1875 0.1875
vt 0.1875 0.375
vt 0.0 0.375
vt 0.0 0.1875
vt 0.5625 0.375
vt 0.375 0.375
vt 0.375 0.1875
vt 0.5625 0.1875
vn 0.0 0.0 1.0
vn 0.0 0.0 -1.0
vn 0.0 1.0 0.0
vn 0.0 -1.0 0.0
vn -1.0 0.0 0.0
vn 1.0 0.0 0.0
usemtl m_1b67e943-b654-4525-8ac3-e2027a8d2877
f 145/321/81 146/322/81 147/323/81 148/324/81
f 149/325/82 150/326/82 151/327/82 152/328/82
f 150/329/83 146/330/83 145/331/83 151/332/83
f 148/333/84 147/334/84 149/335/84 152/336/84
f 147/337/85 146/338/85 150/339/85 149/340/85
f 151/341/86 145/342/86 148/343/86 152/344/86
o mesh
v 0.203125 0.703125 0.196875
v -0.203125 0.703125 0.196875
v -0.203125 0.296875 0.196875
v 0.203125 0.296875 0.196875
v -0.203125 0.296875 -0.209375
v -0.203125 0.703125 -0.209375
v 0.203125 0.703125 -0.209375
v 0.203125 0.296875 -0.209375
vt 0.375 0.375
vt 0.1875 0.375
vt 0.1875 0.1875
vt 0.375 0.1875
vt 0.75 0.1875
vt 0.75 0.375
vt 0.5625 0.375
vt 0.5625 0.1875
vt 0.0 0.0
vt 0.1875 0.0
vt 0.1875 0.1875
vt 0.0 0.1875
vt 0.375 0.1875
vt 0.1875 0.1875
vt 0.1875 0.0
vt 0.375 0.0
vt 0.1875 0.1875
vt 0.1875 0.375
vt 0.0 0.375
vt 0.0 0.1875
vt 0.5625 0.375
vt 0.375 0.375
vt 0.375 0.1875
vt 0.5625 0.1875
vn 0.0 0.0 1.0
vn 0.0 0.0 -1.0
vn 0.0 1.0 0.0
vn 0.0 -1.0 0.0
vn -1.0 0.0 0.0
vn 1.0 0.0 0.0
usemtl m_1b67e943-b654-4525-8ac3-e2027a8d2877
f 153/345/87 154/346/87 155/347/87 156/348/87
f 157/349/88 158/350/88 159/351/88 160/352/88
f 158/353/89 154/354/89 153/355/89 159/356/89
f 156/357/90 155/358/90 157/359/90 160/360/90
f 155/361/91 154/362/91 158/363/91 157/364/91
f 159/365/92 153/366/92 156/367/92 160/368/92
o mesh
v 0.203125 0.703125 0.196875
v -0.203125 0.703125 0.196875
v -0.203125 0.296875 0.196875
v 0.203125 0.296875 0.196875
v -0.203125 0.296875 -0.209375
v -0.203125 0.703125 -0.209375
v 0.203125 0.703125 -0.209375
v 0.203125 0.296875 -0.209375
vt 0.375 0.375
vt 0.1875 0.375
vt 0.1875 0.1875
vt 0.375 0.1875
vt 0.75 0.1875
vt 0.75 0.375
vt 0.5625 0.375
vt 0.5625 0.1875
vt 0.0 0.0
vt 0.1875 0.0
vt 0.1875 0.1875
vt 0.0 0.1875
vt 0.375 0.1875
vt 0.1875 0.1875
vt 0.1875 0.0
vt 0.375 0.0
vt 0.1875 0.1875
vt 0.1875 0.375
vt 0.0 0.375
vt 0.0 0.1875
vt 0.5625 0.375
vt 0.375 0.375
vt 0.375 0.1875
vt 0.5625 0.1875
vn 0.0 0.0 1.0
vn 0.0 0.0 -1.0
vn 0.0 1.0 0.0
vn 0.0 -1.0 0.0
vn -1.0 0.0 0.0
vn 1.0 0.0 0.0
usemtl m_1b67e943-b654-4525-8ac3-e2027a8d2877
f 161/369/93 162/370/93 163/371/93 164/372/93
f 165/373/94 166/374/94 167/375/94 168/376/94
f 166/377/95 162/378/95 161/379/95 167/380/95
f 164/381/96 163/382/96 165/383/96 168/384/96
f 163/385/97 162/386/97 166/387/97 165/388/97
f 167/389/98 161/390/98 164/391/98 168/392/98
o mesh
v 0.203125 0.703125 0.196875
v -0.203125 0.703125 0.196875
v -0.203125 0.296875 0.196875
v 0.203125 0.296875 0.196875
v -0.203125 0.296875 -0.209375
v -0.203125 0.703125 -0.209375
v 0.203125 0.703125 -0.209375
v 0.203125 0.296875 -0.209375
vt 0.375 0.375
vt 0.1875 0.375
vt 0.1875 0.1875
vt 0.375 0.1875
vt 0.75 0.1875
vt 0.75 0.375
vt 0.5625 0.375
vt 0.5625 0.1875
vt 0.0 0.0
vt 0.1875 0.0
vt 0.1875 0.1875
vt 0.0 0.1875
vt 0.375 0.1875
vt 0.1875 0.1875
vt 0.1875 0.0
vt 0.375 0.0
vt 0.1875 0.1875
vt 0.1875 0.375
vt 0.0 0.375
vt 0.0 0.1875
vt 0.5625 0.375
vt 0.375 0.375
vt 0.375 0.1875
vt 0.5625 0.1875
vn 0.0 0.0 1.0
vn 0.0 0.0 -1.0
vn 0.0 1.0 0.0
vn 0.0 -1.0 0.0
vn -1.0 0.0 0.0
vn 1.0 0.0 0.0
usemtl m_1b67e943-b654-4525-8ac3-e2027a8d2877
f 169/393/99 170/394/99 171/395/99 172/396/99
f 173/397/100 174/398/100 175/399/100 176/400/100
f 174/401/101 170/402/101 169/403/101 175/404/101
f 172/405/102 171/406/102 173/407/102 176/408/102
f 171/409/103 170/410/103 174/411/103 173/412/103
f 175/413/104 169/414/104 172/415/104 176/416/104
