# Blender 4.4.3
# www.blender.org
mtllib Untitled.mtl
o mesh
v -0.250000 0.000000 0.000000
v -0.250000 0.250000 0.000000
v 0.429731 -0.000000 -0.316964
v 0.429731 0.250000 -0.316964
v -0.355655 0.000000 -0.226577
v -0.355655 0.250000 -0.226577
v 0.324076 -0.000000 -0.543541
v 0.324076 0.250000 -0.543541
v -0.355655 0.000000 0.226577
v -0.355655 0.250000 0.226577
v 0.324076 -0.000000 0.543541
v 0.324076 0.250000 0.543541
v -0.250000 0.000000 0.000000
v -0.250000 0.250000 0.000000
v 0.429731 -0.000000 0.316964
v 0.429731 0.250000 0.316964
v -0.375000 0.875000 0.250000
v -0.125000 0.875000 0.250000
v -0.375000 0.125000 0.250000
v -0.125000 0.125000 0.250000
v -0.375000 0.875000 -0.250000
v -0.125000 0.875000 -0.250000
v -0.375000 0.125000 -0.250000
v -0.125000 0.125000 -0.250000
v -0.420519 0.819904 0.488630
v -0.193942 0.925558 0.488630
v -0.104761 0.142760 0.553997
v 0.121816 0.248414 0.553997
v -0.411310 0.800156 0.239581
v -0.184734 0.905811 0.239581
v -0.095553 0.123012 0.304948
v 0.131024 0.228667 0.304948
v -0.411310 0.800156 -0.239581
v -0.184734 0.905811 -0.239581
v -0.095553 0.123012 -0.304948
v 0.131024 0.228667 -0.304948
v -0.420519 0.819904 -0.488630
v -0.193942 0.925558 -0.488630
v -0.104761 0.142760 -0.553997
v 0.121816 0.248414 -0.553997
v -0.500000 1.375000 0.250000
v 0.000000 1.375000 0.250000
v -0.500000 0.875000 0.250000
v 0.000000 0.875000 0.250000
v -0.500000 1.375000 -0.250000
v 0.000000 1.375000 -0.250000
v -0.500000 0.875000 -0.250000
v 0.000000 0.875000 -0.250000
v -0.531250 1.406250 0.281250
v 0.031250 1.406250 0.281250
v -0.531250 0.843750 0.281250
v 0.031250 0.843750 0.281250
v -0.531250 1.406250 -0.281250
v 0.031250 1.406250 -0.281250
v -0.531250 0.843750 -0.281250
v 0.031250 0.843750 -0.281250
vn 0.4226 -0.0000 0.9063
vn -0.4226 -0.0000 -0.9063
vn -0.9063 -0.0000 0.4226
vn 0.9063 -0.0000 -0.4226
vn -0.0000 -1.0000 -0.0000
vn -0.0000 1.0000 -0.0000
vn -0.4226 -0.0000 0.9063
vn 0.4226 -0.0000 -0.9063
vn -0.9063 -0.0000 -0.4226
vn 0.9063 -0.0000 0.4226
vn -0.0000 -0.0000 1.0000
vn -0.0000 -0.0000 -1.0000
vn -1.0000 -0.0000 -0.0000
vn 1.0000 -0.0000 -0.0000
vn -0.0368 0.0790 0.9962
vn 0.0368 -0.0790 -0.9962
vn -0.4210 0.9029 -0.0872
vn 0.4210 -0.9029 0.0872
vn -0.9063 -0.4226 -0.0000
vn 0.9063 0.4226 -0.0000
vn 0.0368 -0.0790 0.9962
vn -0.0368 0.0790 -0.9962
vn -0.4210 0.9029 0.0872
vn 0.4210 -0.9029 -0.0872
vt 0.062500 0.687500
vt 0.000000 0.687500
vt 0.000000 0.500000
vt 0.062500 0.500000
vt 0.187500 0.500000
vt 0.187500 0.687500
vt 0.125000 0.687500
vt 0.125000 0.500000
vt 0.125000 0.750000
vt 0.062500 0.750000
vt 0.187500 0.750000
vt 0.250000 0.500000
vt 0.250000 0.687500
vt 0.312500 0.687500
vt 0.312500 0.500000
vt 0.500000 0.500000
vt 0.500000 0.687500
vt 0.437500 0.687500
vt 0.437500 0.500000
vt 0.437500 0.750000
vt 0.312500 0.750000
vt 0.562500 0.687500
vt 0.562500 0.750000
vt 0.625000 0.500000
vt 0.625000 0.687500
vt 0.562500 0.187500
vt 0.500000 0.187500
vt 0.500000 0.000000
vt 0.562500 0.000000
vt 0.687500 0.000000
vt 0.687500 0.187500
vt 0.625000 0.187500
vt 0.625000 0.000000
vt 0.625000 0.250000
vt 0.562500 0.250000
vt 0.687500 0.250000
vt 0.750000 0.000000
vt 0.750000 0.187500
vt 0.687500 0.687500
vt 0.687500 0.500000
vt 0.812500 0.500000
vt 0.812500 0.687500
vt 0.750000 0.687500
vt 0.750000 0.500000
vt 0.750000 0.750000
vt 0.687500 0.750000
vt 0.812500 0.750000
vt 0.875000 0.500000
vt 0.875000 0.687500
vt 0.125000 0.875000
vt 0.000000 0.875000
vt 0.000000 0.750000
vt 0.375000 0.750000
vt 0.375000 0.875000
vt 0.250000 0.875000
vt 0.250000 0.750000
vt 0.250000 1.000000
vt 0.125000 1.000000
vt 0.375000 1.000000
vt 0.500000 0.750000
vt 0.500000 0.875000
vt 0.625000 0.875000
vt 0.625000 0.750000
vt 0.875000 0.750000
vt 0.875000 0.875000
vt 0.750000 0.875000
vt 0.750000 1.000000
vt 0.625000 1.000000
vt 0.875000 1.000000
vt 1.000000 0.750000
vt 1.000000 0.875000
s 1
usemtl m_ff17f0bd-d977-08d4-5baa-dd189f6b630f
f 2/1/1 1/2/1 3/3/1
f 2/1/1 3/3/1 4/4/1
f 7/5/2 5/6/2 6/7/2
f 7/5/2 6/7/2 8/8/2
f 5/1/3 1/7/3 2/9/3
f 5/1/3 2/9/3 6/10/3
f 4/7/4 3/9/4 7/11/4
f 4/7/4 7/11/4 8/6/4
f 3/12/5 1/13/5 5/6/5
f 3/12/5 5/6/5 7/5/5
f 6/7/6 2/1/6 4/4/6
f 6/7/6 4/4/6 8/8/6
f 10/1/7 9/2/7 11/3/7
f 10/1/7 11/3/7 12/4/7
f 15/5/8 13/6/8 14/7/8
f 15/5/8 14/7/8 16/8/8
f 13/1/9 9/7/9 10/9/9
f 13/1/9 10/9/9 14/10/9
f 12/7/10 11/9/10 15/11/10
f 12/7/10 15/11/10 16/6/10
f 11/12/5 9/13/5 13/6/5
f 11/12/5 13/6/5 15/5/5
f 14/7/6 10/1/6 12/4/6
f 14/7/6 12/4/6 16/8/6
f 18/14/11 17/13/11 19/12/11
f 18/14/11 19/12/11 20/15/11
f 23/16/12 21/17/12 22/18/12
f 23/16/12 22/18/12 24/19/12
f 21/14/6 17/18/6 18/20/6
f 21/14/6 18/20/6 22/21/6
f 20/22/5 19/23/5 23/20/5
f 20/22/5 23/20/5 24/18/5
f 19/24/13 17/25/13 21/17/13
f 19/24/13 21/17/13 23/16/13
f 22/18/14 18/14/14 20/15/14
f 22/18/14 20/15/14 24/19/14
f 26/26/15 25/27/15 27/28/15
f 26/26/15 27/28/15 28/29/15
f 31/30/16 29/31/16 30/32/16
f 31/30/16 30/32/16 32/33/16
f 29/26/17 25/32/17 26/34/17
f 29/26/17 26/34/17 30/35/17
f 28/31/18 27/36/18 31/34/18
f 28/31/18 31/34/18 32/32/18
f 27/37/19 25/38/19 29/31/19
f 27/37/19 29/31/19 31/30/19
f 30/32/20 26/26/20 28/29/20
f 30/32/20 28/29/20 32/33/20
f 34/39/21 33/25/21 35/24/21
f 34/39/21 35/24/21 36/40/21
f 39/41/22 37/42/22 38/43/22
f 39/41/22 38/43/22 40/44/22
f 37/39/23 33/43/23 34/45/23
f 37/39/23 34/45/23 38/46/23
f 36/42/24 35/47/24 39/45/24
f 36/42/24 39/45/24 40/43/24
f 35/48/19 33/49/19 37/42/19
f 35/48/19 37/42/19 39/41/19
f 38/43/20 34/39/20 36/40/20
f 38/43/20 36/40/20 40/44/20
f 42/50/11 41/51/11 43/52/11
f 42/50/11 43/52/11 44/9/11
f 47/53/12 45/54/12 46/55/12
f 47/53/12 46/55/12 48/56/12
f 45/50/6 41/55/6 42/57/6
f 45/50/6 42/57/6 46/58/6
f 44/54/5 43/59/5 47/57/5
f 44/54/5 47/57/5 48/55/5
f 43/60/13 41/61/13 45/54/13
f 43/60/13 45/54/13 47/53/13
f 46/55/14 42/50/14 44/9/14
f 46/55/14 44/9/14 48/56/14
f 50/62/11 49/61/11 51/60/11
f 50/62/11 51/60/11 52/63/11
f 55/64/12 53/65/12 54/66/12
f 55/64/12 54/66/12 56/45/12
f 53/62/6 49/66/6 50/67/6
f 53/62/6 50/67/6 54/68/6
f 52/65/5 51/69/5 55/67/5
f 52/65/5 55/67/5 56/66/5
f 51/70/13 49/71/13 53/65/13
f 51/70/13 53/65/13 55/64/13
f 54/66/14 50/62/14 52/63/14
f 54/66/14 52/63/14 56/45/14
